<svg id="education-feature" xmlns="http://www.w3.org/2000/svg" viewBox="0 0 286.5 260.5">
	<defs>
		<style>
			.cls-1,.cls-4{fill:none}.cls-1,.cls-3,.cls-4{stroke:#fff}.cls-1,.cls-3{stroke-miterlimit:10;stroke-width:1.5px}.cls-4{stroke-linecap:round;stroke-linejoin:round}.cls-3{fill:#b30838}.cls-4{stroke-width:2px;stroke-dasharray:0 5}
		</style>
	</defs>
	<g id="Layer_2" data-name="Layer 2">
		<g id="Layer_1-2" data-name="Layer 1">
			<path class="cls-1" d="M5.75.75h275a5 5 0 0 1 5 5v194.52a5 5 0 0 1-5 5h-275a5 5 0 0 1-5-5V5.75a5 5 0 0 1 5-5" style="animation:TtQaMRwE_draw 2000ms linear 0ms forwards" stroke-dasharray="971 973" stroke-dashoffset="972" />
			<path class="cls-1" d="M274 163.28V15.5a4.87 4.87 0 0 0-5-4.69H17.55a4.87 4.87 0 0 0-5 4.69v148.25z" style="animation:TtQaMRwE_draw 2000ms linear 25ms forwards" stroke-dasharray="825 827" stroke-dashoffset="826" />
			<path class="cls-1" d="M167.84 205.75l19.48 42.79s4.16 11.21-12.48 11.21h-63.37c-16.64 0-12.47-11.21-12.47-11.21l19.49-42.79" style="animation:TtQaMRwE_draw 2000ms linear 50ms forwards" stroke-dasharray="198 200" stroke-dashoffset="199" />
			<path class="cls-1" d="M.75 174.75h285" style="animation:TtQaMRwE_draw 2000ms linear 75ms forwards" stroke-dasharray="285 287" stroke-dashoffset="286" />
			<path class="cls-1" d="M27.08 28.85a2.77 2.77 0 1 1 5.54 0 2.77 2.77 0 1 1-5.54 0" style="animation:TtQaMRwE_draw 2000ms linear 100ms forwards" stroke-dasharray="18 20" stroke-dashoffset="19" />
			<path class="cls-1" d="M38.32 28.85a2.77 2.77 0 1 1 5.54 0 2.77 2.77 0 1 1-5.54 0" style="animation:TtQaMRwE_draw 2000ms linear 125ms forwards" stroke-dasharray="18 20" stroke-dashoffset="19" />
			<path class="cls-1" d="M49.55 28.85a2.77 2.77 0 1 1 5.54 0 2.77 2.77 0 1 1-5.54 0" style="animation:TtQaMRwE_draw 2000ms linear 150ms forwards" stroke-dasharray="18 20" stroke-dashoffset="19" />
			<path class="cls-1" d="M43.92 87.27c4.87-6.82 15.43-6.22 19.33 0" style="animation:TtQaMRwE_draw 2000ms linear 175ms forwards" stroke-dasharray="23 25" stroke-dashoffset="24" />
			<path class="cls-1" d="M39.25 80.07c7.22-9.46 22-8.64 28.67 0" style="animation:TtQaMRwE_draw 2000ms linear 200ms forwards" stroke-dasharray="33 35" stroke-dashoffset="34" />
			<path class="cls-1" d="M34 74.43c9.87-13.1 30.14-11.88 39.19 0" style="animation:TtQaMRwE_draw 2000ms linear 225ms forwards" stroke-dasharray="46 48" stroke-dashoffset="47" />
			<path class="cls-1" d="M216.64 85.47h30.57l3.56-20.41H212.4" style="animation:TtQaMRwE_draw 2000ms linear 250ms forwards" stroke-dasharray="90 92" stroke-dashoffset="91" />
			<path class="cls-1" d="M204.21 60.54h7.16l7.08 33.41h29.72" style="animation:TtQaMRwE_draw 2000ms linear 275ms forwards" stroke-dasharray="72 74" stroke-dashoffset="73" />
			<path class="cls-1" d="M220.71 96.35a2.06 2.06 0 1 1 4.12 0 2.06 2.06 0 1 1-4.12 0" style="animation:TtQaMRwE_draw 2000ms linear 300ms forwards" stroke-dasharray="13 15" stroke-dashoffset="14" />
			<path class="cls-1" d="M240.94 96.35a2.06 2.06 0 1 1 4.12 0 2.06 2.06 0 1 1-4.12 0" style="animation:TtQaMRwE_draw 2000ms linear 325ms forwards" stroke-dasharray="13 15" stroke-dashoffset="14" />
			<path class="cls-1" d="M219.05 65.13v20.12" style="animation:TtQaMRwE_draw 2000ms linear 350ms forwards" stroke-dasharray="21 23" stroke-dashoffset="22" />
			<path class="cls-1" d="M224.1 65.13v20.12" style="animation:TtQaMRwE_draw 2000ms linear 375ms forwards" stroke-dasharray="21 23" stroke-dashoffset="22" />
			<path class="cls-1" d="M229.16 65.13v20.12" style="animation:TtQaMRwE_draw 2000ms linear 400ms forwards" stroke-dasharray="21 23" stroke-dashoffset="22" />
			<path class="cls-1" d="M234.22 65.13v20.12" style="animation:TtQaMRwE_draw 2000ms linear 425ms forwards" stroke-dasharray="21 23" stroke-dashoffset="22" />
			<path class="cls-1" d="M239.28 65.13v20.12" style="animation:TtQaMRwE_draw 2000ms linear 450ms forwards" stroke-dasharray="21 23" stroke-dashoffset="22" />
			<path class="cls-1" d="M244.34 65.13v20.12" style="animation:TtQaMRwE_draw 2000ms linear 475ms forwards" stroke-dasharray="21 23" stroke-dashoffset="22" />
			<path class="cls-1" d="M250.15 68.75H213.2" style="animation:TtQaMRwE_draw 2000ms linear 500ms forwards" stroke-dasharray="37 39" stroke-dashoffset="38" />
			<path class="cls-1" d="M249.3 73.08h-35.31" style="animation:TtQaMRwE_draw 2000ms linear 525ms forwards" stroke-dasharray="36 38" stroke-dashoffset="37" />
			<path class="cls-1" d="M248.68 77.41h-33.62" style="animation:TtQaMRwE_draw 2000ms linear 550ms forwards" stroke-dasharray="34 36" stroke-dashoffset="35" />
			<path class="cls-1" d="M247.77 81.74h-31.75" style="animation:TtQaMRwE_draw 2000ms linear 575ms forwards" stroke-dasharray="32 34" stroke-dashoffset="33" />
			<path class="cls-1" d="M137.45 190.08a6.05 6.05 0 1 1 12.1 0 6.05 6.05 0 1 1-12.1 0" style="animation:TtQaMRwE_draw 2000ms linear 600ms forwards" stroke-dasharray="39 41" stroke-dashoffset="40" />
			<path class="cls-1" d="M36.96 128.76a16.67 16.67 0 1 1 33.34 0 16.67 16.67 0 1 1-33.34 0" style="animation:TtQaMRwE_draw 2000ms linear 625ms forwards" stroke-dasharray="105 107" stroke-dashoffset="106" />
			<path d="M50.35 137.04l11.61-8.28-11.67-7.33v15.67" style="animation:TtQaMRwE_draw 2000ms linear 650ms forwards" stroke-dasharray="44 46" stroke-dashoffset="45" stroke-linecap="round" stroke-linejoin="round" stroke-width="1.5" stroke="#fff" fill="none" />
			<path class="cls-3" d="M66.99 24.75h194.26v8.47H66.99z" style="animation:TtQaMRwE_draw 2000ms linear 675ms forwards" stroke-dasharray="406 408" stroke-dashoffset="407" />
			<path class="cls-3" d="M234.97 134.92l10.81 10.81" style="animation:TtQaMRwE_draw 2000ms linear 700ms forwards" stroke-dasharray="16 18" stroke-dashoffset="17" />
			<path class="cls-1" d="M218.6 128.65a9.45 9.45 0 1 1 18.9 0 9.45 9.45 0 1 1-18.9 0" style="animation:TtQaMRwE_draw 2000ms linear 725ms forwards" stroke-dasharray="60 62" stroke-dashoffset="61" />
			<path class="cls-1" d="M12.78 49.25h260.5" style="animation:TtQaMRwE_draw 2000ms linear 750ms forwards" stroke-dasharray="261 263" stroke-dashoffset="262" />
			<path class="cls-4 dotfade2" d="M93.45 52.25v110.5" style="animation:TtQaMRwE_draw 5000ms linear 775ms forwards infinite" stroke-dasharray="111 113" stroke-dashoffset="112" />
			<path class="cls-4 dotfade2" d="M187.95 52.25v110.5" style="animation:TtQaMRwE_draw 5000ms linear 800ms forwards infinite" stroke-dasharray="111 113" stroke-dashoffset="112" />
			<path class="cls-1" d="M110.78 67.25h62" style="animation:TtQaMRwE_draw 2000ms linear 825ms forwards" stroke-dasharray="62 64" stroke-dashoffset="63" />
			<path class="cls-1" d="M110.78 77.75h62" style="animation:TtQaMRwE_draw 2000ms linear 850ms forwards" stroke-dasharray="62 64" stroke-dashoffset="63" />
			<path class="cls-1" d="M110.78 88.25h62" style="animation:TtQaMRwE_draw 2000ms linear 875ms forwards" stroke-dasharray="62 64" stroke-dashoffset="63" />
			<path class="cls-1" d="M110.78 98.75h62" style="animation:TtQaMRwE_draw 2000ms linear 900ms forwards" stroke-dasharray="62 64" stroke-dashoffset="63" />
			<path class="cls-1" d="M110.78 109.25h62" style="animation:TtQaMRwE_draw 2000ms linear 925ms forwards" stroke-dasharray="62 64" stroke-dashoffset="63" />
			<path class="cls-1" d="M110.78 119.75h62" style="animation:TtQaMRwE_draw 2000ms linear 950ms forwards" stroke-dasharray="62 64" stroke-dashoffset="63" />
			<path class="cls-1" d="M110.78 130.25h62" style="animation:TtQaMRwE_draw 2000ms linear 975ms forwards" stroke-dasharray="62 64" stroke-dashoffset="63" />
			<path class="cls-1" d="M110.78 140.75h62" style="animation:TtQaMRwE_draw 2000ms linear 1000ms forwards" stroke-dasharray="62 64" stroke-dashoffset="63" />
		</g>
	</g>
	<style data-made-with="vivus-instant">
		@keyframes TtQaMRwE_draw{to{stroke-dashoffset:0}}@keyframes TtQaMRwE_fade{0%,94.44444444444444%{stroke-opacity:1}to{stroke-opacity:0}}
	</style>
</svg>