<?xml version="1.0" encoding="utf-8"?>
<!-- Generator: Adobe Illustrator 22.1.0, SVG Export Plug-In . SVG Version: 6.00 Build 0)  -->
<svg version="1.1" id="Layer_1" xmlns="http://www.w3.org/2000/svg" xmlns:xlink="http://www.w3.org/1999/xlink" x="0px" y="0px"
	 viewBox="0 0 469.5 456.5" style="enable-background:new 0 0 469.5 456.5;" xml:space="preserve">
<style type="text/css">
	.st0{fill:#636466;}
	.st1{fill:#FFFFFF;}
	.st2{fill:#B30838;}
</style>
<title>big-icon-bkg</title>
<g>
	<g>
		<path class="st0" d="M235,453c-60.1,0-116.6-23.4-159.1-65.9c-42.5-42.5-65.9-99-65.9-159.1S33.3,111.3,75.8,68.8
			c42.5-42.5,99-65.9,159.1-65.9s116.6,23.4,159.1,65.9c42.5,42.5,65.9,99,65.9,159.1s-23.4,116.6-65.9,159.1
			C351.6,429.6,295.1,453,235,453z M235,3.9c-59.8,0-116.1,23.3-158.4,65.6c-42.3,42.3-65.6,98.6-65.6,158.4s23.3,116.1,65.6,158.4
			C118.8,428.7,175.1,452,235,452s116.1-23.3,158.4-65.6c42.3-42.3,65.6-98.6,65.6-158.4s-23.3-116.1-65.6-158.4
			C351.1,27.2,294.8,3.9,235,3.9z"/>
	</g>
	<g id="Layer_2_1_">
		<g id="Layer_1-2">
			<rect x="9.6" y="226.7" class="st0" width="225.4" height="1"/>
			
				<rect x="66" y="324.2" transform="matrix(0.5003 -0.8659 0.8659 0.5003 -191.8975 316.9299)" class="st0" width="225.3" height="1"/>
			<rect x="290.8" y="212.1" transform="matrix(0.866 -0.5 0.5 0.866 -123.3457 189.1544)" class="st0" width="1" height="225.4"/>
			<rect x="235" y="226.7" class="st0" width="225.4" height="1"/>
			
				<rect x="178.6" y="129.1" transform="matrix(0.5003 -0.8659 0.8659 0.5003 33.3642 316.9631)" class="st0" width="225.4" height="1"/>
			<rect x="178.1" y="16.9" transform="matrix(0.866 -0.5 0.5 0.866 -40.8658 106.6742)" class="st0" width="1" height="225.4"/>
			<circle class="st1" cx="347.6" cy="422.3" r="5.8"/>
			<path class="st0" d="M347.6,428.6c-3.5,0-6.3-2.8-6.3-6.3s2.8-6.3,6.3-6.3s6.3,2.8,6.3,6.3v0
				C353.9,425.8,351.1,428.6,347.6,428.6z M347.6,417c-2.9,0-5.3,2.4-5.3,5.3s2.4,5.3,5.3,5.3c2.9,0,5.3-2.4,5.3-5.3v0
				C352.9,419.4,350.6,417,347.6,417z"/>
			<circle class="st1" cx="122.3" cy="422.3" r="5.8"/>
			<path class="st0" d="M122.3,428.6c-3.5,0-6.3-2.8-6.3-6.3c0-3.5,2.8-6.3,6.3-6.3s6.3,2.8,6.3,6.3l0,0
				C128.6,425.8,125.8,428.6,122.3,428.6z M122.3,417c-2.9,0-5.3,2.4-5.3,5.3c0,2.9,2.4,5.3,5.3,5.3s5.3-2.4,5.3-5.3l0,0
				C127.6,419.4,125.2,417,122.3,417z"/>
			<circle class="st1" cx="460.3" cy="227.2" r="5.8"/>
			<path class="st0" d="M460.3,233.5c-3.5,0-6.3-2.8-6.3-6.3c0-3.5,2.8-6.3,6.3-6.3c3.5,0,6.3,2.8,6.3,6.3c0,0,0,0,0,0
				C466.6,230.6,463.8,233.5,460.3,233.5z M460.3,221.9c-2.9,0-5.3,2.4-5.3,5.3c0,2.9,2.4,5.3,5.3,5.3c2.9,0,5.3-2.4,5.3-5.3
				c0,0,0,0,0,0C465.6,224.2,463.2,221.9,460.3,221.9z"/>
			<circle class="st1" cx="347.6" cy="31.8" r="5.8"/>
			<path class="st0" d="M347.6,38.1c-3.5,0-6.3-2.8-6.3-6.3s2.8-6.3,6.3-6.3s6.3,2.8,6.3,6.3c0,0,0,0,0,0
				C353.9,35.3,351.1,38.1,347.6,38.1z M347.6,26.5c-2.9,0-5.3,2.4-5.3,5.3c0,2.9,2.4,5.3,5.3,5.3c2.9,0,5.3-2.4,5.3-5.3
				c0,0,0,0,0,0C352.9,28.9,350.6,26.5,347.6,26.5z"/>
			<circle class="st1" cx="122.3" cy="31.8" r="5.8"/>
			<path class="st0" d="M122.3,38.1c-3.5,0-6.3-2.8-6.3-6.3s2.8-6.3,6.3-6.3s6.3,2.8,6.3,6.3C128.6,35.3,125.8,38.1,122.3,38.1z
				 M122.3,26.5c-2.9,0-5.3,2.4-5.3,5.3c0,2.9,2.4,5.3,5.3,5.3c2.9,0,5.3-2.4,5.3-5.3c0,0,0,0,0,0C127.6,28.9,125.2,26.5,122.3,26.5
				z"/>
			<circle class="st1" cx="9.6" cy="227.9" r="5.8"/>
			<path class="st0" d="M9.6,234.2c-3.5,0-6.3-2.8-6.3-6.3c0-3.5,2.8-6.3,6.3-6.3s6.3,2.8,6.3,6.3C15.9,231.4,13.1,234.2,9.6,234.2z
				 M9.6,222.6c-2.9,0-5.3,2.4-5.3,5.3s2.4,5.3,5.3,5.3s5.3-2.4,5.3-5.3C14.9,225,12.5,222.7,9.6,222.6L9.6,222.6z"/>
			<circle class="st2" cx="235.6" cy="227.9" r="206.2"/>
		</g>
	</g>
</g>
</svg>
