<svg xmlns="http://www.w3.org/2000/svg" viewBox="0 0 342.39 344.56" class="" style="">
	<defs>
		<style>
			.cls-bkg-burst-why1,.cls-bkg-burst-why4{fill:none;}.cls-bkg-burst-why1,.cls-bkg-burst-why2,.cls-bkg-burst-why4,.cls-bkg-burst-why6{stroke:#e6e6e6;}.cls-bkg-burst-why1,.cls-bkg-burst-why2,.cls-bkg-burst-why6{stroke-miterlimit:10;}.cls-bkg-burst-why1,.cls-bkg-burst-why6{stroke-width:1.3px;}.cls-bkg-burst-why2,.cls-bkg-burst-why5,.cls-bkg-burst-why6{fill:#fff;}.cls-bkg-burst-why2{stroke-width:5.19px;}.cls-bkg-burst-why3{fill:#e6e6e6;}.cls-bkg-burst-why4{stroke-linecap:round;stroke-linejoin:round;stroke-width:4.35px;stroke-dasharray:0 8.73;}
		</style>
	</defs>
	<title>burst-why-is-data-science-important</title>
	<g id="Layer_2" data-name="Layer 2">
		<g id="background">
			<path class="cls-bkg-burst-why1 pJVoHrMW_0" d="M177.8,187.11L177.8,7.27"></path>
			<path class="cls-bkg-burst-why1 pJVoHrMW_1" d="M177.8,187.11L237.91,41.98"></path>
			<path class="cls-bkg-burst-why1 pJVoHrMW_2" d="M177.8,187.11L229.95,134.96"></path>
			<path class="cls-bkg-burst-why1 pJVoHrMW_3" d="M177.8,187.11L333.12,122.77"></path>
			<path class="cls-bkg-burst-why1 pJVoHrMW_4" d="M177.8,187.11L333.12,187.11"></path>
			<path class="cls-bkg-burst-why1 pJVoHrMW_5" d="M177.8,187.11L221.09,205.04"></path>
			<path class="cls-bkg-burst-why1 pJVoHrMW_6" d="M177.8,187.11L273.63,282.94"></path>
			<path class="cls-bkg-burst-why1 pJVoHrMW_7" d="M177.8,187.11L177.8,307.32"></path>
			<path class="cls-bkg-burst-why1 pJVoHrMW_8" d="M177.8,187.11L158.39,233.97"></path>
			<path class="cls-bkg-burst-why1 pJVoHrMW_9" d="M177.8,187.11L59.12,305.78"></path>
			<path class="cls-bkg-burst-why1 pJVoHrMW_10" d="M177.8,187.11L17.8,253.38"></path>
			<path class="cls-bkg-burst-why1 pJVoHrMW_11" d="M177.8,187.11L84.07,187.11"></path>
			<path class="cls-bkg-burst-why1 pJVoHrMW_12" d="M177.8,187.11L70.07,142.48"></path>
			<path class="cls-bkg-burst-why1 pJVoHrMW_13" d="M177.8,187.11L77.68,86.99"></path>
			<path class="cls-bkg-burst-why1 pJVoHrMW_14" d="M177.8,187.11L141.93,100.52"></path>
			<path class="cls-bkg-burst-why1 pJVoHrMW_15" d="M243.43,339.95L181.51,190.47"></path>
			<path class="cls-bkg-burst-why2 pJVoHrMW_16" d="M166.98000000000002,187.11A10.82,10.82 0,1,1 188.62,187.11A10.82,10.82 0,1,1 166.98000000000002,187.11"></path>
			<path class="cls-bkg-burst-why3 pJVoHrMW_17" d="M238.82,339.95A4.61,4.61 0,1,1 248.04000000000002,339.95A4.61,4.61 0,1,1 238.82,339.95"></path>
			<path class="cls-bkg-burst-why4 pJVoHrMW_18" transform="translate(-93.03 29.88) rotate(-22.5)" d="M2.1799999999999997,248.78A26.42,26.42 0,1,1 55.02,248.78A26.42,26.42 0,1,1 2.1799999999999997,248.78"></path>
			<path class="cls-bkg-burst-why5 pJVoHrMW_19" d="M28.6,261a12.26,12.26,0,1,1,12.25-12.25A12.27,12.27,0,0,1,28.6,261Z"></path>
			<path class="cls-bkg-burst-why3 pJVoHrMW_20" d="M28.6,238.47a10.31,10.31,0,1,1-10.31,10.31A10.31,10.31,0,0,1,28.6,238.47m0-3.9a14.21,14.21,0,1,0,14.2,14.21,14.21,14.21,0,0,0-14.2-14.21Z"></path>
			<path class="cls-bkg-burst-why6 pJVoHrMW_21" d="M72.98,86.9A4.61,4.61 0,1,1 82.2,86.9A4.61,4.61 0,1,1 72.98,86.9"></path>
			<path class="cls-bkg-burst-why6 pJVoHrMW_22" d="M173.19,309.08A4.61,4.61 0,1,1 182.41000000000003,309.08A4.61,4.61 0,1,1 173.19,309.08"></path>
			<path class="cls-bkg-burst-why6 pJVoHrMW_23" d="M233.29999999999998,41.33A4.61,4.61 0,1,1 242.52,41.33A4.61,4.61 0,1,1 233.29999999999998,41.33"></path>
			<path class="cls-bkg-burst-why6 pJVoHrMW_24" d="M328.51,187.11A4.61,4.61 0,1,1 337.73,187.11A4.61,4.61 0,1,1 328.51,187.11"></path>
			<path class="cls-bkg-burst-why6 pJVoHrMW_25" d="M65.46,142.48A4.61,4.61 0,1,1 74.67999999999999,142.48A4.61,4.61 0,1,1 65.46,142.48"></path>
			<path class="cls-bkg-burst-why5 pJVoHrMW_26" d="M333.13,130.09a4.87,4.87,0,0,1-.54,0,7.31,7.31,0,0,1-6.77-7.83,7.34,7.34,0,0,1,7.29-6.79l.54,0a7.32,7.32,0,0,1-.52,14.62Z"></path>
			<path class="cls-bkg-burst-why3 pJVoHrMW_27" d="M333.11,117.4h.4a5.37,5.37,0,0,1,3.68,1.85,5.3,5.3,0,0,1,1.29,3.9,5.39,5.39,0,0,1-5.35,5l-.4,0a5.36,5.36,0,0,1-3.68-1.84,5.38,5.38,0,0,1,4.06-8.89m0-3.9a9.27,9.27,0,0,0-.67,18.52l.69,0a9.27,9.27,0,0,0,.67-18.51q-.35,0-.69,0Z"></path>
			<path class="cls-bkg-burst-why3 pJVoHrMW_28" d="M137.32,100.52A4.61,4.61 0,1,1 146.54000000000002,100.52A4.61,4.61 0,1,1 137.32,100.52"></path>
			<path class="cls-bkg-burst-why3 pJVoHrMW_29" d="M170.53,7.27A7.27,7.27 0,1,1 185.07000000000002,7.27A7.27,7.27 0,1,1 170.53,7.27"></path>
			<path class="cls-bkg-burst-why3 pJVoHrMW_30" d="M226.45999999999998,134.96A4.61,4.61 0,1,1 235.68,134.96A4.61,4.61 0,1,1 226.45999999999998,134.96"></path>
			<path class="cls-bkg-burst-why3 pJVoHrMW_31" d="M216.83999999999997,205.04A4.61,4.61 0,1,1 226.06,205.04A4.61,4.61 0,1,1 216.83999999999997,205.04"></path>
			<path class="cls-bkg-burst-why3 pJVoHrMW_32" d="M54.51,307.32A4.61,4.61 0,1,1 63.73,307.32A4.61,4.61 0,1,1 54.51,307.32"></path>
			<path class="cls-bkg-burst-why3 pJVoHrMW_33" d="M155.26,231.59A4.61,4.61 0,1,1 164.48000000000002,231.59A4.61,4.61 0,1,1 155.26,231.59"></path>
			<path class="cls-bkg-burst-why3 pJVoHrMW_34" d="M79.46,187.11A4.61,4.61 0,1,1 88.67999999999999,187.11A4.61,4.61 0,1,1 79.46,187.11"></path>
			<path class="cls-bkg-burst-why3 pJVoHrMW_35" d="M269.02,282.94A4.61,4.61 0,1,1 278.24,282.94A4.61,4.61 0,1,1 269.02,282.94"></path>
		</g>
	</g>
	<style data-made-with="vivus-instant">
		.pJVoHrMW_0{stroke-dasharray:180 182;stroke-dashoffset:181;}.start .pJVoHrMW_0{animation:pJVoHrMW_draw 1000ms linear 0ms forwards;}.pJVoHrMW_1{stroke-dasharray:158 160;stroke-dashoffset:159;}.start .pJVoHrMW_1{animation:pJVoHrMW_draw 1000ms linear 14ms forwards;}.pJVoHrMW_2{stroke-dasharray:74 76;stroke-dashoffset:75;}.start .pJVoHrMW_2{animation:pJVoHrMW_draw 1000ms linear 28ms forwards;}.pJVoHrMW_3{stroke-dasharray:169 171;stroke-dashoffset:170;}.start .pJVoHrMW_3{animation:pJVoHrMW_draw 1000ms linear 42ms forwards;}.pJVoHrMW_4{stroke-dasharray:156 158;stroke-dashoffset:157;}.start .pJVoHrMW_4{animation:pJVoHrMW_draw 1000ms linear 57ms forwards;}.pJVoHrMW_5{stroke-dasharray:47 49;stroke-dashoffset:48;}.start .pJVoHrMW_5{animation:pJVoHrMW_draw 1000ms linear 71ms forwards;}.pJVoHrMW_6{stroke-dasharray:136 138;stroke-dashoffset:137;}.start .pJVoHrMW_6{animation:pJVoHrMW_draw 1000ms linear 85ms forwards;}.pJVoHrMW_7{stroke-dasharray:121 123;stroke-dashoffset:122;}.start .pJVoHrMW_7{animation:pJVoHrMW_draw 1000ms linear 100ms forwards;}.pJVoHrMW_8{stroke-dasharray:51 53;stroke-dashoffset:52;}.start .pJVoHrMW_8{animation:pJVoHrMW_draw 1000ms linear 114ms forwards;}.pJVoHrMW_9{stroke-dasharray:168 170;stroke-dashoffset:169;}.start .pJVoHrMW_9{animation:pJVoHrMW_draw 1000ms linear 128ms forwards;}.pJVoHrMW_10{stroke-dasharray:174 176;stroke-dashoffset:175;}.start .pJVoHrMW_10{animation:pJVoHrMW_draw 1000ms linear 142ms forwards;}.pJVoHrMW_11{stroke-dasharray:94 96;stroke-dashoffset:95;}.start .pJVoHrMW_11{animation:pJVoHrMW_draw 1000ms linear 157ms forwards;}.pJVoHrMW_12{stroke-dasharray:117 119;stroke-dashoffset:118;}.start .pJVoHrMW_12{animation:pJVoHrMW_draw 1000ms linear 171ms forwards;}.pJVoHrMW_13{stroke-dasharray:142 144;stroke-dashoffset:143;}.start .pJVoHrMW_13{animation:pJVoHrMW_draw 1000ms linear 185ms forwards;}.pJVoHrMW_14{stroke-dasharray:94 96;stroke-dashoffset:95;}.start .pJVoHrMW_14{animation:pJVoHrMW_draw 1000ms linear 200ms forwards;}.pJVoHrMW_15{stroke-dasharray:162 164;stroke-dashoffset:163;}.start .pJVoHrMW_15{animation:pJVoHrMW_draw 1000ms linear 214ms forwards;}.pJVoHrMW_16{stroke-dasharray:69 71;stroke-dashoffset:70;}.start .pJVoHrMW_16{animation:pJVoHrMW_draw 1000ms linear 228ms forwards;}.pJVoHrMW_17{stroke-dasharray:29 31;stroke-dashoffset:30;}.start .pJVoHrMW_17{animation:pJVoHrMW_draw 1000ms linear 242ms forwards;}.pJVoHrMW_18{stroke-dasharray:167 169;stroke-dashoffset:168;}.start .pJVoHrMW_18{animation:pJVoHrMW_draw 1000ms linear 257ms forwards;}.pJVoHrMW_19{stroke-dasharray:78 80;stroke-dashoffset:79;}.start .pJVoHrMW_19{animation:pJVoHrMW_draw 1000ms linear 271ms forwards;}.pJVoHrMW_20{stroke-dasharray:155 157;stroke-dashoffset:156;}.start .pJVoHrMW_20{animation:pJVoHrMW_draw 1000ms linear 285ms forwards;}.pJVoHrMW_21{stroke-dasharray:29 31;stroke-dashoffset:30;}.start .pJVoHrMW_21{animation:pJVoHrMW_draw 1000ms linear 300ms forwards;}.pJVoHrMW_22{stroke-dasharray:29 31;stroke-dashoffset:30;}.start .pJVoHrMW_22{animation:pJVoHrMW_draw 1000ms linear 314ms forwards;}.pJVoHrMW_23{stroke-dasharray:29 31;stroke-dashoffset:30;}.start .pJVoHrMW_23{animation:pJVoHrMW_draw 1000ms linear 328ms forwards;}.pJVoHrMW_24{stroke-dasharray:29 31;stroke-dashoffset:30;}.start .pJVoHrMW_24{animation:pJVoHrMW_draw 1000ms linear 342ms forwards;}.pJVoHrMW_25{stroke-dasharray:29 31;stroke-dashoffset:30;}.start .pJVoHrMW_25{animation:pJVoHrMW_draw 1000ms linear 357ms forwards;}.pJVoHrMW_26{stroke-dasharray:46 48;stroke-dashoffset:47;}.start .pJVoHrMW_26{animation:pJVoHrMW_draw 1000ms linear 371ms forwards;}.pJVoHrMW_27{stroke-dasharray:93 95;stroke-dashoffset:94;}.start .pJVoHrMW_27{animation:pJVoHrMW_draw 1000ms linear 385ms forwards;}.pJVoHrMW_28{stroke-dasharray:30 32;stroke-dashoffset:31;}.start .pJVoHrMW_28{animation:pJVoHrMW_draw 1000ms linear 400ms forwards;}.pJVoHrMW_29{stroke-dasharray:46 48;stroke-dashoffset:47;}.start .pJVoHrMW_29{animation:pJVoHrMW_draw 1000ms linear 414ms forwards;}.pJVoHrMW_30{stroke-dasharray:30 32;stroke-dashoffset:31;}.start .pJVoHrMW_30{animation:pJVoHrMW_draw 1000ms linear 428ms forwards;}.pJVoHrMW_31{stroke-dasharray:29 31;stroke-dashoffset:30;}.start .pJVoHrMW_31{animation:pJVoHrMW_draw 1000ms linear 442ms forwards;}.pJVoHrMW_32{stroke-dasharray:29 31;stroke-dashoffset:30;}.start .pJVoHrMW_32{animation:pJVoHrMW_draw 1000ms linear 457ms forwards;}.pJVoHrMW_33{stroke-dasharray:29 31;stroke-dashoffset:30;}.start .pJVoHrMW_33{animation:pJVoHrMW_draw 1000ms linear 471ms forwards;}.pJVoHrMW_34{stroke-dasharray:29 31;stroke-dashoffset:30;}.start .pJVoHrMW_34{animation:pJVoHrMW_draw 1000ms linear 485ms forwards;}.pJVoHrMW_35{stroke-dasharray:29 31;stroke-dashoffset:30;}.start .pJVoHrMW_35{animation:pJVoHrMW_draw 1000ms linear 500ms forwards;}@keyframes pJVoHrMW_draw{100%{stroke-dashoffset:0;}}@keyframes pJVoHrMW_fade{0%{stroke-opacity:1;}92.98245614035088%{stroke-opacity:1;}100%{stroke-opacity:0;}}
	</style>
</svg>