<svg xmlns="http://www.w3.org/2000/svg" viewBox="0 0 384.4 341.1" id="burst6">
  <defs>
    <style>
      .burst6-cls-1{fill:none;}
      .burst6-cls-1,.burst6-cls-2{stroke:#e6e6e6;stroke-miterlimit:10;}
      .burst6-cls-2{fill:#fff;}
      .burst6-cls-3{fill:#e6e6e6;}
      .burst6-cls-4{fill:#ccc;}
    </style>
  </defs>
  <title>burst6</title>
  <g data-name="Layer 2">
      <line class="burst6-cls-1" x1="179.5" y1="174.6" x2="179.5" y2="305.5"/>
      <line class="burst6-cls-1" x1="179.5" y1="174.6" x2="158.3" y2="225.8"/>
      <line class="burst6-cls-1" x1="179.5" y1="174.6" x2="94.3" y2="259.8"/>
      <line class="burst6-cls-1" x1="179.5" y1="174.6" x2="110.8" y2="203.1"/>
      <line class="burst6-cls-1" x1="179.5" y1="174.6" x2="3.6" y2="174.6"/>
      <line class="burst6-cls-1" x1="177.8" y1="172.9" x2="114" y2="109.1"/>
      <line class="burst6-cls-1" x1="179.5" y1="174.6" x2="119.6" y2="30"/>
      <line class="burst6-cls-1" x1="179.5" y1="174.6" x2="179.5" y2="5.2"/>
      <line class="burst6-cls-1" x1="179.5" y1="174.6" x2="211.9" y2="96.4"/>
      <line class="burst6-cls-1" x1="179.5" y1="174.6" x2="257.7" y2="96.4"/>
      <line class="burst6-cls-1" x1="179.5" y1="174.6" x2="339.8" y2="108.3"/>
      <line class="burst6-cls-1" x1="179.1" y1="174.6" x2="380.8" y2="174.6"/>
      <line class="burst6-cls-1" x1="179.5" y1="174.6" x2="250.4" y2="204"/>
      <line class="burst6-cls-1" x1="57.9" y1="122.6" x2="176.6" y2="171.8"/>
      <line class="burst6-cls-1" x1="179.5" y1="174.6" x2="345.7" y2="340.8"/>
      <line class="burst6-cls-1" x1="179.5" y1="174.6" x2="204.1" y2="233.8"/>
      <circle class="burst6-cls-2" cx="179.5" cy="174.6" r="14.3"/>
      <circle class="burst6-cls-2" cx="339.8" cy="108.3" r="3.6"/>
      <circle class="burst6-cls-2" cx="211.9" cy="96.4" r="3.6"/>
      <circle class="burst6-cls-2" cx="114" cy="109.1" r="3.6"/>
      <circle class="burst6-cls-2" cx="250.4" cy="204" r="3.6"/>
      <circle class="burst6-cls-2" cx="179.5" cy="4.1" r="3.6"/>
      <circle class="burst6-cls-3" cx="114" cy="200.4" r="3.6"/>
      <circle class="burst6-cls-4" cx="158.3" cy="225.8" r="6.3"/>
      <circle class="burst6-cls-3" cx="380.8" cy="174.6" r="3.6"/>
      <circle class="burst6-cls-3" cx="119.6" cy="30" r="3.6"/>
      <circle class="burst6-cls-3" cx="3.6" cy="174.6" r="3.6"/>
      <circle class="burst6-cls-3" cx="257.7" cy="96.4" r="3.6"/>
      <circle class="burst6-cls-3" cx="57.9" cy="122.6" r="3.6"/>
  </g>
</svg>