<svg xmlns="http://www.w3.org/2000/svg" viewBox="0 0 279.6 266.03" id="bkg-burst-what-svg" style="display:none;">
	<defs>
		<style>
			.bkg-burst-what-svg-cls-1,.bkg-burst-what-svg-cls-4{fill:none;}.bkg-burst-what-svg-cls-1,.bkg-burst-what-svg-cls-2,.bkg-burst-what-svg-cls-4,.bkg-burst-what-svg-cls-6{stroke:#e6e6e6;}.bkg-burst-what-svg-cls-1,.bkg-burst-what-svg-cls-2,.bkg-burst-what-svg-cls-6{stroke-miterlimit:10;}.bkg-burst-what-svg-cls-2,.bkg-burst-what-svg-cls-5,.bkg-burst-what-svg-cls-6{fill:#fff;}.bkg-burst-what-svg-cls-2{stroke-width:4px;}.bkg-burst-what-svg-cls-3{fill:#e6e6e6;}.bkg-burst-what-svg-cls-4{stroke-linecap:round;stroke-linejoin:round;stroke-width:3.35px;stroke-dasharray:0 6.73;}
		</style>
	</defs>
	<title>burst-what-is-data-science</title>
	<g id="Layer_2" data-name="Layer 2">
		<g id="background">
			<path class="bkg-burst-what-svg-cls-1 xmHkseVq_0" d="M152.83,113.2L250.78,15.25"></path>
			<path class="bkg-burst-what-svg-cls-1 xmHkseVq_1" d="M152.84,113.2L264.61,66.9"></path>
			<path class="bkg-burst-what-svg-cls-1 xmHkseVq_2" d="M152.83,113.2L209.64,113.2"></path>
			<path class="bkg-burst-what-svg-cls-1 xmHkseVq_3" d="M152.83,113.2L272.46,162.75"></path>
			<path class="bkg-burst-what-svg-cls-1 xmHkseVq_4" d="M152.83,113.19L237.42,197.78"></path>
			<path class="bkg-burst-what-svg-cls-1 xmHkseVq_5" d="M152.83,113.2L166.65,146.54"></path>
			<path class="bkg-burst-what-svg-cls-1 xmHkseVq_6" d="M152.83,113.2L152.83,185.38"></path>
			<path class="bkg-burst-what-svg-cls-1 xmHkseVq_7" d="M152.84,113.2L4.05,261.98"></path>
			<path class="bkg-burst-what-svg-cls-1 xmHkseVq_8" d="M152.83,113.2L116.74,128.15"></path>
			<path class="bkg-burst-what-svg-cls-1 xmHkseVq_9" d="M152.83,113.2L23.57,113.2"></path>
			<path class="bkg-burst-what-svg-cls-1 xmHkseVq_10" d="M152.83,113.2L29.61,62.15"></path>
			<path class="bkg-burst-what-svg-cls-1 xmHkseVq_11" d="M152.83,113.2L101.79,62.15"></path>
			<path class="bkg-burst-what-svg-cls-1 xmHkseVq_12" d="M152.83,113.2L118.47,30.22"></path>
			<path class="bkg-burst-what-svg-cls-1 xmHkseVq_13" d="M152.83,113.2L152.83,4.15"></path>
			<path class="bkg-burst-what-svg-cls-1 xmHkseVq_14" d="M152.83,113.2L180.46,46.51"></path>
			<path class="bkg-burst-what-svg-cls-1 xmHkseVq_15" d="M105.34,232.18L153.03,117.05"></path>
			<path class="bkg-burst-what-svg-cls-2 xmHkseVq_16" d="M144.49,113.2A8.34,8.34 0,1,1 161.17000000000002,113.2A8.34,8.34 0,1,1 144.49,113.2"></path>
			<path class="bkg-burst-what-svg-cls-3 xmHkseVq_17 dotfade" d="M101.79,232.18A3.55,3.55 0,1,1 108.89,232.18A3.55,3.55 0,1,1 101.79,232.18"></path>
			<path class="bkg-burst-what-svg-cls-4 xmHkseVq_18 dotfade" style="stroke-dasharray: .5 7;stroke-dashoffset: 0;" d="M17.64,65.52A20.35,20.35 0,1,1 58.34,65.52A20.35,20.35 0,1,1 17.64,65.52"></path>
			<path class="bkg-burst-what-svg-cls-5 xmHkseVq_19 dotfade2" d="M38,75a9.44,9.44,0,1,1,6.68-2.76A9.37,9.37,0,0,1,38,75Z"></path>
			<path class="bkg-burst-what-svg-cls-3 xmHkseVq_20 dotfade" d="M38,57.59a7.92,7.92,0,1,1-5.61,2.32A7.9,7.9,0,0,1,38,57.59m0-3a10.94,10.94,0,1,0,7.74,3.2A10.86,10.86,0,0,0,38,54.59Z"></path>
			<path class="bkg-burst-what-svg-cls-6 xmHkseVq_21 dotfade" d="M149.28,4.05A3.55,3.55 0,1,1 156.38000000000002,4.05A3.55,3.55 0,1,1 149.28,4.05"></path>
			<path class="bkg-burst-what-svg-cls-6 xmHkseVq_22 dotfade2" d="M0.5,261.98A3.55,3.55 0,1,1 7.6,261.98A3.55,3.55 0,1,1 0.5,261.98"></path>
			<path class="bkg-burst-what-svg-cls-6 xmHkseVq_23 dotfade" d="M261.40999999999997,66.54A3.55,3.55 0,1,1 268.51,66.54A3.55,3.55 0,1,1 261.40999999999997,66.54"></path>
			<path class="bkg-burst-what-svg-cls-6 xmHkseVq_24 dotfade2" d="M233.88,197.78A3.55,3.55 0,1,1 240.98000000000002,197.78A3.55,3.55 0,1,1 233.88,197.78"></path>
			<path class="bkg-burst-what-svg-cls-6 xmHkseVq_25 dotfade" d="M114.92,30.22A3.55,3.55 0,1,1 122.02,30.22A3.55,3.55 0,1,1 114.92,30.22"></path>
			<path class="bkg-burst-what-svg-cls-5 xmHkseVq_26 dotfade2" d="M272.47,168.39a5.67,5.67,0,0,1-4.28-2,5.63,5.63,0,1,1,4.28,2Z"></path>
			<path class="bkg-burst-what-svg-cls-3 xmHkseVq_27 dotfade" d="M272.46,158.61a4.14,4.14,0,1,1-2.7,1,4.13,4.13,0,0,1,2.7-1m0-3a7.14,7.14,0,1,0,5.4,2.47,7.11,7.11,0,0,0-5.4-2.47Z"></path>
			<path class="bkg-burst-what-svg-cls-3 xmHkseVq_28 dotfade2" d="M176.91,46.51A3.55,3.55 0,1,1 184.01000000000002,46.51A3.55,3.55 0,1,1 176.91,46.51"></path>
			<path class="bkg-burst-what-svg-cls-3 xmHkseVq_29 dotfade" d="M245.18,15.25A5.6,5.6 0,1,1 256.38,15.25A5.6,5.6 0,1,1 245.18,15.25"></path>
			<path class="bkg-burst-what-svg-cls-3 xmHkseVq_30 dotfade2" d="M206.7,113.8A3.55,3.55 0,1,1 213.8,113.8A3.55,3.55 0,1,1 206.7,113.8"></path>
			<path class="bkg-burst-what-svg-cls-3 xmHkseVq_31 dotfade" d="M163.29,146.73A3.55,3.55 0,1,1 170.39000000000001,146.73A3.55,3.55 0,1,1 163.29,146.73"></path>
			<path class="bkg-burst-what-svg-cls-3 xmHkseVq_32 dotfade2" d="M19.18,114.03A3.55,3.55 0,1,1 26.28,114.03A3.55,3.55 0,1,1 19.18,114.03"></path>
			<path class="bkg-burst-what-svg-cls-3 xmHkseVq_33 dotfade" d="M115.29,127.65A3.55,3.55 0,1,1 122.39,127.65A3.55,3.55 0,1,1 115.29,127.65"></path>
			<path class="bkg-burst-what-svg-cls-3 xmHkseVq_34 dotfade2" d="M98.24000000000001,62.15A3.55,3.55 0,1,1 105.34,62.15A3.55,3.55 0,1,1 98.24000000000001,62.15"></path>
			<path class="bkg-burst-what-svg-cls-3 xmHkseVq_35 dotfade" d="M149.28,185.38A3.55,3.55 0,1,1 156.38000000000002,185.38A3.55,3.55 0,1,1 149.28,185.38"></path>
		</g>
	</g>
	<style data-made-with="vivus-instant">
		.xmHkseVq_0{stroke-dasharray:139 141;stroke-dashoffset:140;animation:xmHkseVq_draw 1200ms linear 0ms forwards;}.xmHkseVq_1{stroke-dasharray:121 123;stroke-dashoffset:122;animation:xmHkseVq_draw 1200ms linear 17ms forwards;}.xmHkseVq_2{stroke-dasharray:57 59;stroke-dashoffset:58;animation:xmHkseVq_draw 1200ms linear 34ms forwards;}.xmHkseVq_3{stroke-dasharray:130 132;stroke-dashoffset:131;animation:xmHkseVq_draw 1200ms linear 51ms forwards;}.xmHkseVq_4{stroke-dasharray:120 122;stroke-dashoffset:121;animation:xmHkseVq_draw 1200ms linear 68ms forwards;}.xmHkseVq_5{stroke-dasharray:37 39;stroke-dashoffset:38;animation:xmHkseVq_draw 1200ms linear 85ms forwards;}.xmHkseVq_6{stroke-dasharray:73 75;stroke-dashoffset:74;animation:xmHkseVq_draw 1200ms linear 102ms forwards;}.xmHkseVq_7{stroke-dasharray:211 213;stroke-dashoffset:212;animation:xmHkseVq_draw 1200ms linear 120ms forwards;}.xmHkseVq_8{stroke-dasharray:40 42;stroke-dashoffset:41;animation:xmHkseVq_draw 1200ms linear 137ms forwards;}.xmHkseVq_9{stroke-dasharray:130 132;stroke-dashoffset:131;animation:xmHkseVq_draw 1200ms linear 154ms forwards;}.xmHkseVq_10{stroke-dasharray:134 136;stroke-dashoffset:135;animation:xmHkseVq_draw 1200ms linear 171ms forwards;}.xmHkseVq_11{stroke-dasharray:73 75;stroke-dashoffset:74;animation:xmHkseVq_draw 1200ms linear 188ms forwards;}.xmHkseVq_12{stroke-dasharray:90 92;stroke-dashoffset:91;animation:xmHkseVq_draw 1200ms linear 205ms forwards;}.xmHkseVq_13{stroke-dasharray:110 112;stroke-dashoffset:111;animation:xmHkseVq_draw 1200ms linear 222ms forwards;}.xmHkseVq_14{stroke-dasharray:73 75;stroke-dashoffset:74;animation:xmHkseVq_draw 1200ms linear 240ms forwards;}.xmHkseVq_15{stroke-dasharray:125 127;stroke-dashoffset:126;animation:xmHkseVq_draw 1200ms linear 257ms forwards;}.xmHkseVq_16{stroke-dasharray:53 55;stroke-dashoffset:54;animation:xmHkseVq_draw 1200ms linear 274ms forwards;}.xmHkseVq_17{stroke-dasharray:23 25;stroke-dashoffset:24;animation:xmHkseVq_draw 1200ms linear 291ms forwards;}.xmHkseVq_18{stroke-dasharray:128 130;stroke-dashoffset:129;animation:xmHkseVq_draw 1200ms linear 308ms forwards;}.xmHkseVq_19{stroke-dasharray:60 62;stroke-dashoffset:61;animation:xmHkseVq_draw 1200ms linear 325ms forwards;}.xmHkseVq_20{stroke-dasharray:119 121;stroke-dashoffset:120;animation:xmHkseVq_draw 1200ms linear 342ms forwards;}.xmHkseVq_21{stroke-dasharray:23 25;stroke-dashoffset:24;animation:xmHkseVq_draw 1200ms linear 360ms forwards;}.xmHkseVq_22{stroke-dasharray:23 25;stroke-dashoffset:24;animation:xmHkseVq_draw 1200ms linear 377ms forwards;}.xmHkseVq_23{stroke-dasharray:23 25;stroke-dashoffset:24;animation:xmHkseVq_draw 1200ms linear 394ms forwards;}.xmHkseVq_24{stroke-dasharray:23 25;stroke-dashoffset:24;animation:xmHkseVq_draw 1200ms linear 411ms forwards;}.xmHkseVq_25{stroke-dasharray:23 25;stroke-dashoffset:24;animation:xmHkseVq_draw 1200ms linear 428ms forwards;}.xmHkseVq_26{stroke-dasharray:36 38;stroke-dashoffset:37;animation:xmHkseVq_draw 1200ms linear 445ms forwards;}.xmHkseVq_27{stroke-dasharray:71 73;stroke-dashoffset:72;animation:xmHkseVq_draw 1200ms linear 462ms forwards;}.xmHkseVq_28{stroke-dasharray:23 25;stroke-dashoffset:24;animation:xmHkseVq_draw 1200ms linear 480ms forwards;}.xmHkseVq_29{stroke-dasharray:36 38;stroke-dashoffset:37;animation:xmHkseVq_draw 1200ms linear 497ms forwards;}.xmHkseVq_30{stroke-dasharray:23 25;stroke-dashoffset:24;animation:xmHkseVq_draw 1200ms linear 514ms forwards;}.xmHkseVq_31{stroke-dasharray:23 25;stroke-dashoffset:24;animation:xmHkseVq_draw 1200ms linear 531ms forwards;}.xmHkseVq_32{stroke-dasharray:23 25;stroke-dashoffset:24;animation:xmHkseVq_draw 1200ms linear 548ms forwards;}.xmHkseVq_33{stroke-dasharray:23 25;stroke-dashoffset:24;animation:xmHkseVq_draw 1200ms linear 565ms forwards;}.xmHkseVq_34{stroke-dasharray:23 25;stroke-dashoffset:24;animation:xmHkseVq_draw 1200ms linear 582ms forwards;}.xmHkseVq_35{stroke-dasharray:23 25;stroke-dashoffset:24;animation:xmHkseVq_draw 1200ms linear 600ms forwards;}@keyframes xmHkseVq_draw{100%{stroke-dashoffset:0;}}@keyframes xmHkseVq_fade{0%{stroke-opacity:1;}93.33333333333333%{stroke-opacity:1;}100%{stroke-opacity:0;}}
	</style>
</svg>