<svg xmlns="http://www.w3.org/2000/svg" viewBox="0 0 401.1 419.3" id="burst4">
  <defs>
    <style>
      .burst4-cls-1,.burst4-cls-5{fill:none;}
      .burst4-cls-1,.burst4-cls-5,.burst4-cls-6,.burst4-cls-7{stroke:#e6e6e6;}
      .burst4-cls-1,.burst4-cls-6,.burst4-cls-7{stroke-miterlimit:10;}
      .burst4-cls-2,.burst4-cls-6,.burst4-cls-7{fill:#fff;}
      .burst4-cls-3{fill:#e6e6e6;}
      .burst4-cls-4{fill:#ccc;}
      .burst4-cls-5{stroke-linecap:round;stroke-linejoin:round;stroke-width:3.35px;stroke-dasharray:0 6.73;}
      .burst4-cls-7{stroke-width:2.01px;}
    </style>
  </defs>
  <title>
    burst4
  </title>
  <g data-name="Layer 2">
      <line class="burst4-cls-1" x1="188.8" y1="234.7" x2="188.8" y2="415.7"/>
      <line class="burst4-cls-1" x1="189.4" y1="233.2" x2="121" y2="398.3"/>
      <line class="burst4-cls-1" x1="188.8" y1="234.7" x2="83.2" y2="340.3"/>
      <line class="burst4-cls-1" x1="188.8" y1="234.7" x2="3.6" y2="311.4"/>
      <line class="burst4-cls-1" x1="188.8" y1="234.7" x2="13.1" y2="234.7"/>
      <line class="burst4-cls-1" x1="188.8" y1="234.7" x2="135.7" y2="181.6"/>
      <line class="burst4-cls-1" x1="188.8" y1="234.7" x2="121" y2="71.1"/>
      <line class="burst4-cls-1" x1="188.8" y1="232" x2="188.8" y2="29.9"/>
      <line class="burst4-cls-1" x1="188.8" y1="234.7" x2="279.3" y2="16.3"/>
      <line class="burst4-cls-1" x1="188.8" y1="234.7" x2="330.3" y2="93.2"/>
      <line class="burst4-cls-1" x1="188.8" y1="234.7" x2="395.9" y2="148.9"/>
      <line class="burst4-cls-1" x1="189.4" y1="234.7" x2="79.6" y2="189.2"/>
      <line class="burst4-cls-1" x1="188.8" y1="234.7" x2="392.9" y2="234.7"/>
      <line class="burst4-cls-1" x1="188.8" y1="234.7" x2="297.2" y2="279.6"/>
      <line class="burst4-cls-1" x1="188.8" y1="234.7" x2="266.6" y2="312.5"/>
      <line class="burst4-cls-1" x1="188.8" y1="234.7" x2="255.9" y2="396.7"/>
      <path class="burst4-cls-2" d="M188.8 249.1a14.4 14.4 0 1 1 14.4-14.4A14.4 14.4 0 0 1 188.8 249.1Z"/>
      <path class="burst4-cls-3" d="M188.8 223.3a11.4 11.4 0 1 1-11.4 11.4 11.4 11.4 0 0 1 11.4-11.4m0-6a17.4 17.4 0 1 0 17.4 17.4 17.4 17.4 0 0 0-17.4-17.4Z"/>
      <circle class="burst4-cls-3" cx="330.3" cy="93.2" r="3.6"/>
      <circle class="burst4-cls-3" cx="121.5" cy="71.1" r="3.6"/>
      <circle class="burst4-cls-3" cx="266.6" cy="312.5" r="3.6"/>
      <circle class="burst4-cls-4" cx="188.8" cy="415.7" r="3.6"/>
      <circle class="burst4-cls-3" cx="83.2" cy="340.3" r="3.6"/>
      <circle class="burst4-cls-3" cx="79.6" cy="189.2" r="3.6"/>
      <circle class="burst4-cls-3" cx="3.6" cy="311.4" r="3.6"/>
      <circle class="burst4-cls-5" cx="276.9" cy="22" r="20.4"/>
      <circle class="burst4-cls-3" cx="276.9" cy="22" r="10.9"/>
      <circle class="burst4-cls-6" cx="297.2" cy="279.6" r="3.6"/>
      <circle class="burst4-cls-6" cx="13.1" cy="234.7" r="3.6"/>
      <circle class="burst4-cls-6" cx="136" cy="181.6" r="3.6"/>
      <circle class="burst4-cls-6" cx="121" cy="398.3" r="3.6"/>
      <circle class="burst4-cls-6" cx="395.9" cy="148.9" r="3.6"/>
      <circle class="burst4-cls-6" cx="188.8" cy="29.6" r="3.6"/>
      <circle class="burst4-cls-7" cx="255.9" cy="396.7" r="7.1"/>
      <circle class="burst4-cls-7" cx="392.9" cy="234.7" r="7.1"/>
  </g>
</svg>
 
