<svg xmlns="http://www.w3.org/2000/svg" viewBox="0 0 266.4 204.9" id="burst1">
  <defs>
    <style>
      .burst1-cls-1{fill:none;}
      .burst1-cls-1,.burst1-cls-2,.burst1-cls-3,.burst1-cls-4{stroke:#e6e6e6;stroke-miterlimit:10;}
      .burst1-cls-2,.burst1-cls-3,.burst1-cls-4{fill:#fff;}
      .burst1-cls-2{stroke-width:4px;}
      .burst1-cls-4{stroke-width:2.01px;}
      .burst1-cls-5{fill:#e6e6e6;}
    </style>
  </defs>
  <title>
    burst1
  </title>
  <g data-name="Layer 2">
      <line class="burst1-cls-1" x1="109.2" y1="68.5" x2="109.2" y2="200.1"/>
      <line class="burst1-cls-1" x1="109.2" y1="72.2" x2="72.2" y2="161.5"/>
      <line class="burst1-cls-1" x1="109.2" y1="72.2" x2="56.5" y2="94"/>
      <line class="burst1-cls-1" x1="109.2" y1="72.2" x2="8.2" y2="72.2"/>
      <line class="burst1-cls-1" x1="109.2" y1="72.2" x2="22.1" y2="36.1"/>
      <line class="burst1-cls-1" x1="109.2" y1="72.2" x2="58.2" y2="21.1"/>
      <line class="burst1-cls-1" x1="109.2" y1="72.2" x2="81.6" y2="5.5"/>
      <line class="burst1-cls-1" x1="146.2" y1="161.4" x2="109.2" y2="72.2"/>
      <line class="burst1-cls-1" x1="109.2" y1="72.2" x2="109.2"/>
      <line class="burst1-cls-1" x1="109.2" y1="72.2" x2="136.8" y2="5.5"/>
      <line class="burst1-cls-1" x1="109.2" y1="72.2" x2="160.3" y2="21.1"/>
      <line class="burst1-cls-1" x1="31.3" y1="150.1" x2="109.2" y2="72.2"/>
      <line class="burst1-cls-1" x1="109.2" y1="72.2" x2="217.9" y2="27.2"/>
      <line class="burst1-cls-1" x1="109.2" y1="72.2" x2="181.4" y2="72.2"/>
      <line class="burst1-cls-1" x1="109.2" y1="72.2" x2="262.8" y2="135.8"/>
      <line class="burst1-cls-1" x1="109.2" y1="72.2" x2="158.7" y2="121.7"/>
      <circle class="burst1-cls-2" cx="110.2" cy="72.2" r="8.3"/>
      <circle class="burst1-cls-3" cx="55.5" cy="94.5" r="3.6"/>
      <circle class="burst1-cls-3" cx="186" cy="72.2" r="3.6"/>
      <circle class="burst1-cls-3" cx="109.2" cy="200.9" r="3.6"/>
      <circle class="burst1-cls-3" cx="31.3" cy="150.1" r="3.6"/>
      <circle class="burst1-cls-4" cx="8.2" cy="72.2" r="7.1"/>
      <circle class="burst1-cls-5" cx="72.2" cy="161.5" r="3.6"/>
      <circle class="burst1-cls-5" cx="146.2" cy="161.5" r="3.6"/>
      <circle class="burst1-cls-5" cx="262.8" cy="135.8" r="3.6"/>
      <circle class="burst1-cls-5" cx="158.7" cy="121.7" r="3.6"/>
  </g>
</svg>