<svg xmlns="http://www.w3.org/2000/svg" viewBox="0 0 393.3 462.6" id="burst2">
  <defs>
    <style>
      .burst2-cls-1{fill:none;}
      .burst2-cls-1,.burst2-cls-4,.burst2-cls-5{stroke:#e6e6e6;stroke-miterlimit:10;}
      .burst2-cls-2,.burst2-cls-4,.burst2-cls-5{fill:#fff;}.burst2-cls-3{fill:#e6e6e6;}
      .burst2-cls-5{stroke-width:2.01px;}
    </style>
  </defs>
  <title>
    burst2
  </title>
  <g data-name="Layer 2">
      <line class="burst2-cls-1" x1="122.1" y1="193.3" x2="122.1" y2="435.3"/>
      <line class="burst2-cls-1" x1="122.1" y1="193.3" x2="67.7" y2="324.6"/>
      <line class="burst2-cls-1" x1="122.1" y1="193.3" x2="57.2" y2="220.1"/>
      <line class="burst2-cls-1" x1="122.1" y1="193.3" x2="6.9" y2="193.3"/>
      <line class="burst2-cls-1" x1="122.1" y1="193.3" x2="88.7" y2="179.4"/>
      <line class="burst2-cls-1" x1="122.1" y1="193.3" x2="78.8" y2="149.9"/>
      <line class="burst2-cls-1" x1="122.3" y1="193.3" x2="42.3" y2="0.2"/>
      <line class="burst2-cls-1" x1="122.1" y1="193.3" x2="122.1" y2="141.1"/>
      <line class="burst2-cls-1" x1="122.1" y1="193.3" x2="185.9" y2="39.1"/>
      <line class="burst2-cls-1" x1="122.1" y1="193.3" x2="198.4" y2="117"/>
      <line class="burst2-cls-1" x1="122.1" y1="193.3" x2="385.1" y2="84.3"/>
      <line class="burst2-cls-1" x1="122.1" y1="193.3" x2="245.8" y2="193.3"/>
      <line class="burst2-cls-1" x1="122.1" y1="194.3" x2="194.8" y2="224.4"/>
      <line class="burst2-cls-1" x1="122.1" y1="193.3" x2="237.4" y2="308.6"/>
      <line class="burst2-cls-1" x1="122.1" y1="193.3" x2="171" y2="311.4"/>
      <path class="burst2-cls-2" d="M122.1 206.1a13.7 13.7 0 1 1 13.7-13.7A13.7 13.7 0 0 1 122.1 206.1Z"/>
      <path class="burst2-cls-3" d="M122.1 181.7A10.7 10.7 0 1 1 111.4 192.4a10.7 10.7 0 0 1 10.7-10.7m0-6a16.7 16.7 0 1 0 16.7 16.7 16.7 16.7 0 0 0-16.7-16.7Z"/>
      <circle class="burst2-cls-3" cx="171" cy="310" r="3.6"/>
      <circle class="burst2-cls-3" cx="88.7" cy="179.4" r="3.6"/>
      <circle class="burst2-cls-3" cx="198.4" cy="117" r="3.6"/>
      <circle class="burst2-cls-3" cx="6.9" cy="193.5" r="6.9"/>
      <circle class="burst2-cls-4" cx="122.1" cy="442.3" r="19.8"/>
      <circle class="burst2-cls-4" cx="54.9" cy="221.2" r="3.6"/>
      <circle class="burst2-cls-4" cx="67.7" cy="322.3" r="3.6"/>
      <circle class="burst2-cls-4" cx="78.8" cy="151.2" r="3.6"/>
      <circle class="burst2-cls-4" cx="194.8" cy="224.4" r="3.6"/>
      <circle class="burst2-cls-4" cx="237.4" cy="308.6" r="3.6"/>
      <circle class="burst2-cls-5" cx="385.1" cy="84.3" r="7.1"/>
      <circle class="burst2-cls-3" cx="122.1" cy="142.1" r="3.6"/>
      <circle class="burst2-cls-3" cx="245.8" cy="193.5" r="3.6"/>
  </g>
</svg>