<svg xmlns="http://www.w3.org/2000/svg" viewBox="0 0 263.7 298.8" id="burst7">
  <defs>
    <style>
      .burst7-cls-1,.burst7-cls-4{fill:none;}
      .burst7-cls-1,.burst7-cls-2,.burst7-cls-4,.burst7-cls-6{stroke:#e6e6e6;}
      .burst7-cls-1,.burst7-cls-2,.burst7-cls-6{stroke-miterlimit:10;}
      .burst7-cls-2,.burst7-cls-5,.burst7-cls-6{fill:#fff;}
      .burst7-cls-2{stroke-width:4px;}
      .burst7-cls-3{fill:#e6e6e6;}
      .burst7-cls-4{stroke-linecap:round;stroke-linejoin:round;stroke-width:3.35px;stroke-dasharray:0 6.73;}
    </style>
  </defs>
  <title>
    burst7
  </title>
  <g data-name="Layer 2">
      <line class="burst7-cls-1" x1="126.8" y1="154.6" x2="126.8" y2="293.2"/>
      <line class="burst7-cls-1" x1="126.8" y1="154.6" x2="80.5" y2="266.4"/>
      <line class="burst7-cls-1" x1="126.8" y1="154.6" x2="86.6" y2="194.8"/>
      <line class="burst7-cls-1" x1="126.8" y1="154.6" x2="7.1" y2="204.2"/>
      <line class="burst7-cls-1" x1="126.8" y1="154.6" x2="7.1" y2="154.6"/>
      <line class="burst7-cls-1" x1="126.8" y1="154.6" x2="93.4" y2="140.8"/>
      <line class="burst7-cls-1" x1="126.8" y1="154.6" x2="75.7" y2="103.6"/>
      <line class="burst7-cls-1" x1="126.8" y1="154.6" x2="126.8" y2="62.1"/>
      <line class="burst7-cls-1" x1="126.8" y1="154.6" x2="141.7" y2="118.6"/>
      <line class="burst7-cls-1" x1="126.8" y1="154.6" x2="218.2" y2="63.2"/>
      <line class="burst7-cls-1" x1="126.8" y1="154.6" x2="250" y2="103.6"/>
      <line class="burst7-cls-1" x1="126.8" y1="154.6" x2="199" y2="154.6"/>
      <line class="burst7-cls-1" x1="126.8" y1="154.6" x2="209.7" y2="189"/>
      <line class="burst7-cls-1" x1="126.8" y1="154.6" x2="230.7" y2="258.6"/>
      <line class="burst7-cls-1" x1="126.8" y1="154.6" x2="154.4" y2="221.3"/>
      <line class="burst7-cls-1" x1="62.4" y1="3.6" x2="123.9" y2="152.1"/>
      <circle class="burst7-cls-2" cx="126.8" cy="154.6" r="8.3"/>
      <circle class="burst7-cls-3" cx="62.4" cy="3.6" r="3.6"/>
      <circle class="burst7-cls-4" cx="241.7" cy="107.1" r="20.4"/>
      <circle class="burst7-cls-5" cx="241.7" cy="107.1" r="9.4"/>
      <path class="burst7-cls-3" d="M241.7 99.2a7.9 7.9 0 1 1-7.9 7.9 7.9 7.9 0 0 1 7.9-7.9m0-3a10.9 10.9 0 1 0 10.9 10.9 10.9 10.9 0 0 0-10.9-10.9Z"/>
      <circle class="burst7-cls-6" cx="230.7" cy="258.6" r="3.6"/>
      <circle class="burst7-cls-6" cx="126.8" cy="60.7" r="3.6"/>
      <circle class="burst7-cls-6" cx="80.5" cy="266.9" r="3.6"/>
      <circle class="burst7-cls-6" cx="7.1" cy="154.6" r="3.6"/>
      <circle class="burst7-cls-6" cx="209.7" cy="189" r="3.6"/>
      <path class="burst7-cls-5" d="M7.2 209.8l-0.4 0a5.6 5.6 0 0 1 0.4-11.3 3 3 0 0 1 0.4 0 5.6 5.6 0 0 1-0.4 11.3Z"/>
      <path class="burst7-cls-3" d="M7.1 200.1h0.3a4.1 4.1 0 0 1-0.3 8.3H6.8A4.1 4.1 0 0 1 3 203.9a4.2 4.2 0 0 1 4.1-3.8m0-3a7.1 7.1 0 0 0-0.5 14.3l0.5 0a7.1 7.1 0 0 0 0.5-14.3l-0.5 0Z"/>
      <circle class="burst7-cls-3" cx="154.4" cy="221.3" r="3.6"/>
      <circle class="burst7-cls-3" cx="126.8" cy="293.2" r="5.6"/>
      <circle class="burst7-cls-3" cx="85.7" cy="194.8" r="3.6"/>
      <circle class="burst7-cls-3" cx="93.2" cy="140.8" r="3.6"/>
      <circle class="burst7-cls-3" cx="218.2" cy="62.1" r="3.6"/>
      <circle class="burst7-cls-3" cx="140.6" cy="120.4" r="3.6"/>
      <circle class="burst7-cls-3" cx="199" cy="154.6" r="3.6"/>
      <circle class="burst7-cls-3" cx="75.7" cy="103.6" r="3.6"/>
  </g>
</svg>