<svg xmlns="http://www.w3.org/2000/svg" viewBox="0 0 554.4 666.1" id="burst5">
  <defs>
    <style>
      .burst5-cls-1,.burst5-cls-2,.burst5-cls-4,.burst5-cls-5{fill:none;}
      .burst5-cls-1{stroke:#ccc;stroke-width:3px;stroke-dasharray:0 8.03;}
      .burst5-cls-1,.burst5-cls-4,.burst5-cls-5{stroke-linecap:round;stroke-linejoin:round;}
      .burst5-cls-2,.burst5-cls-4,.burst5-cls-5,.burst5-cls-7,.burst5-cls-8{stroke:#e6e6e6;}
      .burst5-cls-2,.burst5-cls-7,.burst5-cls-8{stroke-miterlimit:10;}
      .burst5-cls-3,.burst5-cls-7,.burst5-cls-8{fill:#fff;}
      .burst5-cls-4{stroke-width:3.35px;stroke-dasharray:0 6.74;}.burst5-cls-5{stroke-width:2px;stroke-dasharray:0 5.01;}
      .burst5-cls-6{fill:#e6e6e6;}
      .burst5-cls-8{stroke-width:2.01px;}
    </style>
  </defs>
  <title>burst5</title>
  <g data-name="Layer 2">
      <circle class="burst5-cls-1" cx="192.1" cy="294.5" r="21.7" transform="translate(-98.07 95.94)rotate(-22.5)"/>
      <line class="burst5-cls-2" x1="192.1" y1="294.5" x2="192.1" y2="658.6"/>
      <line class="burst5-cls-2" x1="192.1" y1="294.5" x2="64.2" y2="603.3"/>
      <line class="burst5-cls-2" x1="192.1" y1="294.5" x2="97.7" y2="388.9"/>
      <line class="burst5-cls-2" x1="192.1" y1="294.5" x2="45.2" y2="355.4"/>
      <line class="burst5-cls-2" x1="192.1" y1="294.5" x2="45.6" y2="233.8"/>
      <line class="burst5-cls-2" x1="192.1" y1="294.5" x2="112" y2="101"/>
      <line class="burst5-cls-2" x1="192.1" y1="294.5" x2="192.1" y2="17"/>
      <line class="burst5-cls-2" x1="192.1" y1="294.5" x2="312.6" y2="3.6"/>
      <line class="burst5-cls-2" x1="192.1" y1="294.5" x2="339.8" y2="146.9"/>
      <line class="burst5-cls-2" x1="192.1" y1="294.5" x2="390.2" y2="212.5"/>
      <line class="burst5-cls-2" x1="192.1" y1="294.5" x2="355.1" y2="294.5"/>
      <line class="burst5-cls-2" x1="4.7" y1="294.5" x2="192.1" y2="294.5"/>
      <line class="burst5-cls-2" x1="192.1" y1="294.5" x2="554.2" y2="444.5"/>
      <line class="burst5-cls-2" x1="192.1" y1="294.5" x2="316.4" y2="418.8"/>
      <line class="burst5-cls-2" x1="192.1" y1="294.5" x2="330.8" y2="629.3"/>
      <circle class="burst5-cls-3" cx="192.1" cy="294.5" r="40.2"/>
      <circle class="burst5-cls-4" cx="192.1" cy="294.5" r="32.2" transform="translate(-98.07 95.94)rotate(-22.5)"/>
      <path class="burst5-cls-5" d="M327 146.9a12.8 12.8 0 1 0 12.8-12.8A12.8 12.8 0 0 0 327 146.9Z"/>
      <circle class="burst5-cls-6" cx="355.1" cy="294.1" r="3.6"/>
      <circle class="burst5-cls-6" cx="312.6" cy="3.6" r="3.6"/>
      <circle class="burst5-cls-6" cx="64.2" cy="603.3" r="3.6"/>
      <circle class="burst5-cls-6" cx="43.6" cy="232.5" r="3.6"/>
      <circle class="burst5-cls-6" cx="45.2" cy="355.4" r="3.6"/>
      <circle class="burst5-cls-6" cx="330.8" cy="629.3" r="3.6"/>
      <circle class="burst5-cls-6" cx="339.8" cy="146.9" r="6.9"/>
      <circle class="burst5-cls-6" cx="191.9" cy="294.1" r="11.6"/>
      <circle class="burst5-cls-7" cx="4.1" cy="294.1" r="3.6"/>
      <circle class="burst5-cls-7" cx="192.1" cy="9.4" r="3.6"/>
      <circle class="burst5-cls-8" cx="97.7" cy="388.9" r="7.1"/>
      <circle class="burst5-cls-8" cx="316.4" cy="419.6" r="7.1"/>
      <circle class="burst5-cls-6" cx="112" cy="101" r="3.6"/>
      <circle class="burst5-cls-6" cx="192.1" cy="658.6" r="7.5"/>
  </g>
</svg>