<svg xmlns="http://www.w3.org/2000/svg" viewBox="0 0 235.73 289.34"><defs><style>.cls-1{fill:none;}.cls-1,.cls-2,.cls-5{stroke:#e6e6e6;stroke-miterlimit:10;}.cls-2,.cls-4,.cls-5{fill:#fff;}.cls-2{stroke-width:4px;}.cls-3{fill:#e6e6e6;}</style></defs><title>burst-how-do-we-innovate</title><g id="Layer_2" data-name="Layer 2"><g id="background"><line class="cls-1" x1="122.53" y1="162.57" x2="220.47" y2="260.52"/><line class="cls-1" x1="122.53" y1="162.58" x2="168.83" y2="274.35"/><line class="cls-1" x1="122.53" y1="162.57" x2="122.53" y2="219.38"/><line class="cls-1" x1="122.53" y1="162.57" x2="72.98" y2="282.2"/><line class="cls-1" x1="122.53" y1="162.57" x2="37.94" y2="247.16"/><line class="cls-1" x1="122.53" y1="162.57" x2="89.19" y2="176.39"/><line class="cls-1" x1="122.53" y1="162.57" x2="50.35" y2="162.57"/><line class="cls-1" x1="122.53" y1="162.57" x2="57.06" y2="97.11"/><line class="cls-1" x1="122.53" y1="162.57" x2="107.58" y2="126.48"/><line class="cls-1" x1="122.53" y1="162.57" x2="122.53" y2="33.31"/><line class="cls-1" x1="122.53" y1="162.57" x2="185.34" y2="10.94"/><line class="cls-1" x1="122.53" y1="162.57" x2="173.58" y2="111.53"/><line class="cls-1" x1="122.53" y1="162.57" x2="205.51" y2="128.21"/><line class="cls-1" x1="122.53" y1="162.57" x2="231.58" y2="162.57"/><line class="cls-1" x1="122.53" y1="162.57" x2="189.22" y2="190.2"/><line class="cls-1" x1="3.55" y1="115.08" x2="118.68" y2="162.77"/><circle class="cls-2" cx="122.53" cy="162.57" r="8.34"/><circle class="cls-3" cx="3.55" cy="115.08" r="3.55"/><path class="cls-4" d="M185.67,20.37A9.44,9.44,0,0,1,179,4.26a9.44,9.44,0,0,1,13.35,13.35A9.38,9.38,0,0,1,185.67,20.37Z"/><path class="cls-3" d="M185.67,3a7.94,7.94,0,1,1-5.61,2.32A7.94,7.94,0,0,1,185.67,3m0-3a10.94,10.94,0,1,0,7.74,3.2A10.94,10.94,0,0,0,185.67,0Z"/><circle class="cls-5" cx="231.68" cy="162.57" r="3.55"/><circle class="cls-5" cx="56.11" cy="96.15" r="3.55"/><circle class="cls-5" cx="169.18" cy="274.7" r="3.55"/><circle class="cls-5" cx="37.94" cy="247.16" r="3.55"/><circle class="cls-5" cx="205.51" cy="128.21" r="3.55"/><path class="cls-4" d="M73,287.84a5.62,5.62,0,1,1,3.69-1.37A5.64,5.64,0,0,1,73,287.84Z"/><path class="cls-3" d="M73,278.06a4.14,4.14,0,0,1,2.71,7.27,4.17,4.17,0,0,1-2.71,1,4.14,4.14,0,0,1-2.71-7.27,4.17,4.17,0,0,1,2.71-1m0-3a7.14,7.14,0,1,0,5.4,2.47,7.1,7.1,0,0,0-5.4-2.47Z"/><circle class="cls-3" cx="189.22" cy="190.2" r="3.55"/><circle class="cls-3" cx="220.47" cy="260.52" r="5.6"/><circle class="cls-3" cx="121.92" cy="219.99" r="3.55"/><circle class="cls-3" cx="88.99" cy="176.58" r="3.55"/><circle class="cls-3" cx="121.69" cy="32.47" r="3.55"/><circle class="cls-3" cx="108.07" cy="128.58" r="3.55"/><circle class="cls-3" cx="173.57" cy="111.53" r="3.55"/><circle class="cls-3" cx="50.35" cy="162.57" r="3.55"/></g></g></svg>