<svg xmlns="http://www.w3.org/2000/svg" viewBox="0 0 604.92 577.73"><defs><style>.cls-1{isolation:isolate;}.cls-2,.cls-5,.cls-6{fill:none;}.cls-2{stroke:#636466;mix-blend-mode:overlay;}.cls-2,.cls-6{stroke-miterlimit:10;}.cls-3{fill:#252729;}.cls-4{fill:#b30838;}.cls-5,.cls-6{stroke:#b30838;}.cls-5{stroke-linejoin:round;}</style></defs><title>data-science-diagram</title><g class="cls-1"><g id="Layer_2" data-name="Layer 2"><g id="Layer_1-2" data-name="Layer 1"><circle class="cls-2" cx="201.81" cy="201.81" r="201.31"/><circle class="cls-2" cx="403.11" cy="201.81" r="201.31"/><circle class="cls-2" cx="301.36" cy="375.92" r="201.31"/><path class="cls-3" d="M71.26,156.11v-1.24c0-1.34-.62-1.91-1.32-1.91-1.1,0-1.45.57-1.45,1.76v8.05c0,1.19.35,1.76,1.45,1.76s1.32-.57,1.32-1.6V161H74v1.83a4.12,4.12,0,0,1-8.23,0v-8.18a3.82,3.82,0,0,1,4.18-4.08c2.73,0,4,2,4,4.36v1.17Z"/><path class="cls-3" d="M77.31,154.66a4.18,4.18,0,0,1,8.36,0v8.18a4.18,4.18,0,0,1-8.36,0ZM80,162.77c0,1.19.35,1.76,1.45,1.76s1.45-.57,1.45-1.76v-8.05c0-1.19-.35-1.76-1.45-1.76s-1.45.57-1.45,1.76Z"/><path class="cls-3" d="M99.8,150.8v15.89H97.42V154.28h0l-2.47,12.41H93.59l-2.46-12.41h0v12.41H88.71V150.8h3.58l1.94,9.29h0l1.94-9.29Z"/><path class="cls-3" d="M102.85,166.69V150.8h3.92c3.37,0,4.93,1.3,4.93,4.69s-1.56,4.69-4.93,4.69h-1.19v6.51Zm2.73-8.76h1.06c1.78,0,2.33-.55,2.33-2.44s-.55-2.44-2.33-2.44h-1.06Z"/><path class="cls-3" d="M114.4,150.8h2.73v12c0,1.16.46,1.73,1.45,1.73S120,164,120,162.8v-12h2.72v11.89c0,2.72-1.58,4.22-4.18,4.22a3.84,3.84,0,0,1-4.18-4.22Z"/><path class="cls-3" d="M127.54,153.18H124.9V150.8h8v2.38h-2.64v13.51h-2.73Z"/><path class="cls-3" d="M135.06,166.69V150.8h7.31v2.38h-4.58v4.09h3.52v2.38h-3.52v4.66h4.88v2.38Z"/><path class="cls-3" d="M148.11,166.69h-2.73V150.8h3.83c3.06,0,4.62,1.3,4.62,4.69,0,2.55-1,3.59-1.92,4l2.31,7.19h-2.77l-1.94-6.58a11.56,11.56,0,0,1-1.4.07Zm0-8.76h1c1.48,0,2-.55,2-2.44s-.55-2.44-2-2.44h-1Z"/><path class="cls-3" d="M69,180.72c-.11-1.36-.83-1.76-1.45-1.76-.88,0-1.36.57-1.36,1.56,0,2.71,5.54,4,5.54,8.32,0,2.62-1.76,4.07-4.31,4.07s-4-2-4.09-4.4l2.59-.37c.11,1.6.75,2.39,1.63,2.39a1.39,1.39,0,0,0,1.58-1.45c0-3.14-5.54-4-5.54-8.53,0-2.54,1.54-4,4.22-4,2.23,0,3.55,1.61,3.79,3.85Z"/><path class="cls-3" d="M79.81,182.11v-1.24c0-1.34-.62-1.91-1.32-1.91-1.1,0-1.45.57-1.45,1.76v8.05c0,1.19.35,1.76,1.45,1.76s1.32-.57,1.32-1.6V187h2.73v1.83a4.12,4.12,0,0,1-8.23,0v-8.18a3.82,3.82,0,0,1,4.18-4.08c2.73,0,4.05,2,4.05,4.36v1.17Z"/><path class="cls-3" d="M86.23,192.69V176.8H89v15.89Z"/><path class="cls-3" d="M92.52,192.69V176.8h7.31v2.38H95.25v4.09h3.52v2.38H95.25v4.66h4.89v2.38Z"/><path class="cls-3" d="M102.84,192.69V176.8h2.53l3.32,9.09h0V176.8h2.46v15.89h-2.37l-3.48-9.92h0v9.92Z"/><path class="cls-3" d="M119.89,182.11v-1.24c0-1.34-.61-1.91-1.32-1.91-1.1,0-1.45.57-1.45,1.76v8.05c0,1.19.35,1.76,1.45,1.76s1.32-.57,1.32-1.6V187h2.73v1.83a4.12,4.12,0,0,1-8.23,0v-8.18a3.82,3.82,0,0,1,4.18-4.08c2.73,0,4.05,2,4.05,4.36v1.17Z"/><path class="cls-3" d="M125.94,192.69V176.8h7.31v2.38h-4.58v4.09h3.52v2.38h-3.52v4.66h4.88v2.38Z"/><path class="cls-3" d="M139.36,176.58h2.16l-4.89,16.33h-2.15Z"/><path class="cls-3" d="M143.3,192.69V176.8H146v15.89Z"/><path class="cls-3" d="M151.17,179.18h-2.64V176.8h8v2.38H153.9v13.51h-2.73Z"/><path class="cls-3" d="M447.49,153.72c-.11-1.36-.83-1.76-1.45-1.76-.88,0-1.36.57-1.36,1.56,0,2.71,5.54,4,5.54,8.32,0,2.62-1.76,4.07-4.31,4.07s-4-2-4.09-4.4l2.59-.37c.11,1.6.75,2.39,1.63,2.39a1.39,1.39,0,0,0,1.58-1.45c0-3.14-5.54-4-5.54-8.53,0-2.54,1.54-4,4.22-4,2.23,0,3.55,1.61,3.79,3.85Z"/><path class="cls-3" d="M454.42,152.18h-2.64V149.8h8v2.38h-2.64v13.51h-2.73Z"/><path class="cls-3" d="M463.53,165.69h-2.64l2.93-15.89h3.38l2.93,15.89h-2.64l-.48-3.52h-3Zm.88-5.9h2.2L465.53,153h0Z"/><path class="cls-3" d="M473.85,152.18h-2.64V149.8h8v2.38h-2.64v13.51h-2.73Z"/><path class="cls-3" d="M481.74,165.69V149.8h2.73v15.89Z"/><path class="cls-3" d="M493,153.72c-.11-1.36-.84-1.76-1.45-1.76-.88,0-1.37.57-1.37,1.56,0,2.71,5.55,4,5.55,8.32,0,2.62-1.76,4.07-4.31,4.07s-4-2-4.1-4.4l2.6-.37c.11,1.6.75,2.39,1.63,2.39a1.4,1.4,0,0,0,1.58-1.45c0-3.14-5.54-4-5.54-8.53,0-2.54,1.54-4,4.22-4,2.22,0,3.54,1.61,3.79,3.85Z"/><path class="cls-3" d="M499.94,152.18H497.3V149.8h8v2.38h-2.64v13.51h-2.73Z"/><path class="cls-3" d="M507.84,165.69V149.8h2.72v15.89Z"/><path class="cls-3" d="M519.63,155.11v-1.24c0-1.34-.62-1.91-1.32-1.91-1.1,0-1.45.57-1.45,1.76v8.05c0,1.19.35,1.76,1.45,1.76s1.32-.57,1.32-1.6V160h2.73v1.83a4.12,4.12,0,0,1-8.23,0v-8.18a3.82,3.82,0,0,1,4.18-4.08c2.73,0,4.05,2,4.05,4.36v1.17Z"/><path class="cls-3" d="M530.65,153.72c-.11-1.36-.84-1.76-1.45-1.76-.88,0-1.37.57-1.37,1.56,0,2.71,5.55,4,5.55,8.32,0,2.62-1.76,4.07-4.31,4.07s-4-2-4.1-4.4l2.6-.37c.11,1.6.75,2.39,1.63,2.39a1.4,1.4,0,0,0,1.58-1.45c0-3.14-5.54-4-5.54-8.53,0-2.54,1.54-4,4.22-4,2.22,0,3.55,1.61,3.79,3.85Z"/><path class="cls-3" d="M285.11,91.64v10.83h-1.62V94h0l-1.68,8.46h-.9L279.2,94h0v8.46h-1.62V91.64H280L281.32,98h0l1.32-6.33Z"/><path class="cls-3" d="M288.28,102.47h-1.8l2-10.83h2.31l2,10.83H291l-.33-2.4h-2Zm.6-4h1.5l-.74-4.65h0Z"/><path class="cls-3" d="M298,95.25v-.84c0-.91-.42-1.3-.9-1.3-.75,0-1,.39-1,1.2V99.8c0,.81.24,1.2,1,1.2s.9-.39.9-1.1V98.6h1.86v1.24a2.81,2.81,0,0,1-5.61,0V94.26a2.6,2.6,0,0,1,2.85-2.77,2.68,2.68,0,0,1,2.76,3v.79Z"/><path class="cls-3" d="M302.11,102.47V91.64H304v4.41h2V91.64h1.86v10.83H306v-4.8h-2v4.8Z"/><path class="cls-3" d="M310.24,102.47V91.64h1.86v10.83Z"/><path class="cls-3" d="M314.53,102.47V91.64h1.72l2.27,6.19h0V91.64h1.68v10.83h-1.62l-2.37-6.77h0v6.77Z"/><path class="cls-3" d="M322.4,102.47V91.64h5v1.62h-3.12v2.79h2.4v1.62h-2.4v3.18h3.33v1.62Z"/><path class="cls-3" d="M275.3,119.47V108.64h1.86v9.21h2.92v1.62Z"/><path class="cls-3" d="M281.6,119.47V108.64h5v1.62h-3.12v2.79h2.4v1.62h-2.4v3.18h3.33v1.62Z"/><path class="cls-3" d="M289.71,119.47h-1.8l2-10.83h2.31l2,10.83h-1.8l-.33-2.4h-2Zm.6-4h1.5l-.73-4.65h0Z"/><path class="cls-3" d="M297.53,119.47h-1.86V108.64h2.61c2.08,0,3.15.88,3.15,3.19,0,1.74-.68,2.45-1.31,2.73l1.58,4.91h-1.89L298.49,115a8.86,8.86,0,0,1-1,0Zm0-6h.66c1,0,1.38-.38,1.38-1.67s-.38-1.66-1.38-1.66h-.66Z"/><path class="cls-3" d="M303.54,119.47V108.64h1.73l2.26,6.19h0v-6.19h1.68v10.83h-1.62l-2.37-6.77h0v6.77Z"/><path class="cls-3" d="M311.67,119.47V108.64h1.86v10.83Z"/><path class="cls-3" d="M316,119.47V108.64h1.73l2.26,6.19h0v-6.19h1.68v10.83H320l-2.37-6.77h0v6.77Z"/><path class="cls-3" d="M326.4,114h3.05v5.49h-.9l-.35-.81a2.15,2.15,0,0,1-1.87,1,2.48,2.48,0,0,1-2.49-2.78v-5.58a2.56,2.56,0,0,1,2.73-2.77,2.71,2.71,0,0,1,2.79,3v.69h-1.77c0-1.62-.33-2-1.07-2-.45,0-.82.27-.82,1.18v5.57c0,.69.22,1.14.87,1.14s1-.42,1-1.5v-1H326.4Z"/><path class="cls-3" d="M138.57,342.12V331.29h1.86v10.83Z"/><path class="cls-3" d="M142.86,342.12V331.29h1.72l2.27,6.2h0v-6.2h1.68v10.83h-1.62l-2.37-6.76h0v6.76Z"/><path class="cls-3" d="M150.73,342.12V331.29h5.19v1.62h-3.33v2.79h2.49v1.62h-2.49v4.8Z"/><path class="cls-3" d="M157.77,333.92a2.85,2.85,0,0,1,5.7,0v5.58a2.85,2.85,0,0,1-5.7,0Zm1.86,5.53c0,.81.24,1.2,1,1.2s1-.39,1-1.2V334c0-.81-.24-1.2-1-1.2s-1,.39-1,1.2Z"/><path class="cls-3" d="M167.5,342.12h-1.86V331.29h2.61c2.09,0,3.15.89,3.15,3.2,0,1.74-.67,2.44-1.3,2.73l1.57,4.9h-1.89l-1.32-4.48a9.09,9.09,0,0,1-1,0Zm0-6h.66c1,0,1.38-.37,1.38-1.66s-.37-1.67-1.38-1.67h-.66Z"/><path class="cls-3" d="M181,331.29v10.83h-1.62v-8.46h0l-1.68,8.46h-.9l-1.68-8.46h0v8.46h-1.62V331.29h2.45l1.32,6.33h0l1.32-6.33Z"/><path class="cls-3" d="M184.14,342.12h-1.8l2-10.83h2.31l2,10.83h-1.8l-.33-2.4h-2Zm.6-4h1.5l-.74-4.65h0Z"/><path class="cls-3" d="M191.17,332.91h-1.8v-1.62h5.46v1.62H193v9.21h-1.86Z"/><path class="cls-3" d="M196.56,342.12V331.29h1.86v10.83Z"/><path class="cls-3" d="M200.85,333.92a2.85,2.85,0,0,1,5.7,0v5.58a2.85,2.85,0,0,1-5.7,0Zm1.86,5.53c0,.81.24,1.2,1,1.2s1-.39,1-1.2V334c0-.81-.24-1.2-1-1.2s-1,.39-1,1.2Z"/><path class="cls-3" d="M208.72,342.12V331.29h1.73l2.26,6.2h0v-6.2h1.68v10.83H212.8l-2.37-6.76h0v6.76Z"/><path class="cls-3" d="M155.38,351c-.07-.93-.57-1.2-1-1.2-.6,0-.93.39-.93,1.07,0,1.84,3.78,2.73,3.78,5.67a2.65,2.65,0,0,1-2.94,2.77,2.86,2.86,0,0,1-2.79-3l1.77-.25c.08,1.09.51,1.63,1.11,1.63a1,1,0,0,0,1.08-1c0-2.14-3.78-2.71-3.78-5.82,0-1.72,1.05-2.7,2.88-2.7a2.6,2.6,0,0,1,2.58,2.63Z"/><path class="cls-3" d="M162.39,359.12h-1.86v-4.5l-2.25-6.33h1.89l1.3,4.13h0l1.25-4.13h1.89l-2.25,6.33Z"/><path class="cls-3" d="M169.45,351c-.07-.93-.57-1.2-1-1.2-.6,0-.93.39-.93,1.07,0,1.84,3.78,2.73,3.78,5.67a2.65,2.65,0,0,1-2.94,2.77,2.86,2.86,0,0,1-2.79-3l1.77-.25c.08,1.09.51,1.63,1.11,1.63a1,1,0,0,0,1.08-1c0-2.14-3.78-2.71-3.78-5.82,0-1.72,1.05-2.7,2.88-2.7a2.6,2.6,0,0,1,2.58,2.63Z"/><path class="cls-3" d="M174.18,349.91h-1.8v-1.62h5.46v1.62H176v9.21h-1.86Z"/><path class="cls-3" d="M179.31,359.12V348.29h5v1.62h-3.12v2.79h2.4v1.62h-2.4v3.18h3.33v1.62Z"/><path class="cls-3" d="M193.8,348.29v10.83h-1.62v-8.46h0l-1.68,8.46h-.9l-1.68-8.46h0v8.46h-1.62V348.29h2.44l1.32,6.33h0l1.32-6.33Z"/><path class="cls-3" d="M199.27,351c-.07-.93-.57-1.2-1-1.2-.6,0-.93.39-.93,1.07,0,1.84,3.78,2.73,3.78,5.67a2.65,2.65,0,0,1-2.94,2.77,2.86,2.86,0,0,1-2.79-3l1.77-.25c.08,1.09.51,1.63,1.11,1.63a1,1,0,0,0,1.08-1c0-2.14-3.78-2.71-3.78-5.82,0-1.72,1-2.7,2.88-2.7a2.6,2.6,0,0,1,2.58,2.63Z"/><path class="cls-3" d="M392.31,331.29h2.76c2,0,2.88,1,2.88,2.87a2.32,2.32,0,0,1-1.29,2.26,2.48,2.48,0,0,1,1.5,2.57c0,1.78-.79,3.13-2.91,3.13h-2.94Zm1.86,4.44h.68a1.23,1.23,0,0,0,1.24-1.38c0-1-.39-1.53-1.21-1.53h-.71Zm0,4.86H395c1,0,1.35-.57,1.35-1.66s-.42-1.67-1.53-1.67h-.6Z"/><path class="cls-3" d="M400.19,331.29h1.86v8.18c0,.79.31,1.18,1,1.18s1-.39,1-1.18v-8.18h1.86v8.1a2.85,2.85,0,1,1-5.7,0Z"/><path class="cls-3" d="M411.45,334c-.07-.93-.57-1.2-1-1.2-.6,0-.93.39-.93,1.07,0,1.84,3.78,2.73,3.78,5.67a2.65,2.65,0,0,1-2.94,2.77,2.86,2.86,0,0,1-2.79-3l1.77-.25c.08,1.09.51,1.63,1.11,1.63a1,1,0,0,0,1.08-1c0-2.14-3.78-2.71-3.78-5.82,0-1.72,1.05-2.7,2.88-2.7a2.6,2.6,0,0,1,2.58,2.63Z"/><path class="cls-3" d="M415.35,342.12V331.29h1.86v10.83Z"/><path class="cls-3" d="M419.64,342.12V331.29h1.73l2.26,6.2h0v-6.2h1.68v10.83h-1.62l-2.37-6.76h0v6.76Z"/><path class="cls-3" d="M427.52,342.12V331.29h5v1.62h-3.12v2.79h2.4v1.62h-2.4v3.18h3.33v1.62Z"/><path class="cls-3" d="M437.94,334c-.07-.93-.57-1.2-1-1.2-.6,0-.93.39-.93,1.07,0,1.84,3.78,2.73,3.78,5.67a2.65,2.65,0,0,1-2.94,2.77,2.86,2.86,0,0,1-2.79-3l1.77-.25c.08,1.09.51,1.63,1.11,1.63a1,1,0,0,0,1.08-1c0-2.14-3.78-2.71-3.78-5.82,0-1.72,1.05-2.7,2.88-2.7a2.6,2.6,0,0,1,2.58,2.63Z"/><path class="cls-3" d="M445,334c-.07-.93-.56-1.2-1-1.2-.6,0-.93.39-.93,1.07,0,1.84,3.78,2.73,3.78,5.67a2.65,2.65,0,0,1-2.94,2.77,2.85,2.85,0,0,1-2.79-3l1.77-.25c.07,1.09.51,1.63,1.11,1.63a1,1,0,0,0,1.08-1c0-2.14-3.78-2.71-3.78-5.82,0-1.72,1-2.7,2.88-2.7a2.61,2.61,0,0,1,2.58,2.63Z"/><path class="cls-3" d="M380.56,359.12V348.29h1.86v10.83Z"/><path class="cls-3" d="M384.85,359.12V348.29h1.72l2.27,6.2h0v-6.2h1.68v10.83h-1.62l-2.37-6.76h0v6.76Z"/><path class="cls-3" d="M393.8,349.91H392v-1.62h5.46v1.62h-1.8v9.21H393.8Z"/><path class="cls-3" d="M398.93,359.12V348.29h5v1.62h-3.12v2.79h2.4v1.62h-2.4v3.18h3.33v1.62Z"/><path class="cls-3" d="M405.88,359.12V348.29h1.86v9.21h2.92v1.62Z"/><path class="cls-3" d="M412.09,359.12V348.29H414v9.21h2.92v1.62Z"/><path class="cls-3" d="M418.64,359.12V348.29h1.86v10.83Z"/><path class="cls-3" d="M425.5,353.63h3v5.49h-.9l-.34-.81a2.17,2.17,0,0,1-1.88,1,2.48,2.48,0,0,1-2.49-2.77v-5.58a2.57,2.57,0,0,1,2.73-2.78,2.71,2.71,0,0,1,2.79,3v.69h-1.77c0-1.62-.33-2-1.06-2-.45,0-.83.27-.83,1.19v5.56c0,.69.23,1.14.87,1.14s1-.42,1-1.5v-1H425.5Z"/><path class="cls-3" d="M430.81,359.12V348.29h5v1.62h-3.12v2.79h2.4v1.62h-2.4v3.18H436v1.62Z"/><path class="cls-3" d="M437.84,359.12V348.29h1.73l2.26,6.2h0v-6.2h1.68v10.83h-1.62l-2.37-6.76h0v6.76Z"/><path class="cls-3" d="M449.47,351.91v-.84c0-.92-.42-1.31-.9-1.31-.75,0-1,.39-1,1.2v5.49c0,.81.24,1.2,1,1.2s.9-.39.9-1.09v-1.31h1.86v1.25a2.57,2.57,0,0,1-2.76,2.77,2.6,2.6,0,0,1-2.85-2.77v-5.58a2.61,2.61,0,0,1,2.85-2.78,2.68,2.68,0,0,1,2.76,3v.8Z"/><path class="cls-3" d="M453.59,359.12V348.29h5v1.62h-3.12v2.79h2.4v1.62h-2.4v3.18h3.33v1.62Z"/><path class="cls-3" d="M262.76,430.37h4.05c2.93,0,4.23,1.5,4.23,4.2a3.41,3.41,0,0,1-1.9,3.33,3.63,3.63,0,0,1,2.21,3.76c0,2.62-1.17,4.6-4.27,4.6h-4.32Zm2.73,6.51h1a1.8,1.8,0,0,0,1.83-2c0-1.47-.57-2.24-1.78-2.24h-1Zm0,7.13h1.15c1.45,0,2-.83,2-2.44s-.62-2.44-2.25-2.44h-.88Z"/><path class="cls-3" d="M274.31,430.37H277v12c0,1.17.46,1.74,1.45,1.74s1.46-.57,1.46-1.74v-12h2.73v11.88a3.84,3.84,0,0,1-4.19,4.23c-2.59,0-4.18-1.5-4.18-4.23Z"/><path class="cls-3" d="M290.84,434.29c-.11-1.37-.84-1.76-1.46-1.76-.88,0-1.36.57-1.36,1.56,0,2.71,5.54,4,5.54,8.32,0,2.62-1.75,4.07-4.31,4.07s-4-2-4.09-4.4l2.6-.38c.11,1.61.74,2.4,1.62,2.4a1.4,1.4,0,0,0,1.59-1.45c0-3.15-5.55-4-5.55-8.54,0-2.53,1.54-4,4.23-4,2.22,0,3.54,1.61,3.78,3.85Z"/><path class="cls-3" d="M296.56,446.26V430.37h2.72v15.89Z"/><path class="cls-3" d="M302.85,446.26V430.37h2.53l3.32,9.09h0v-9.09h2.47v15.89h-2.38l-3.47-9.93h-.05v9.93Z"/><path class="cls-3" d="M314.4,446.26V430.37h7.3v2.38h-4.57v4.09h3.52v2.38h-3.52v4.66H322v2.38Z"/><path class="cls-3" d="M329.69,434.29c-.11-1.37-.84-1.76-1.45-1.76-.88,0-1.37.57-1.37,1.56,0,2.71,5.55,4,5.55,8.32,0,2.62-1.76,4.07-4.32,4.07s-4-2-4.09-4.4l2.6-.38c.11,1.61.75,2.4,1.63,2.4a1.4,1.4,0,0,0,1.58-1.45c0-3.15-5.55-4-5.55-8.54,0-2.53,1.55-4,4.23-4,2.22,0,3.54,1.61,3.78,3.85Z"/><path class="cls-3" d="M340,434.29c-.11-1.37-.84-1.76-1.46-1.76-.88,0-1.36.57-1.36,1.56,0,2.71,5.54,4,5.54,8.32,0,2.62-1.76,4.07-4.31,4.07s-4-2-4.09-4.4l2.6-.38c.11,1.61.74,2.4,1.62,2.4a1.4,1.4,0,0,0,1.59-1.45c0-3.15-5.55-4-5.55-8.54,0-2.53,1.54-4,4.23-4,2.22,0,3.54,1.61,3.78,3.85Z"/><path class="cls-4" d="M267.82,218.15h7.36c5.12,0,7.84,2.8,7.84,8.72v11.44c0,5.92-2.72,8.71-7.84,8.71h-7.36Zm5,24.8h1.72c2.64,0,3.56-1,3.56-4V226.27c0-3-.92-4-3.56-4h-1.72Z"/><path class="cls-4" d="M291.7,247h-4.8l5.32-28.87h6.16L303.7,247h-4.8l-.88-6.39h-5.44Zm1.6-10.71h4l-2-12.4h-.08Z"/><path class="cls-4" d="M310.46,222.47h-4.8v-4.32h14.56v4.32h-4.8V247h-5Z"/><path class="cls-4" d="M327,247h-4.8l5.32-28.87h6.16L339,247h-4.8l-.88-6.39H327.9Zm1.6-10.71h4l-2-12.4h-.08Z"/><path class="cls-4" d="M248.7,267.27c-.2-2.48-1.52-3.2-2.64-3.2-1.6,0-2.48,1-2.48,2.84,0,4.92,10.08,7.28,10.08,15.12,0,4.75-3.2,7.39-7.84,7.39s-7.24-3.67-7.44-8l4.72-.68c.2,2.92,1.36,4.36,3,4.36s2.88-.92,2.88-2.64c0-5.72-10.08-7.24-10.08-15.52,0-4.6,2.8-7.2,7.68-7.2,4,0,6.44,2.92,6.88,7Z"/><path class="cls-4" d="M268.42,269.79v-2.24c0-2.44-1.12-3.48-2.4-3.48-2,0-2.64,1-2.64,3.2v14.64c0,2.16.64,3.2,2.64,3.2,1.8,0,2.4-1,2.4-2.92v-3.48h5V282c0,4.08-2.4,7.39-7.36,7.39-5.2,0-7.6-3.31-7.6-7.39V267.15c0-4.08,2.4-7.4,7.6-7.4,5,0,7.36,3.6,7.36,7.92v2.12Z"/><path class="cls-4" d="M280.1,289V260.15h5V289Z"/><path class="cls-4" d="M291.54,289V260.15h13.28v4.32H296.5v7.44h6.4v4.32h-6.4v8.48h8.88V289Z"/><path class="cls-4" d="M310.3,289V260.15h4.6l6,16.52H321V260.15h4.48V289h-4.32l-6.32-18h-.08v18Z"/><path class="cls-4" d="M341.3,269.79v-2.24c0-2.44-1.12-3.48-2.4-3.48-2,0-2.64,1-2.64,3.2v14.64c0,2.16.64,3.2,2.64,3.2,1.8,0,2.4-1,2.4-2.92v-3.48h5V282c0,4.08-2.4,7.39-7.36,7.39-5.2,0-7.6-3.31-7.6-7.39V267.15c0-4.08,2.4-7.4,7.6-7.4,5,0,7.36,3.6,7.36,7.92v2.12Z"/><path class="cls-4" d="M352.3,289V260.15h13.28v4.32h-8.32v7.44h6.4v4.32h-6.4v8.48h8.88V289Z"/><circle class="cls-4" cx="302.96" cy="27.38" r="3.69"/><circle class="cls-4" cx="302.96" cy="375.94" r="3.69"/><circle class="cls-4" cx="502.8" cy="376.94" r="3.69"/><circle class="cls-4" cx="99.79" cy="375.94" r="3.69"/><circle class="cls-4" cx="202.21" cy="200.96" r="3.69"/><circle class="cls-4" cx="402.71" cy="201.96" r="3.69"/><path class="cls-5" d="M297.74,490.11h8.19c.3-2.53,1.14-5.79,3.37-8.05a10.58,10.58,0,1,0-15.06-.14C296.56,484.19,297.42,487.53,297.74,490.11Z"/><line class="cls-5" x1="296.91" y1="493.22" x2="306.75" y2="493.22"/><line class="cls-5" x1="296.91" y1="496.32" x2="306.75" y2="496.32"/><line class="cls-5" x1="298.25" y1="499.43" x2="305.41" y2="499.43"/><path class="cls-5" d="M305.75,475.26s-.94,1.81-3.92,1.81h0c-3,0-3.92-1.81-3.92-1.81,3,6.35,2.24,14.85,2.24,14.85h3.36S302.78,481.61,305.75,475.26Z"/><path class="cls-5" d="M301.71,502.43v16.18s-1.62-3.78-7.66-4.72-13.69,3.57-21.34,2.2c-6.84-1.22-8.58-4.41-8.58-4.41l10-24.28c5.16,2.6,9.14,1.45,13.45-.32a29.07,29.07,0,0,1,5.27-1.74"/><path class="cls-5" d="M301.71,502.43h0v16.18s1.62-3.78,7.65-4.72,13.7,3.57,21.34,2.2c6.85-1.22,8.58-4.41,8.58-4.41l-10-24.28c-5.16,2.6-9.14,1.45-13.45-.32a28.72,28.72,0,0,0-5.19-1.72"/><path class="cls-5" d="M339.26,519.37s-1.74,3.19-8.58,4.41c-7.65,1.37-15.31-3.15-21.34-2.2s-7.66,4.73-7.66,4.73-1.62-3.79-7.65-4.73-13.7,3.57-21.34,2.2c-6.85-1.22-8.58-4.41-8.58-4.41"/><path class="cls-5" d="M339.28,515.51s-1.73,3.19-8.58,4.41c-7.64,1.37-15.31-3.15-21.34-2.2s-7.65,4.73-7.65,4.73-1.62-3.79-7.66-4.73-13.69,3.57-21.34,2.2c-6.84-1.22-8.58-4.41-8.58-4.41"/><line class="cls-5" x1="458.18" y1="77.47" x2="516.7" y2="77.47"/><polyline class="cls-5" points="462.09 104.51 472.54 92.65 480.37 106.29 492.76 86.33 496.63 94.03 499.72 89.83 503.19 97.8 512.6 84.31"/><path class="cls-5" d="M514.09,71.81H460.78a2.6,2.6,0,0,0-2.6,2.61V111.3a2.59,2.59,0,0,0,2.6,2.6h53.31a2.6,2.6,0,0,0,2.61-2.6V74.42A2.61,2.61,0,0,0,514.09,71.81Z"/><path class="cls-5" d="M487.34,66h0a1.9,1.9,0,0,1,1.9,1.9v3.94a0,0,0,0,1,0,0h-3.8a0,0,0,0,1,0,0V67.87a1.9,1.9,0,0,1,1.9-1.9Z"/><path class="cls-5" d="M490.1,113.9l12.24,21.2a1.45,1.45,0,1,0,2.5-1.45l-11.4-19.75H490.1Z"/><path class="cls-5" d="M481.25,113.9l-11.41,19.75a1.45,1.45,0,1,0,2.5,1.45l12.24-21.2h-3.33Z"/><rect class="cls-6" x="78.94" y="77.14" width="62.47" height="46.86" rx="2.5" ry="2.5"/><path class="cls-5" d="M110.73,101.64V97.46h-2.38a7.5,7.5,0,0,0-.74-1.8L109.29,94l-3-3-1.68,1.68a7.93,7.93,0,0,0-1.8-.74V89.58H98.67V92a8,8,0,0,0-1.79.74L95.19,91l-3,3,1.68,1.68a7.5,7.5,0,0,0-.74,1.8H90.8v4.18h2.38a7.67,7.67,0,0,0,.74,1.8l-1.68,1.68,3,2.95,1.69-1.68a8.07,8.07,0,0,0,1.79.75v2.38h4.18v-2.38a8,8,0,0,0,1.8-.75l1.68,1.68,3-2.95-1.68-1.68a7.67,7.67,0,0,0,.74-1.8Z"/><circle class="cls-6" cx="100.76" cy="99.55" r="2.79"/><path class="cls-5" d="M128.77,95.38V92.22H127a5.81,5.81,0,0,0-.56-1.36l1.27-1.27-2.24-2.24-1.27,1.27a6.27,6.27,0,0,0-1.36-.56v-1.8h-3.16v1.8a6.27,6.27,0,0,0-1.36.56L117,87.35l-2.24,2.24,1.28,1.27a5.84,5.84,0,0,0-.57,1.36h-1.8v3.16h1.8a5.84,5.84,0,0,0,.57,1.36L114.78,98l2.24,2.24L118.29,99a5.81,5.81,0,0,0,1.36.56v1.8h3.16v-1.8a5.81,5.81,0,0,0,1.36-.56l1.27,1.27L127.68,98l-1.27-1.27a5.81,5.81,0,0,0,.56-1.36Z"/><circle class="cls-6" cx="121.23" cy="93.8" r="1.89"/><line class="cls-6" x1="105.62" y1="119.24" x2="114.73" y2="119.24"/><line class="cls-6" x1="103.13" y1="124.01" x2="103.13" y2="133.12"/><line class="cls-6" x1="117.23" y1="124.01" x2="117.23" y2="133.12"/><line class="cls-6" x1="97.26" y1="133.31" x2="123.09" y2="133.31"/><line class="cls-6" x1="78.94" y1="114.74" x2="141.41" y2="114.74"/><line class="cls-6" x1="78.94" y1="81.59" x2="141.41" y2="81.59"/></g></g></g></svg>