<svg xmlns="http://www.w3.org/2000/svg" viewBox="0 0 79.97 96.65"><defs><style>.cls-1{fill:#252729;}.cls-2{fill:none;stroke:#b30838;stroke-linejoin:round;}</style></defs><title>diagram-business</title><g id="Layer_2" data-name="Layer 2"><g id="Layer_1-2" data-name="Layer 1"><path class="cls-1" d="M0,.22H4.05c2.92,0,4.22,1.5,4.22,4.2A3.42,3.42,0,0,1,6.38,7.75c1.39.61,2.2,1.71,2.2,3.76,0,2.62-1.16,4.6-4.27,4.6H0ZM2.73,6.73h1a1.8,1.8,0,0,0,1.82-2c0-1.48-.57-2.25-1.78-2.25h-1Zm0,7.13H3.87c1.45,0,2-.83,2-2.44S5.24,9,3.61,9H2.73Z"/><path class="cls-1" d="M11.55.22h2.73v12c0,1.17.46,1.74,1.45,1.74s1.45-.57,1.45-1.74V.22h2.73V12.1c0,2.73-1.58,4.23-4.18,4.23s-4.18-1.5-4.18-4.23Z"/><path class="cls-1" d="M28.07,4.14c-.11-1.37-.83-1.76-1.45-1.76-.88,0-1.36.57-1.36,1.56,0,2.71,5.54,4,5.54,8.32,0,2.61-1.76,4.07-4.31,4.07s-4-2-4.09-4.4L25,11.55c.11,1.61.75,2.4,1.63,2.4A1.4,1.4,0,0,0,28.2,12.5c0-3.15-5.54-4-5.54-8.54,0-2.53,1.54-4,4.22-4,2.23,0,3.55,1.61,3.79,3.85Z"/><path class="cls-1" d="M33.79,16.11V.22h2.73V16.11Z"/><path class="cls-1" d="M40.08,16.11V.22h2.53l3.33,9.09h0V.22h2.46V16.11H46.07L42.59,6.18h0v9.93Z"/><path class="cls-1" d="M51.63,16.11V.22h7.31V2.6H54.36V6.69h3.52V9.07H54.36v4.66h4.89v2.38Z"/><path class="cls-1" d="M66.92,4.14c-.11-1.37-.83-1.76-1.45-1.76-.88,0-1.36.57-1.36,1.56,0,2.71,5.54,4,5.54,8.32,0,2.61-1.76,4.07-4.31,4.07s-4-2-4.09-4.4l2.59-.38c.11,1.61.75,2.4,1.63,2.4a1.41,1.41,0,0,0,1.59-1.45c0-3.15-5.55-4-5.55-8.54,0-2.53,1.54-4,4.23-4C68,0,69.28,1.61,69.52,3.85Z"/><path class="cls-1" d="M77.24,4.14c-.11-1.37-.83-1.76-1.45-1.76-.88,0-1.37.57-1.37,1.56,0,2.71,5.55,4,5.55,8.32,0,2.61-1.76,4.07-4.31,4.07s-4-2-4.1-4.4l2.6-.38c.11,1.61.75,2.4,1.63,2.4a1.4,1.4,0,0,0,1.58-1.45c0-3.15-5.54-4-5.54-8.54,0-2.53,1.54-4,4.22-4,2.23,0,3.55,1.61,3.79,3.85Z"/><path class="cls-2" d="M35,60h8.19c.31-2.53,1.15-5.79,3.38-8.05a10.57,10.57,0,1,0-15.07-.14C33.8,54,34.66,57.38,35,60Z"/><line class="cls-2" x1="34.14" y1="63.06" x2="43.99" y2="63.06"/><line class="cls-2" x1="34.14" y1="66.17" x2="43.99" y2="66.17"/><line class="cls-2" x1="35.49" y1="69.28" x2="42.65" y2="69.28"/><path class="cls-2" d="M43,45.11s-.93,1.8-3.91,1.8h0c-3,0-3.92-1.8-3.92-1.8,3,6.35,2.24,14.85,2.24,14.85h3.35S40,51.46,43,45.11Z"/><path class="cls-2" d="M39,72.28V88.46s-1.63-3.78-7.66-4.73S17.6,87.31,10,85.94c-6.84-1.22-8.58-4.41-8.58-4.41l10-24.28c5.16,2.59,9.14,1.45,13.46-.32a27.37,27.37,0,0,1,5.27-1.74"/><path class="cls-2" d="M39,72.28h0V88.46s1.62-3.78,7.65-4.73,13.69,3.58,21.34,2.21c6.84-1.22,8.58-4.41,8.58-4.41l-10-24.28c-5.16,2.59-9.14,1.45-13.46-.32a27.86,27.86,0,0,0-5.18-1.72"/><path class="cls-2" d="M76.49,89.22s-1.74,3.19-8.58,4.41C60.27,95,52.6,90.48,46.57,91.43s-7.65,4.72-7.65,4.72-1.63-3.78-7.66-4.72S17.57,95,9.92,93.63c-6.84-1.22-8.58-4.41-8.58-4.41"/><path class="cls-2" d="M76.52,85.36s-1.74,3.19-8.58,4.41c-7.65,1.37-15.31-3.15-21.34-2.2S39,92.29,39,92.29s-1.63-3.78-7.66-4.72S17.6,91.14,10,89.77c-6.84-1.22-8.58-4.41-8.58-4.41"/></g></g></svg>