<svg xmlns="http://www.w3.org/2000/svg" viewBox="0 0 320.22 267.78"><defs><style>.cls-1{fill:#252729;}</style></defs><title>diagram-overlap-titles</title><g id="Layer_2" data-name="Layer 2"><g id="Layer_1-2" data-name="Layer 1"><path class="cls-1" d="M146.55.15V11h-1.62V2.52h0L143.22,11h-.9l-1.68-8.46h0V11H139V.15h2.44l1.32,6.33h0L144.1.15Z"/><path class="cls-1" d="M149.71,11h-1.8l2-10.83h2.31l2,10.83h-1.8l-.33-2.4h-2Zm.6-4h1.5l-.73-4.65h0Z"/><path class="cls-1" d="M159.42,3.76V2.92c0-.91-.42-1.3-.9-1.3-.75,0-1,.39-1,1.2V8.31c0,.81.24,1.2,1,1.2s.9-.39.9-1.1V7.11h1.86V8.35a2.81,2.81,0,0,1-5.61,0V2.77A2.6,2.6,0,0,1,158.52,0a2.68,2.68,0,0,1,2.76,3v.79Z"/><path class="cls-1" d="M163.54,11V.15h1.86V4.56h2V.15h1.86V11h-1.86V6.18h-2V11Z"/><path class="cls-1" d="M171.67,11V.15h1.86V11Z"/><path class="cls-1" d="M176,11V.15h1.73L180,6.34h0V.15h1.68V11H180l-2.37-6.77h0V11Z"/><path class="cls-1" d="M183.84,11V.15h5V1.77H185.7V4.56h2.4V6.18h-2.4V9.36H189V11Z"/><path class="cls-1" d="M136.73,28V17.15h1.86v9.21h2.92V28Z"/><path class="cls-1" d="M143,28V17.15h5v1.62h-3.12v2.79h2.4v1.62h-2.4v3.18h3.33V28Z"/><path class="cls-1" d="M151.14,28h-1.8l2-10.83h2.31l2,10.83h-1.8l-.33-2.4h-2Zm.6-4h1.5l-.73-4.65h0Z"/><path class="cls-1" d="M159,28H157.1V17.15h2.61c2.08,0,3.15.88,3.15,3.19,0,1.74-.68,2.45-1.31,2.73L163.13,28h-1.89l-1.32-4.49a8.86,8.86,0,0,1-1,.05Zm0-6h.66c1,0,1.38-.38,1.38-1.67s-.38-1.66-1.38-1.66H159Z"/><path class="cls-1" d="M165,28V17.15h1.73L169,23.34h0V17.15h1.68V28h-1.62l-2.37-6.77h0V28Z"/><path class="cls-1" d="M173.1,28V17.15H175V28Z"/><path class="cls-1" d="M177.39,28V17.15h1.73l2.26,6.19h0V17.15h1.68V28h-1.62l-2.37-6.77h0V28Z"/><path class="cls-1" d="M187.83,22.49h3V28H190l-.35-.81a2.15,2.15,0,0,1-1.87,1,2.48,2.48,0,0,1-2.49-2.78V19.77A2.57,2.57,0,0,1,188,17a2.71,2.71,0,0,1,2.79,3v.69H189c0-1.62-.33-2-1.07-2-.45,0-.82.27-.82,1.18v5.57c0,.69.22,1.14.87,1.14s1-.42,1-1.5V24h-1.19Z"/><path class="cls-1" d="M0,250.63V239.8H1.86v10.83Z"/><path class="cls-1" d="M4.29,250.63V239.8H6L8.28,246h0v-6.2H10v10.83H8.37L6,243.87H6v6.76Z"/><path class="cls-1" d="M12.17,250.63V239.8h5.18v1.62H14v2.79h2.49v1.62H14v4.8Z"/><path class="cls-1" d="M19.2,242.43a2.61,2.61,0,0,1,2.85-2.78,2.61,2.61,0,0,1,2.85,2.78V248a2.6,2.6,0,0,1-2.85,2.77A2.6,2.6,0,0,1,19.2,248ZM21.06,248c0,.81.24,1.2,1,1.2s1-.39,1-1.2v-5.49c0-.81-.24-1.2-1-1.2s-1,.39-1,1.2Z"/><path class="cls-1" d="M28.93,250.63H27.07V239.8h2.61c2.09,0,3.15.89,3.15,3.2,0,1.74-.67,2.44-1.3,2.73l1.57,4.9H31.21l-1.32-4.48a9.09,9.09,0,0,1-1,0Zm0-6h.66c1,0,1.38-.37,1.38-1.66s-.37-1.67-1.38-1.67h-.66Z"/><path class="cls-1" d="M42.4,239.8v10.83H40.78v-8.46h0l-1.68,8.46h-.9l-1.68-8.46h0v8.46H34.84V239.8h2.45l1.32,6.33h0L40,239.8Z"/><path class="cls-1" d="M45.57,250.63h-1.8l2-10.83h2.31l2,10.83h-1.8l-.33-2.4h-2Zm.6-4h1.5L46.93,242h0Z"/><path class="cls-1" d="M52.6,241.42H50.8V239.8h5.46v1.62h-1.8v9.21H52.6Z"/><path class="cls-1" d="M58,250.63V239.8h1.86v10.83Z"/><path class="cls-1" d="M62.28,242.43a2.85,2.85,0,0,1,5.7,0V248a2.85,2.85,0,0,1-5.7,0ZM64.14,248c0,.81.24,1.2,1,1.2s1-.39,1-1.2v-5.49c0-.81-.24-1.2-1-1.2s-1,.39-1,1.2Z"/><path class="cls-1" d="M70.15,250.63V239.8h1.73l2.26,6.2h0v-6.2h1.68v10.83H74.23l-2.37-6.76h0v6.76Z"/><path class="cls-1" d="M16.82,259.47c-.08-.93-.57-1.2-1-1.2-.6,0-.93.39-.93,1.07,0,1.84,3.77,2.73,3.77,5.67a2.64,2.64,0,0,1-2.93,2.77,2.85,2.85,0,0,1-2.79-3l1.77-.25c.07,1.09.51,1.63,1.11,1.63a1,1,0,0,0,1.08-1c0-2.14-3.78-2.71-3.78-5.82,0-1.72,1-2.7,2.88-2.7a2.6,2.6,0,0,1,2.57,2.63Z"/><path class="cls-1" d="M23.82,267.63H22v-4.5l-2.25-6.33H21.6l1.31,4.13h0l1.25-4.13h1.89l-2.25,6.33Z"/><path class="cls-1" d="M30.88,259.47c-.07-.93-.57-1.2-1-1.2-.6,0-.93.39-.93,1.07,0,1.84,3.78,2.73,3.78,5.67a2.65,2.65,0,0,1-2.94,2.77,2.86,2.86,0,0,1-2.79-3l1.77-.25c.08,1.09.51,1.63,1.11,1.63a1,1,0,0,0,1.08-1c0-2.14-3.78-2.71-3.78-5.82,0-1.72,1-2.7,2.88-2.7a2.6,2.6,0,0,1,2.58,2.63Z"/><path class="cls-1" d="M35.61,258.42h-1.8V256.8h5.46v1.62h-1.8v9.21H35.61Z"/><path class="cls-1" d="M40.74,267.63V256.8h5v1.62H42.6v2.79H45v1.62H42.6V266h3.33v1.62Z"/><path class="cls-1" d="M55.23,256.8v10.83H53.61v-8.46h0l-1.68,8.46H51l-1.68-8.46h0v8.46H47.67V256.8h2.44l1.32,6.33h0l1.32-6.33Z"/><path class="cls-1" d="M60.7,259.47c-.07-.93-.57-1.2-1-1.2-.6,0-.93.39-.93,1.07,0,1.84,3.78,2.73,3.78,5.67a2.65,2.65,0,0,1-2.94,2.77,2.86,2.86,0,0,1-2.79-3l1.77-.25c.08,1.09.51,1.63,1.11,1.63a1,1,0,0,0,1.08-1c0-2.14-3.78-2.71-3.78-5.82,0-1.72,1.05-2.7,2.88-2.7a2.6,2.6,0,0,1,2.58,2.63Z"/><path class="cls-1" d="M253.74,239.8h2.76c2,0,2.88,1,2.88,2.87a2.32,2.32,0,0,1-1.29,2.26,2.48,2.48,0,0,1,1.5,2.57c0,1.78-.79,3.13-2.91,3.13h-2.94Zm1.86,4.44h.68a1.23,1.23,0,0,0,1.24-1.38c0-1-.39-1.53-1.21-1.53h-.71Zm0,4.86h.78c1,0,1.35-.57,1.35-1.66s-.42-1.67-1.53-1.67h-.6Z"/><path class="cls-1" d="M261.62,239.8h1.86V248c0,.79.31,1.18,1,1.18s1-.39,1-1.18V239.8h1.86v8.1a2.85,2.85,0,1,1-5.7,0Z"/><path class="cls-1" d="M272.88,242.47c-.07-.93-.57-1.2-1-1.2-.6,0-.93.39-.93,1.07,0,1.84,3.78,2.73,3.78,5.67a2.65,2.65,0,0,1-2.94,2.77,2.86,2.86,0,0,1-2.79-3l1.77-.25c.08,1.09.51,1.63,1.11,1.63a1,1,0,0,0,1.08-1c0-2.14-3.78-2.71-3.78-5.82,0-1.72,1.05-2.7,2.88-2.7a2.6,2.6,0,0,1,2.58,2.63Z"/><path class="cls-1" d="M276.78,250.63V239.8h1.86v10.83Z"/><path class="cls-1" d="M281.07,250.63V239.8h1.73l2.26,6.2h0v-6.2h1.68v10.83h-1.62l-2.37-6.76h0v6.76Z"/><path class="cls-1" d="M289,250.63V239.8h5v1.62h-3.12v2.79h2.4v1.62h-2.4V249h3.33v1.62Z"/><path class="cls-1" d="M299.37,242.47c-.07-.93-.57-1.2-1-1.2-.6,0-.93.39-.93,1.07,0,1.84,3.78,2.73,3.78,5.67a2.65,2.65,0,0,1-2.94,2.77,2.86,2.86,0,0,1-2.79-3l1.77-.25c.08,1.09.51,1.63,1.11,1.63a1,1,0,0,0,1.08-1c0-2.14-3.78-2.71-3.78-5.82,0-1.72,1.05-2.7,2.88-2.7a2.6,2.6,0,0,1,2.58,2.63Z"/><path class="cls-1" d="M306.41,242.47c-.08-.93-.57-1.2-1-1.2-.6,0-.93.39-.93,1.07,0,1.84,3.78,2.73,3.78,5.67a2.65,2.65,0,0,1-2.94,2.77,2.85,2.85,0,0,1-2.79-3l1.77-.25c.07,1.09.51,1.63,1.11,1.63a1,1,0,0,0,1.08-1c0-2.14-3.78-2.71-3.78-5.82,0-1.72,1-2.7,2.88-2.7a2.61,2.61,0,0,1,2.58,2.63Z"/><path class="cls-1" d="M242,267.63V256.8h1.86v10.83Z"/><path class="cls-1" d="M246.28,267.63V256.8H248l2.26,6.2h0v-6.2H252v10.83h-1.62L248,260.87h0v6.76Z"/><path class="cls-1" d="M255.24,258.42h-1.8V256.8h5.46v1.62h-1.8v9.21h-1.86Z"/><path class="cls-1" d="M260.37,267.63V256.8h5v1.62h-3.12v2.79h2.4v1.62h-2.4V266h3.33v1.62Z"/><path class="cls-1" d="M267.31,267.63V256.8h1.86V266h2.93v1.62Z"/><path class="cls-1" d="M273.52,267.63V256.8h1.86V266h2.93v1.62Z"/><path class="cls-1" d="M280.08,267.63V256.8h1.86v10.83Z"/><path class="cls-1" d="M286.93,262.14H290v5.49h-.9l-.35-.81a2.15,2.15,0,0,1-1.87,1,2.48,2.48,0,0,1-2.49-2.77v-5.58a2.57,2.57,0,0,1,2.73-2.78,2.71,2.71,0,0,1,2.79,3v.69h-1.77c0-1.62-.33-2-1.07-2-.45,0-.82.27-.82,1.19V265c0,.69.22,1.14.87,1.14s1-.42,1-1.5v-1.05h-1.19Z"/><path class="cls-1" d="M292.24,267.63V256.8h5v1.62H294.1v2.79h2.4v1.62h-2.4V266h3.33v1.62Z"/><path class="cls-1" d="M299.28,267.63V256.8H301l2.27,6.2h0v-6.2H305v10.83h-1.62L301,260.87h0v6.76Z"/><path class="cls-1" d="M310.9,260.42v-.84c0-.92-.42-1.31-.9-1.31-.75,0-1,.39-1,1.2V265c0,.81.24,1.2,1,1.2s.9-.39.9-1.09v-1.31h1.86V265a2.57,2.57,0,0,1-2.76,2.77,2.6,2.6,0,0,1-2.85-2.77v-5.58a2.61,2.61,0,0,1,2.85-2.78,2.68,2.68,0,0,1,2.76,3v.8Z"/><path class="cls-1" d="M315,267.63V256.8h5v1.62h-3.12v2.79h2.4v1.62h-2.4V266h3.33v1.62Z"/></g></g></svg>