<svg xmlns="http://www.w3.org/2000/svg" viewBox="0 0 93.26 116.27"><defs><style>.cls-1{fill:#252729;}.cls-2,.cls-3{fill:none;stroke:#b30838;}.cls-2{stroke-miterlimit:10;}.cls-3{stroke-linejoin:round;}</style></defs><title>diagram-cst</title><g id="Layer_2" data-name="Layer 2"><g id="Layer_1-2" data-name="Layer 1"><path class="cls-1" d="M8,79.46V78.23c0-1.34-.62-1.91-1.32-1.91-1.1,0-1.46.57-1.46,1.76v8c0,1.19.36,1.76,1.46,1.76S8,87.32,8,86.28V84.37H10.7V86.2a3.78,3.78,0,0,1-4,4.07A3.81,3.81,0,0,1,2.48,86.2V78a3.81,3.81,0,0,1,4.18-4.07c2.72,0,4,2,4,4.36v1.16Z"/><path class="cls-1" d="M14,78a3.83,3.83,0,0,1,4.19-4.07A3.82,3.82,0,0,1,22.39,78V86.2a3.82,3.82,0,0,1-4.18,4.07A3.83,3.83,0,0,1,14,86.2Zm2.73,8.12c0,1.19.36,1.76,1.46,1.76s1.45-.57,1.45-1.76v-8c0-1.19-.35-1.76-1.45-1.76s-1.46.57-1.46,1.76Z"/><path class="cls-1" d="M36.51,74.16V90.05H34.13V77.64h0L31.63,90.05H30.31L27.84,77.64h0V90.05H25.42V74.16H29l1.93,9.29h0l1.93-9.29Z"/><path class="cls-1" d="M39.57,90.05V74.16h3.91c3.37,0,4.93,1.3,4.93,4.69s-1.56,4.68-4.93,4.68H42.29v6.52Zm2.72-8.76h1.06c1.78,0,2.33-.55,2.33-2.44s-.55-2.45-2.33-2.45H42.29Z"/><path class="cls-1" d="M51.12,74.16h2.73v12c0,1.17.46,1.74,1.45,1.74s1.45-.57,1.45-1.74v-12h2.73V86c0,2.73-1.59,4.23-4.18,4.23s-4.18-1.5-4.18-4.23Z"/><path class="cls-1" d="M64.25,76.54H61.61V74.16h8v2.38H67V90.05H64.25Z"/><path class="cls-1" d="M71.77,90.05V74.16h7.31v2.38H74.5v4.09H78V83H74.5v4.66h4.89v2.38Z"/><path class="cls-1" d="M84.82,90.05H82.09V74.16h3.83c3.06,0,4.62,1.3,4.62,4.69,0,2.55-1,3.58-1.91,4l2.31,7.2H88.17l-1.94-6.58c-.35,0-.93.06-1.41.06Zm0-8.76h1c1.47,0,2-.55,2-2.44s-.55-2.45-2-2.45h-1Z"/><path class="cls-1" d="M5.68,104.08c-.11-1.37-.84-1.76-1.46-1.76-.88,0-1.36.57-1.36,1.56,0,2.71,5.55,4,5.55,8.32,0,2.61-1.76,4.07-4.32,4.07s-4-2-4.09-4.4l2.6-.38c.11,1.61.74,2.4,1.62,2.4a1.41,1.41,0,0,0,1.59-1.45c0-3.15-5.55-4-5.55-8.54,0-2.53,1.54-4,4.23-4,2.22,0,3.54,1.61,3.78,3.85Z"/><path class="cls-1" d="M16.52,105.46v-1.23c0-1.34-.61-1.91-1.32-1.91-1.1,0-1.45.57-1.45,1.76v8c0,1.19.35,1.76,1.45,1.76s1.32-.57,1.32-1.61v-1.91h2.73v1.83a3.78,3.78,0,0,1-4.05,4.07A3.82,3.82,0,0,1,11,112.2V104a3.82,3.82,0,0,1,4.18-4.07c2.73,0,4.05,2,4.05,4.36v1.16Z"/><path class="cls-1" d="M23,116.05V100.16h2.72v15.89Z"/><path class="cls-1" d="M29.24,116.05V100.16h7.3v2.38H32v4.09h3.52V109H32v4.66h4.88v2.38Z"/><path class="cls-1" d="M39.56,116.05V100.16h2.53l3.32,9.09h0v-9.09h2.47v15.89H45.54l-3.48-9.93h0v9.93Z"/><path class="cls-1" d="M56.61,105.46v-1.23c0-1.34-.62-1.91-1.32-1.91-1.1,0-1.46.57-1.46,1.76v8c0,1.19.36,1.76,1.46,1.76s1.32-.57,1.32-1.61v-1.91h2.72v1.83a3.78,3.78,0,0,1-4,4.07,3.82,3.82,0,0,1-4.18-4.07V104a3.82,3.82,0,0,1,4.18-4.07c2.72,0,4,2,4,4.36v1.16Z"/><path class="cls-1" d="M62.66,116.05V100.16H70v2.38H65.38v4.09H68.9V109H65.38v4.66h4.89v2.38Z"/><path class="cls-1" d="M76.08,99.94h2.15l-4.88,16.33H71.19Z"/><path class="cls-1" d="M80,116.05V100.16h2.73v15.89Z"/><path class="cls-1" d="M87.89,102.54H85.25v-2.38h8v2.38H90.62v13.51H87.89Z"/><rect class="cls-2" x="15.66" y="0.5" width="62.47" height="46.86" rx="2.5" ry="2.5"/><path class="cls-3" d="M47.45,25V20.81H45.07A8.07,8.07,0,0,0,44.32,19L46,17.33l-3-2.95-1.68,1.68a7.67,7.67,0,0,0-1.8-.74V12.94H35.39v2.38a7.5,7.5,0,0,0-1.8.74l-1.68-1.68-3,2.95L30.63,19a8,8,0,0,0-.74,1.79H27.51V25h2.38a8,8,0,0,0,.74,1.79L29,28.47l3,3,1.68-1.68a7.5,7.5,0,0,0,1.8.74v2.38h4.18V30.49a7.67,7.67,0,0,0,1.8-.74l1.68,1.68,3-3-1.68-1.68A8.07,8.07,0,0,0,45.07,25Z"/><circle class="cls-2" cx="37.48" cy="22.9" r="2.79"/><path class="cls-3" d="M65.48,18.74V15.58h-1.8a5.81,5.81,0,0,0-.56-1.36L64.39,13l-2.23-2.24L60.89,12a6,6,0,0,0-1.36-.56V9.62H56.36v1.8A5.74,5.74,0,0,0,55,12l-1.28-1.27L51.5,13l1.27,1.27a5.81,5.81,0,0,0-.56,1.36h-1.8v3.16h1.8a6,6,0,0,0,.56,1.36L51.5,21.37l2.23,2.23L55,22.33a5.74,5.74,0,0,0,1.35.56v1.8h3.17v-1.8a6,6,0,0,0,1.36-.56l1.27,1.27,2.23-2.23L63.12,20.1a6,6,0,0,0,.56-1.36Z"/><circle class="cls-2" cx="57.95" cy="17.16" r="1.89"/><line class="cls-2" x1="42.34" y1="42.6" x2="51.45" y2="42.6"/><line class="cls-2" x1="39.84" y1="47.36" x2="39.84" y2="56.48"/><line class="cls-2" x1="53.94" y1="47.36" x2="53.94" y2="56.48"/><line class="cls-2" x1="33.98" y1="56.67" x2="59.81" y2="56.67"/><line class="cls-2" x1="15.66" y1="38.1" x2="78.13" y2="38.1"/><line class="cls-2" x1="15.66" y1="4.95" x2="78.13" y2="4.95"/></g></g></svg>