<svg xmlns="http://www.w3.org/2000/svg" viewBox="0 0 91.56 100.44"><defs><style>.cls-1{fill:#252729;}.cls-2{fill:none;stroke:#b30838;stroke-linejoin:round;}</style></defs><title>diagram-stats</title><g id="Layer_2" data-name="Layer 2"><g id="Layer_1-2" data-name="Layer 1"><path class="cls-1" d="M5.68,88.25c-.11-1.36-.84-1.76-1.46-1.76-.88,0-1.36.57-1.36,1.56,0,2.71,5.55,4,5.55,8.32,0,2.62-1.76,4.07-4.32,4.07s-4-2-4.09-4.4l2.6-.38c.11,1.61.74,2.4,1.62,2.4a1.4,1.4,0,0,0,1.59-1.45c0-3.15-5.55-4-5.55-8.54,0-2.53,1.54-4,4.23-4C6.71,84.11,8,85.72,8.27,88Z"/><path class="cls-1" d="M12.61,86.71H10V84.33h8v2.38H15.33v13.51H12.61Z"/><path class="cls-1" d="M21.71,100.22H19.07L22,84.33h3.39l2.92,15.89H25.67l-.48-3.52h-3Zm.88-5.9h2.2L23.72,87.5h0Z"/><path class="cls-1" d="M32,86.71H29.39V84.33h8v2.38H34.76v13.51H32Z"/><path class="cls-1" d="M39.93,100.22V84.33h2.73v15.89Z"/><path class="cls-1" d="M51.19,88.25c-.11-1.36-.83-1.76-1.45-1.76-.88,0-1.36.57-1.36,1.56,0,2.71,5.54,4,5.54,8.32,0,2.62-1.76,4.07-4.31,4.07s-4-2-4.09-4.4l2.59-.38c.11,1.61.75,2.4,1.63,2.4a1.4,1.4,0,0,0,1.59-1.45c0-3.15-5.55-4-5.55-8.54,0-2.53,1.54-4,4.23-4,2.22,0,3.54,1.61,3.78,3.85Z"/><path class="cls-1" d="M58.12,86.71H55.48V84.33h8v2.38H60.85v13.51H58.12Z"/><path class="cls-1" d="M66,100.22V84.33h2.73v15.89Z"/><path class="cls-1" d="M77.81,89.64V88.4c0-1.34-.61-1.91-1.32-1.91-1.1,0-1.45.57-1.45,1.76v8c0,1.19.35,1.76,1.45,1.76s1.32-.57,1.32-1.6V94.54h2.73v1.83a4.12,4.12,0,0,1-8.23,0V88.18a3.82,3.82,0,0,1,4.18-4.07c2.73,0,4.05,2,4.05,4.36v1.17Z"/><path class="cls-1" d="M88.83,88.25c-.1-1.36-.83-1.76-1.45-1.76-.88,0-1.36.57-1.36,1.56,0,2.71,5.54,4,5.54,8.32,0,2.62-1.76,4.07-4.31,4.07s-4-2-4.09-4.4l2.59-.38c.11,1.61.75,2.4,1.63,2.4A1.4,1.4,0,0,0,89,96.61c0-3.15-5.55-4-5.55-8.54,0-2.53,1.54-4,4.23-4,2.22,0,3.54,1.61,3.78,3.85Z"/><line class="cls-2" x1="16.36" y1="12" x2="74.88" y2="12"/><polyline class="cls-2" points="20.27 39.04 30.73 27.18 38.55 40.81 50.95 20.86 54.82 28.55 57.9 24.36 61.38 32.33 70.79 18.83"/><path class="cls-2" d="M72.28,6.34H19A2.61,2.61,0,0,0,16.36,9V45.82A2.61,2.61,0,0,0,19,48.43H72.28a2.6,2.6,0,0,0,2.6-2.61V9A2.6,2.6,0,0,0,72.28,6.34Z"/><path class="cls-2" d="M45.53.5h0a1.9,1.9,0,0,1,1.9,1.9V6.34a0,0,0,0,1,0,0h-3.8a0,0,0,0,1,0,0V2.4A1.9,1.9,0,0,1,45.53.5Z"/><path class="cls-2" d="M48.29,48.43l12.23,21.2A1.45,1.45,0,0,0,63,68.18L51.62,48.43H48.29Z"/><path class="cls-2" d="M39.43,48.43,28,68.18a1.45,1.45,0,0,0,2.5,1.45l12.23-21.2H39.43Z"/></g></g></svg>