<svg xmlns="http://www.w3.org/2000/svg" viewBox="0 0 127.76 71.27"><defs><style>.cls-1{fill:#b30838;}</style></defs><title>diagram-title</title><g id="Layer_2" data-name="Layer 2"><g id="Layer_1-2" data-name="Layer 1"><path class="cls-1" d="M29.44,0H36.8c5.12,0,7.84,2.8,7.84,8.72V20.16c0,5.92-2.72,8.72-7.84,8.72H29.44Zm5,24.8h1.72c2.64,0,3.56-1,3.56-4V8.12c0-3-.92-4-3.56-4H34.4Z"/><path class="cls-1" d="M53.32,28.88h-4.8L53.84,0H60l5.32,28.88h-4.8l-.88-6.4H54.2Zm1.6-10.72h4L57,5.76h-.08Z"/><path class="cls-1" d="M72.08,4.32h-4.8V0H81.84V4.32H77V28.88h-5Z"/><path class="cls-1" d="M88.64,28.88h-4.8L89.16,0h6.16l5.32,28.88h-4.8L95,22.48H89.52Zm1.6-10.72h4l-2-12.4H92.2Z"/><path class="cls-1" d="M10.32,49.12c-.2-2.48-1.52-3.2-2.64-3.2-1.6,0-2.48,1-2.48,2.84,0,4.92,10.08,7.28,10.08,15.12,0,4.76-3.2,7.39-7.84,7.39S.2,67.6,0,63.28l4.72-.68c.2,2.92,1.36,4.36,3,4.36s2.88-.92,2.88-2.64C10.56,58.6.48,57.08.48,48.8c0-4.6,2.8-7.2,7.68-7.2,4,0,6.44,2.92,6.88,7Z"/><path class="cls-1" d="M30,51.64V49.4c0-2.44-1.12-3.48-2.4-3.48-2,0-2.64,1-2.64,3.2V63.76c0,2.16.64,3.2,2.64,3.2,1.8,0,2.4-1,2.4-2.92V60.56h5v3.32c0,4.08-2.4,7.39-7.36,7.39-5.2,0-7.6-3.31-7.6-7.39V49c0-4.08,2.4-7.4,7.6-7.4,5,0,7.36,3.6,7.36,7.92v2.12Z"/><path class="cls-1" d="M41.72,70.88V42h5V70.88Z"/><path class="cls-1" d="M53.16,70.88V42H66.44v4.32H58.12v7.44h6.4v4.32h-6.4v8.48H67v4.32Z"/><path class="cls-1" d="M71.92,70.88V42h4.6l6,16.52h.08V42h4.48V70.88H82.8l-6.32-18H76.4v18Z"/><path class="cls-1" d="M102.92,51.64V49.4c0-2.44-1.12-3.48-2.4-3.48-2,0-2.64,1-2.64,3.2V63.76c0,2.16.64,3.2,2.64,3.2,1.8,0,2.4-1,2.4-2.92V60.56h5v3.32c0,4.08-2.4,7.39-7.36,7.39-5.2,0-7.6-3.31-7.6-7.39V49c0-4.08,2.4-7.4,7.6-7.4,5,0,7.36,3.6,7.36,7.92v2.12Z"/><path class="cls-1" d="M113.92,70.88V42H127.2v4.32h-8.32v7.44h6.4v4.32h-6.4v8.48h8.88v4.32Z"/></g></g></svg>