<svg xmlns="http://www.w3.org/2000/svg" viewBox="0 0 289.02 326.05"><defs><style>.cls-1{fill:#636466;}.cls-2{fill:#b30838;}.cls-3{fill:#fff;}.cls-4{fill:none;}.cls-5{fill:#252729;}</style></defs><title>every-60-secs</title><g id="Layer_2" data-name="Layer 2"><g id="Layer_1-2" data-name="Layer 1"><path class="cls-1" d="M144.76,314.24c-72.53,0-131.54-59-131.54-131.53s59-131.54,131.54-131.54,131.53,59,131.53,131.54S217.29,314.24,144.76,314.24Zm0-262.07A130.69,130.69,0,0,0,14.22,182.71c0,72,58.56,130.53,130.54,130.53s130.53-58.56,130.53-130.53S216.73,52.17,144.76,52.17Z"/><rect class="cls-1" x="13.72" y="182.21" width="131.03" height="1"/><rect class="cls-1" x="46.48" y="238.95" width="131.03" height="1" transform="translate(-151.37 216.74) rotate(-60.01)"/><rect class="cls-1" x="177.02" y="173.93" width="1" height="131.03" transform="translate(-95.94 120.84) rotate(-30)"/><rect class="cls-1" x="144.76" y="182.21" width="131.03" height="1"/><rect class="cls-1" x="112" y="125.47" width="131.03" height="1" transform="translate(-20.32 216.74) rotate(-60.01)"/><rect class="cls-1" x="111.5" y="60.45" width="1" height="131.03" transform="translate(-47.98 72.88) rotate(-30)"/><circle class="cls-2" cx="144.51" cy="181.54" r="112.04"/><path class="cls-3" d="M120.69,229.87c-10,0-16.36-7.76-16.36-18.71V153.49c0-10.81,6.65-18.71,16.63-18.71s15.67,8.6,15.67,17.61v11.22H124.57V152.8c0-2.63-1.11-4.16-3.47-4.16a3.5,3.5,0,0,0-3.74,3.75v24.25a11,11,0,0,1,8.73-4c7.07,0,11.09,5.13,11.09,12.2v26.34C137.18,222.11,130.8,229.87,120.69,229.87Zm3.46-42.42a3.13,3.13,0,0,0-3.46-3.18,3.17,3.17,0,0,0-3.33,3.18v25.23a3.21,3.21,0,0,0,3.33,3.33,3.17,3.17,0,0,0,3.46-3.33Z"/><path class="cls-3" d="M164.35,229.87c-10,0-16.91-7.35-16.91-18.3V153.08c0-11,6.93-18.3,16.91-18.3s16.91,7.35,16.91,18.3v58.49C181.26,222.52,174.47,229.87,164.35,229.87Zm3.6-77.76a3.35,3.35,0,0,0-3.6-3.61,3.42,3.42,0,0,0-3.6,3.61v60.43a3.42,3.42,0,0,0,3.6,3.61,3.35,3.35,0,0,0,3.6-3.61Z"/><path class="cls-3" d="M129,117.53h-5.19v1.72c0,1.36.48,1.93,1.36,1.93s1.37-.57,1.37-1.93V119H129c0,2.51-1.08,4.23-3.83,4.23s-3.82-1.81-3.82-4.4v-3.48c0-2.6,1-4.4,3.82-4.4s3.83,1.8,3.83,4.4Zm-2.46-2v-.62c0-1.36-.49-1.93-1.37-1.93s-1.36.57-1.36,1.93v.62Z"/><path class="cls-3" d="M137,111.15h2.51L136.67,123h-2.4l-2.86-11.84h2.51l1.51,7.92h0Z"/><path class="cls-3" d="M149.56,117.53h-5.2v1.72c0,1.36.49,1.93,1.37,1.93s1.36-.57,1.36-1.93V119h2.47c-.05,2.51-1.08,4.23-3.83,4.23s-3.83-1.81-3.83-4.4v-3.48c0-2.6,1-4.4,3.83-4.4s3.83,1.8,3.83,4.4Zm-2.47-2v-.62c0-1.36-.48-1.93-1.36-1.93s-1.37.57-1.37,1.93v.62Z"/><path class="cls-3" d="M152.9,123V111.15h2.35v1.39h.05a3.18,3.18,0,0,1,2.79-1.61h.51v2.57a6,6,0,0,0-1.59-.24,1.56,1.56,0,0,0-1.65,1.59V123Z"/><path class="cls-3" d="M166,111.15h2.49l-3.11,12.72c-.52,2.15-1.51,2.84-3.36,2.84h-1v-2h.6c1.23,0,1.63-.66,1.63-1.91a5.81,5.81,0,0,0-.27-1.56l-2.57-10.06h2.51l1.58,7.57h0Z"/><path class="cls-3" d="M113.11,245.46c-.17-.94-.61-1.47-1.41-1.47-.63,0-1.07.33-1.07.94,0,1.85,4.62,2.6,4.62,6.12,0,2.11-1.46,3.19-3.46,3.19a3.57,3.57,0,0,1-3.76-3.3l2.16-.59c.15,1,.5,1.87,1.62,1.87a1,1,0,0,0,1.1-1c0-2-4.62-2.81-4.62-6.05a3.15,3.15,0,0,1,3.3-3.17,3.61,3.61,0,0,1,3.61,3.15Z"/><path class="cls-3" d="M125.81,248.56h-5.2v1.72c0,1.37.49,1.94,1.37,1.94s1.36-.57,1.36-1.94V250h2.47c0,2.51-1.08,4.22-3.83,4.22s-3.83-1.8-3.83-4.4v-3.48c0-2.59,1-4.4,3.83-4.4s3.83,1.81,3.83,4.4Zm-2.47-2v-.62c0-1.36-.48-1.93-1.36-1.93s-1.37.57-1.37,1.93v.62Z"/><path class="cls-3" d="M134.21,246.23v-.31c0-1.36-.48-1.93-1.36-1.93s-1.37.57-1.37,1.93v4.36c0,1.37.49,1.94,1.37,1.94s1.36-.57,1.36-1.94v-.75h2.46v.31c0,2.6-1,4.4-3.82,4.4s-3.83-1.8-3.83-4.4v-3.48c0-2.59,1-4.4,3.83-4.4s3.78,1.74,3.82,4.27Z"/><path class="cls-3" d="M139.88,246.36c0-2.59,1-4.4,3.83-4.4s3.83,1.81,3.83,4.4v3.48c0,2.6-1,4.4-3.83,4.4s-3.83-1.8-3.83-4.4Zm5.2-.44c0-1.36-.49-1.93-1.37-1.93s-1.36.57-1.36,1.93v4.36c0,1.37.48,1.94,1.36,1.94s1.37-.57,1.37-1.94Z"/><path class="cls-3" d="M150.88,254V242.18h2.34v1.19c1-.88,1.56-1.41,3-1.41s2.07.95,2.07,2.49V254h-2.47v-9.17a.78.78,0,0,0-.88-.86,2.86,2.86,0,0,0-1.58.75V254Z"/><path class="cls-3" d="M166.81,254v-1.23h0a3,3,0,0,1-2.64,1.45c-1.54,0-2.51-1.14-2.51-3.3v-5.68c0-2.15,1-3.3,2.51-3.3,1.08,0,1.58.44,2.55,1.24v-5.06h2.46V254Zm-.13-9.42a2.47,2.47,0,0,0-1.41-.61c-.66,0-1.19.35-1.19,1.91v4.4c0,1.57.53,1.92,1.19,1.92a2.49,2.49,0,0,0,1.41-.62Z"/><path class="cls-3" d="M177.11,245.46c-.18-.94-.62-1.47-1.41-1.47-.64,0-1.08.33-1.08.94,0,1.85,4.62,2.6,4.62,6.12,0,2.11-1.45,3.19-3.45,3.19a3.56,3.56,0,0,1-3.76-3.3l2.15-.59c.16,1,.51,1.87,1.63,1.87a1,1,0,0,0,1.1-1c0-2-4.62-2.81-4.62-6.05a3.15,3.15,0,0,1,3.3-3.17,3.62,3.62,0,0,1,3.61,3.15Z"/><path class="cls-3" d="M143.51,284.73a1.3,1.3,0,0,1,1.31-1.29h0a1.29,1.29,0,0,1,1.29,1.29h0a1.32,1.32,0,0,1-1.29,1.31h0A1.31,1.31,0,0,1,143.51,284.73Zm-5.28,1.1a1.3,1.3,0,0,1-1.22-1.37h0a1.31,1.31,0,0,1,1.38-1.23h0a1.32,1.32,0,0,1,1.22,1.38h0a1.3,1.3,0,0,1-1.29,1.22h-.09ZM150,284.6a1.29,1.29,0,0,1,1.2-1.37h0a1.3,1.3,0,0,1,1.38,1.21h0a1.3,1.3,0,0,1-1.22,1.38h-.07A1.29,1.29,0,0,1,150,284.6Zm-18.36.63a1.3,1.3,0,0,1-1.12-1.46h0a1.27,1.27,0,0,1,1.44-1.12h0a1.3,1.3,0,0,1,1.14,1.44h0a1.3,1.3,0,0,1-1.29,1.14h-.17Zm24.84-1.15a1.27,1.27,0,0,1,1.12-1.45h0a1.31,1.31,0,0,1,1.46,1.12h0a1.32,1.32,0,0,1-1.14,1.46h-.15A1.29,1.29,0,0,1,156.51,284.08Zm-31.35.13a1.3,1.3,0,0,1-1-1.52h0a1.29,1.29,0,0,1,1.51-1h0a1.29,1.29,0,0,1,1,1.52h0a1.29,1.29,0,0,1-1.28,1.06h0Zm37.78-1.06a1.32,1.32,0,0,1,1-1.52h0a1.31,1.31,0,0,1,1.52,1.05h0a1.31,1.31,0,0,1-1,1.52h0l-.25,0h0A1.32,1.32,0,0,1,162.94,283.15Zm-44.21-.38h0a1.31,1.31,0,0,1-.93-1.58h0a1.3,1.3,0,0,1,1.58-.94h0a1.32,1.32,0,0,1,.94,1.58h0a1.32,1.32,0,0,1-1.27,1h0A1.17,1.17,0,0,1,118.73,282.77Zm50.59-1a1.29,1.29,0,0,1,.92-1.58h0a1.31,1.31,0,0,1,1.58.94h0a1.28,1.28,0,0,1-.93,1.58h0a1.87,1.87,0,0,1-.32,0h0A1.27,1.27,0,0,1,169.32,281.81Zm-56.92-.87h0a1.28,1.28,0,0,1-.83-1.63h0a1.29,1.29,0,0,1,1.63-.83h0a1.3,1.3,0,0,1,.85,1.63h0a1.3,1.3,0,0,1-1.25.89h0A1.39,1.39,0,0,1,112.4,280.94Zm63.19-.87a1.29,1.29,0,0,1,.82-1.63h0a1.29,1.29,0,0,1,1.64.83h0a1.31,1.31,0,0,1-.84,1.65h0a1.27,1.27,0,0,1-.39.06h0A1.28,1.28,0,0,1,175.59,280.07Zm-69.4-1.36a1.31,1.31,0,0,1-.73-1.69h0a1.31,1.31,0,0,1,1.68-.73h0a1.3,1.3,0,0,1,.74,1.69h0a1.3,1.3,0,0,1-1.21.82h0A1.4,1.4,0,0,1,106.19,278.71Zm75.53-.77a1.3,1.3,0,0,1,.73-1.67h0a1.28,1.28,0,0,1,1.69.73h0a1.28,1.28,0,0,1-.73,1.67h0a1.33,1.33,0,0,1-.48.1h0A1.3,1.3,0,0,1,181.72,277.94Zm-81.58-1.85a1.3,1.3,0,0,1-.63-1.73h0a1.29,1.29,0,0,1,1.73-.61h0a1.29,1.29,0,0,1,.62,1.73h0a1.3,1.3,0,0,1-1.17.73h0A1.37,1.37,0,0,1,100.14,276.09Zm87.58-.65a1.3,1.3,0,0,1,.62-1.73h0a1.3,1.3,0,0,1,1.73.62h0a1.29,1.29,0,0,1-.62,1.72h0a1.08,1.08,0,0,1-.56.14h0A1.32,1.32,0,0,1,187.72,275.44Zm-93.46-2.35a1.28,1.28,0,0,1-.5-1.76h0a1.29,1.29,0,0,1,1.75-.51h0a1.3,1.3,0,0,1,.52,1.76h0a1.28,1.28,0,0,1-1.15.67h0A1.17,1.17,0,0,1,94.26,273.09Zm99.29-.54a1.28,1.28,0,0,1,.5-1.76h0a1.3,1.3,0,0,1,1.77.51h0a1.31,1.31,0,0,1-.5,1.76h0a1.39,1.39,0,0,1-.64.17h0A1.28,1.28,0,0,1,193.55,272.55Zm-105-2.8a1.31,1.31,0,0,1-.4-1.81h0a1.31,1.31,0,0,1,1.79-.4h0a1.3,1.3,0,0,1,.4,1.79h0a1.29,1.29,0,0,1-1.1.61h0A1.33,1.33,0,0,1,88.59,269.75Zm110.59-.44a1.3,1.3,0,0,1,.39-1.79h0a1.31,1.31,0,0,1,1.81.4h0a1.31,1.31,0,0,1-.41,1.79h0a1.36,1.36,0,0,1-.69.21h0A1.26,1.26,0,0,1,199.18,269.31ZM83.14,266a1.32,1.32,0,0,1-.28-1.83h0a1.28,1.28,0,0,1,1.8-.27h0a1.29,1.29,0,0,1,.29,1.81h0a1.34,1.34,0,0,1-1,.54h0A1.28,1.28,0,0,1,83.14,266Zm121.47-.33a1.27,1.27,0,0,1,.27-1.81h0a1.31,1.31,0,0,1,1.82.29h0a1.29,1.29,0,0,1-.29,1.81h0a1.28,1.28,0,0,1-.76.25h0A1.29,1.29,0,0,1,204.61,265.71ZM77.93,262a1.3,1.3,0,0,1-.17-1.83h0a1.29,1.29,0,0,1,1.83-.17h0a1.3,1.3,0,0,1,.17,1.82h0a1.29,1.29,0,0,1-1,.47h0A1.35,1.35,0,0,1,77.93,262Zm131.85-.21A1.3,1.3,0,0,1,210,260h0a1.3,1.3,0,0,1,1.83.17h0a1.3,1.3,0,0,1-.17,1.83h0a1.24,1.24,0,0,1-.83.31h0A1.33,1.33,0,0,1,209.78,261.79ZM73,257.63a1.3,1.3,0,0,1-.06-1.84h0a1.29,1.29,0,0,1,1.83,0h0a1.26,1.26,0,0,1,.06,1.82h0a1.25,1.25,0,0,1-.94.41h0A1.24,1.24,0,0,1,73,257.63Zm141.72-.08a1.31,1.31,0,0,1,.07-1.84h0a1.3,1.3,0,0,1,1.83.06h0a1.29,1.29,0,0,1-.06,1.83h0a1.28,1.28,0,0,1-.89.36h0A1.33,1.33,0,0,1,214.71,257.55ZM68.34,253a1.29,1.29,0,0,1,0-1.83h0a1.28,1.28,0,0,1,1.84.06h0a1.3,1.3,0,0,1-.06,1.83h0a1.3,1.3,0,0,1-.88.34h0A1.26,1.26,0,0,1,68.34,253Zm151,0a1.29,1.29,0,0,1-.06-1.83h0a1.3,1.3,0,0,1,1.83-.06h0a1.3,1.3,0,0,1,.06,1.83h0a1.24,1.24,0,0,1-1,.41h0A1.21,1.21,0,0,1,219.38,253ZM64,248a1.3,1.3,0,0,1,.17-1.83h0a1.3,1.3,0,0,1,1.83.17h0a1.29,1.29,0,0,1-.16,1.83h0a1.28,1.28,0,0,1-.83.31h0A1.28,1.28,0,0,1,64,248Zm159.77.15a1.31,1.31,0,0,1-.17-1.84h0a1.29,1.29,0,0,1,1.83-.16h0a1.28,1.28,0,0,1,.17,1.81h0a1.3,1.3,0,0,1-1,.48h0A1.35,1.35,0,0,1,223.74,248.19ZM59.92,242.84h0a1.32,1.32,0,0,1,.29-1.82h0a1.31,1.31,0,0,1,1.82.29h0a1.3,1.3,0,0,1-.29,1.81h0a1.3,1.3,0,0,1-.77.26h0A1.31,1.31,0,0,1,59.92,242.84Zm167.88.24a1.29,1.29,0,0,1-.29-1.81h0a1.3,1.3,0,0,1,1.83-.27h0a1.3,1.3,0,0,1,.27,1.8h0a1.28,1.28,0,0,1-1,.53h0A1.29,1.29,0,0,1,227.8,243.08ZM56.21,237.4a1.31,1.31,0,0,1,.4-1.79h0a1.31,1.31,0,0,1,1.8.39h0a1.31,1.31,0,0,1-.4,1.8h0a1.25,1.25,0,0,1-.69.2h0A1.31,1.31,0,0,1,56.21,237.4Zm175.32.35a1.29,1.29,0,0,1-.4-1.79h0a1.29,1.29,0,0,1,1.79-.4h0a1.29,1.29,0,0,1,.4,1.79h0a1.28,1.28,0,0,1-1.09.61h0A1.24,1.24,0,0,1,231.53,237.75Zm-178.67-6a1.29,1.29,0,0,1,.52-1.77h0a1.28,1.28,0,0,1,1.75.52v0a1.3,1.3,0,0,1-.5,1.77h0a1.36,1.36,0,0,1-.64.17h0A1.32,1.32,0,0,1,52.86,231.75Zm182.06.44a1.3,1.3,0,0,1-.51-1.75h0a1.29,1.29,0,0,1,1.76-.52h0a1.3,1.3,0,0,1,.51,1.77h0a1.28,1.28,0,0,1-1.13.66h0A1.34,1.34,0,0,1,234.92,232.19ZM49.86,225.88a1.3,1.3,0,0,1,.62-1.73h0a1.3,1.3,0,0,1,1.73.62h0a1.3,1.3,0,0,1-.62,1.73h0a1.38,1.38,0,0,1-.56.12h0A1.3,1.3,0,0,1,49.86,225.88Zm188.09.56a1.32,1.32,0,0,1-.61-1.73h0a1.29,1.29,0,0,1,1.73-.63h0a1.29,1.29,0,0,1,.61,1.72h0a1.3,1.3,0,0,1-1.17.75h0A1.36,1.36,0,0,1,238,226.44ZM47.24,219.85a1.28,1.28,0,0,1,.73-1.68h0a1.29,1.29,0,0,1,1.68.73h0a1.28,1.28,0,0,1-.73,1.67h0a1,1,0,0,1-.48.1h0A1.29,1.29,0,0,1,47.24,219.85Zm193.38.63a1.3,1.3,0,0,1-.73-1.69h0a1.3,1.3,0,0,1,1.7-.72h0a1.29,1.29,0,0,1,.71,1.68h0a1.27,1.27,0,0,1-1.19.82h0A1.37,1.37,0,0,1,240.62,220.48ZM45,213.65a1.29,1.29,0,0,1,.83-1.63h0a1.28,1.28,0,0,1,1.63.83h0a1.28,1.28,0,0,1-.83,1.63h0a.92.92,0,0,1-.4.07h0A1.27,1.27,0,0,1,45,213.65Zm197.89.73a1.31,1.31,0,0,1-.83-1.63h0a1.29,1.29,0,0,1,1.64-.83h0a1.29,1.29,0,0,1,.84,1.62h0a1.32,1.32,0,0,1-1.25.9h0A1.49,1.49,0,0,1,242.9,214.38Zm-199.74-7a1.29,1.29,0,0,1,.93-1.58h0a1.29,1.29,0,0,1,1.59.94h0a1.31,1.31,0,0,1-.94,1.58h0a1.76,1.76,0,0,1-.33,0h0A1.3,1.3,0,0,1,43.16,207.33Zm201.64.82a1.3,1.3,0,0,1-.94-1.58h0a1.31,1.31,0,0,1,1.58-.94h0a1.3,1.3,0,0,1,.93,1.58h0a1.3,1.3,0,0,1-1.26,1h0A.83.83,0,0,1,244.8,208.15ZM41.72,200.9a1.3,1.3,0,0,1,1-1.52h0a1.31,1.31,0,0,1,1.52,1h0a1.32,1.32,0,0,1-1,1.52h0L43,202h0A1.32,1.32,0,0,1,41.72,200.9Zm204.58.92a1.3,1.3,0,0,1-1-1.52h0a1.29,1.29,0,0,1,1.52-1h0a1.29,1.29,0,0,1,1,1.52h0a1.28,1.28,0,0,1-1.27,1.05h0ZM40.69,194.4a1.33,1.33,0,0,1,1.13-1.46h0a1.31,1.31,0,0,1,1.46,1.13h0a1.3,1.3,0,0,1-1.14,1.45h0l-.16,0h0A1.32,1.32,0,0,1,40.69,194.4Zm206.69,1a1.28,1.28,0,0,1-1.12-1.44h0a1.29,1.29,0,0,1,1.44-1.13h0a1.33,1.33,0,0,1,1.14,1.46h0a1.29,1.29,0,0,1-1.27,1.13h0A.44.44,0,0,1,247.38,195.4ZM40.07,187.83a1.3,1.3,0,0,1,1.23-1.37h0a1.3,1.3,0,0,1,1.37,1.21h0a1.31,1.31,0,0,1-1.22,1.38h-.07A1.32,1.32,0,0,1,40.07,187.83Zm208,1.11a1.29,1.29,0,0,1-1.21-1.38h0a1.28,1.28,0,0,1,1.36-1.22h0a1.32,1.32,0,0,1,1.22,1.39h0a1.29,1.29,0,0,1-1.3,1.21h-.07ZM39.86,181.25h0A1.27,1.27,0,0,1,41.16,180h0a1.3,1.3,0,0,1,1.3,1.29h0a1.3,1.3,0,0,1-1.3,1.3h0A1.31,1.31,0,0,1,39.86,181.25Zm207.19-.1V181h0v-.12h0a1.3,1.3,0,0,1,1.29-1.3h0a1.3,1.3,0,0,1,1.3,1.3h0v.1h0v.13h0a1.3,1.3,0,0,1-1.3,1.29h0A1.29,1.29,0,0,1,247.05,181.15ZM41.28,176a1.3,1.3,0,0,1-1.21-1.37h0a1.29,1.29,0,0,1,1.37-1.21h0a1.29,1.29,0,0,1,1.21,1.36h0A1.28,1.28,0,0,1,41.36,176h-.08Zm205.56-1.54a1.31,1.31,0,0,1,1.21-1.38h0a1.28,1.28,0,0,1,1.37,1.21h0a1.29,1.29,0,0,1-1.21,1.38h-.09A1.28,1.28,0,0,1,246.84,174.5Zm-205-4.94a1.3,1.3,0,0,1-1.13-1.45h0A1.3,1.3,0,0,1,42.11,167h0a1.29,1.29,0,0,1,1.13,1.46h0A1.29,1.29,0,0,1,42,169.57H41.8Zm204.42-1.46a1.31,1.31,0,0,1,1.12-1.45h0a1.29,1.29,0,0,1,1.46,1.12h0a1.31,1.31,0,0,1-1.13,1.46h0l-.16,0h0A1.31,1.31,0,0,1,246.22,168.1Zm-203.5-5a1.31,1.31,0,0,1-1-1.52h0a1.32,1.32,0,0,1,1.52-1h0a1.3,1.3,0,0,1,1,1.52h0A1.29,1.29,0,0,1,43,163.15h0Zm202.49-1.35a1.31,1.31,0,0,1,1-1.52h0a1.27,1.27,0,0,1,1.52,1h0a1.29,1.29,0,0,1-1,1.52h0l-.24,0h0A1.31,1.31,0,0,1,245.21,161.77Zm-201.16-5a1.31,1.31,0,0,1-.94-1.58h0a1.29,1.29,0,0,1,1.57-.94h0a1.31,1.31,0,0,1,1,1.58h0a1.32,1.32,0,0,1-1.27,1h0A1.65,1.65,0,0,1,44.05,156.75ZM243.8,155.5a1.3,1.3,0,0,1,.94-1.58h0a1.29,1.29,0,0,1,1.58.92h0a1.27,1.27,0,0,1-.94,1.58h0a.83.83,0,0,1-.31,0h0A1.3,1.3,0,0,1,243.8,155.5Zm-198-5a1.31,1.31,0,0,1-.85-1.64h0a1.32,1.32,0,0,1,1.64-.84h0a1.3,1.3,0,0,1,.83,1.65h0a1.29,1.29,0,0,1-1.23.89h0A1.32,1.32,0,0,1,45.78,150.48ZM242,149.32a1.29,1.29,0,0,1,.83-1.63h0a1.28,1.28,0,0,1,1.63.83h0a1.31,1.31,0,0,1-.83,1.65h0a1.39,1.39,0,0,1-.4.06h0A1.28,1.28,0,0,1,242,149.32Zm-194.12-5a1.29,1.29,0,0,1-.73-1.68h0a1.29,1.29,0,0,1,1.68-.73h0a1.32,1.32,0,0,1,.75,1.68h0a1.33,1.33,0,0,1-1.21.82h0A1.18,1.18,0,0,1,47.89,144.31Zm191.93-1h0a1.29,1.29,0,0,1,.73-1.69h0a1.31,1.31,0,0,1,1.68.72h0a1.32,1.32,0,0,1-.72,1.7h0a1.72,1.72,0,0,1-.48.08h0A1.29,1.29,0,0,1,239.82,143.29Zm-189.42-5a1.3,1.3,0,0,1-.62-1.73h0a1.29,1.29,0,0,1,1.73-.61h0a1.31,1.31,0,0,1,.62,1.73v0a1.3,1.3,0,0,1-1.18.75h0A1.37,1.37,0,0,1,50.4,138.3Zm186.86-.88v0a1.29,1.29,0,0,1,.62-1.73h0a1.32,1.32,0,0,1,1.73.62h0A1.31,1.31,0,0,1,239,138h0a1.23,1.23,0,0,1-.55.13h0A1.28,1.28,0,0,1,237.26,137.42Zm-184-5a1.29,1.29,0,0,1-.5-1.77h0a1.26,1.26,0,0,1,1.75-.5h0a1.29,1.29,0,0,1,.52,1.75h0a1.29,1.29,0,0,1-1.14.68h0A1.4,1.4,0,0,1,53.28,132.46Zm181-.77a1.28,1.28,0,0,1,.52-1.75h0a1.29,1.29,0,0,1,1.77.5h0a1.33,1.33,0,0,1-.52,1.77h0a1.42,1.42,0,0,1-.63.15h0A1.32,1.32,0,0,1,234.32,131.69ZM56.53,126.81a1.29,1.29,0,0,1-.4-1.79h0a1.3,1.3,0,0,1,1.79-.4h0a1.3,1.3,0,0,1,.4,1.8h0a1.33,1.33,0,0,1-1.1.6h0A1.17,1.17,0,0,1,56.53,126.81Zm174.52-.62a1.29,1.29,0,0,1,.39-1.79h0a1.28,1.28,0,0,1,1.79.39h0a1.27,1.27,0,0,1-.39,1.78h0a1.29,1.29,0,0,1-.7.22h0A1.31,1.31,0,0,1,231.05,126.19ZM60.13,121.38a1.3,1.3,0,0,1-.29-1.82h0a1.27,1.27,0,0,1,1.8-.27h0a1.28,1.28,0,0,1,.29,1.8h0a1.29,1.29,0,0,1-1,.54h0A1.23,1.23,0,0,1,60.13,121.38Zm167.29-.5h0a1.32,1.32,0,0,1,.28-1.82h0a1.34,1.34,0,0,1,1.83.28h0a1.32,1.32,0,0,1-.3,1.83h0a1.33,1.33,0,0,1-.76.25h0A1.29,1.29,0,0,1,227.42,120.88ZM64.05,116.19a1.28,1.28,0,0,1-.17-1.83h0a1.28,1.28,0,0,1,1.82-.17h0a1.31,1.31,0,0,1,.18,1.83h0a1.36,1.36,0,0,1-1,.46h0A1.33,1.33,0,0,1,64.05,116.19Zm159.42-.38a1.3,1.3,0,0,1,.17-1.83h0a1.3,1.3,0,0,1,1.83.17h0a1.29,1.29,0,0,1-.17,1.83h0a1.24,1.24,0,0,1-.83.31h0A1.33,1.33,0,0,1,223.47,115.81ZM68.28,111.25a1.3,1.3,0,0,1-.06-1.83h0a1.32,1.32,0,0,1,1.85-.07h0a1.3,1.3,0,0,1,0,1.84h0a1.29,1.29,0,0,1-.94.41h0A1.34,1.34,0,0,1,68.28,111.25ZM219.21,111a1.28,1.28,0,0,1,.07-1.83h0a1.29,1.29,0,0,1,1.83.06h0a1.29,1.29,0,0,1-.06,1.82h0a1.29,1.29,0,0,1-.89.37h0A1.34,1.34,0,0,1,219.21,111ZM72.82,106.58a1.3,1.3,0,0,1,.06-1.83h0a1.31,1.31,0,0,1,1.83,0h0a1.31,1.31,0,0,1-.06,1.85h0a1.3,1.3,0,0,1-.89.35h0A1.26,1.26,0,0,1,72.82,106.58Zm141.84-.12a1.29,1.29,0,0,1,0-1.83h0a1.29,1.29,0,0,1,1.83-.06h0a1.31,1.31,0,0,1,.07,1.83h0a1.27,1.27,0,0,1-1,.41h0A1.23,1.23,0,0,1,214.66,106.46Zm-137-4.23a1.29,1.29,0,0,1,.18-1.83h0a1.28,1.28,0,0,1,1.82.16h0a1.29,1.29,0,0,1-.17,1.84v0a1.32,1.32,0,0,1-.83.31h0A1.38,1.38,0,0,1,77.64,102.23Zm132.2,0a1.3,1.3,0,0,1-.18-1.83h0a1.31,1.31,0,0,1,1.83-.19h0a1.29,1.29,0,0,1,.18,1.83h0a1.3,1.3,0,0,1-1,.48h0A1.37,1.37,0,0,1,209.84,102.23ZM82.72,98.17A1.32,1.32,0,0,1,83,96.34h0a1.29,1.29,0,0,1,1.81.28h0a1.32,1.32,0,0,1-.27,1.82h0a1.33,1.33,0,0,1-.77.25h0A1.37,1.37,0,0,1,82.72,98.17Zm122,.12a1.29,1.29,0,0,1-.29-1.81h0a1.3,1.3,0,0,1,1.81-.29h0a1.29,1.29,0,0,1,.29,1.81h0a1.32,1.32,0,0,1-1,.54h0A1.27,1.27,0,0,1,204.76,98.29ZM88.05,94.42a1.3,1.3,0,0,1,.39-1.79h0a1.3,1.3,0,0,1,1.8.41h0a1.29,1.29,0,0,1-.4,1.78h0a1.26,1.26,0,0,1-.7.2h0A1.28,1.28,0,0,1,88.05,94.42Zm111.39.25a1.3,1.3,0,0,1-.41-1.79h0a1.31,1.31,0,0,1,1.81-.4h0a1.31,1.31,0,0,1,.39,1.79h0a1.28,1.28,0,0,1-1.1.61h0A1.24,1.24,0,0,1,199.44,94.67ZM93.59,91a1.31,1.31,0,0,1,.52-1.77h0a1.3,1.3,0,0,1,1.77.52h0a1.31,1.31,0,0,1-.52,1.75h0a1.32,1.32,0,0,1-.63.17h0A1.34,1.34,0,0,1,93.59,91Zm100.31.36h0a1.31,1.31,0,0,1-.52-1.75h0a1.32,1.32,0,0,1,1.77-.52h0a1.3,1.3,0,0,1,.51,1.77h0a1.29,1.29,0,0,1-1.13.66h0A1.23,1.23,0,0,1,193.9,91.4ZM99.34,88a1.3,1.3,0,0,1,.62-1.73h0a1.3,1.3,0,0,1,1.73.63h0a1.3,1.3,0,0,1-.62,1.72h0a1.24,1.24,0,0,1-.56.13h0A1.29,1.29,0,0,1,99.34,88Zm88.82.5h0a1.31,1.31,0,0,1-.61-1.73h0a1.28,1.28,0,0,1,1.73-.62h0a1.27,1.27,0,0,1,.61,1.71h0a1.3,1.3,0,0,1-1.18.75h0A1.54,1.54,0,0,1,188.16,88.5Zm-82.88-3.17a1.3,1.3,0,0,1,.71-1.68h0a1.3,1.3,0,0,1,1.69.73h0a1.29,1.29,0,0,1-.73,1.68h0a1.32,1.32,0,0,1-.48.09h0A1.27,1.27,0,0,1,105.28,85.33Zm77,.61h0a1.28,1.28,0,0,1-.73-1.67h0a1.31,1.31,0,0,1,1.68-.75h0a1.3,1.3,0,0,1,.73,1.69h0a1.28,1.28,0,0,1-1.2.83h0A1.37,1.37,0,0,1,182.26,85.94ZM111.36,83a1.3,1.3,0,0,1,.83-1.64h0a1.29,1.29,0,0,1,1.63.83h0a1.31,1.31,0,0,1-.83,1.65h0a1.39,1.39,0,0,1-.4.06h0A1.29,1.29,0,0,1,111.36,83Zm64.84.73h0a1.3,1.3,0,0,1-.84-1.62h0A1.32,1.32,0,0,1,177,81.3h0a1.32,1.32,0,0,1,.83,1.64h0a1.31,1.31,0,0,1-1.23.89h0A1.45,1.45,0,0,1,176.2,83.77Zm-58.61-2.62a1.29,1.29,0,0,1,.92-1.59h0a1.29,1.29,0,0,1,1.58.94h0a1.27,1.27,0,0,1-.93,1.57h0a1.22,1.22,0,0,1-.32,0h0A1.27,1.27,0,0,1,117.59,81.15ZM170,82a1.31,1.31,0,0,1-.94-1.58h0a1.31,1.31,0,0,1,1.58-.94h0a1.3,1.3,0,0,1,.94,1.57h0a1.3,1.3,0,0,1-1.25,1h0A1.66,1.66,0,0,1,170,82Zm-46.12-2.35a1.3,1.3,0,0,1,1-1.53h0a1.29,1.29,0,0,1,1.52,1h0a1.3,1.3,0,0,1-1,1.52h0a1.1,1.1,0,0,1-.25,0h0A1.28,1.28,0,0,1,123.91,79.65Zm39.85,1a1.3,1.3,0,0,1-1-1.52h0a1.31,1.31,0,0,1,1.51-1h0a1.31,1.31,0,0,1,1.05,1.51h0A1.32,1.32,0,0,1,164,80.63h0Zm-33.44-2.07a1.3,1.3,0,0,1,1.12-1.46h0a1.29,1.29,0,0,1,1.45,1.13h0a1.3,1.3,0,0,1-1.11,1.46h-.17A1.3,1.3,0,0,1,130.32,78.54Zm27.09,1.08h0a1.3,1.3,0,0,1-1.13-1.45h0A1.31,1.31,0,0,1,157.73,77h0a1.32,1.32,0,0,1,1.13,1.46h0a1.3,1.3,0,0,1-1.29,1.13h-.16ZM136.8,77.84A1.28,1.28,0,0,1,138,76.46h0a1.3,1.3,0,0,1,1.37,1.21h0a1.28,1.28,0,0,1-1.21,1.38h-.08A1.28,1.28,0,0,1,136.8,77.84ZM151,79h0a1.3,1.3,0,0,1-1.21-1.37h0a1.29,1.29,0,0,1,1.37-1.23h0a1.31,1.31,0,0,1,1.22,1.38h0a1.31,1.31,0,0,1-1.3,1.22H151Zm-7.71-1.49a1.3,1.3,0,0,1,1.29-1.3h0a1.3,1.3,0,0,1,1.29,1.3h0a1.27,1.27,0,0,1-1.29,1.29h0A1.3,1.3,0,0,1,143.3,77.55Z"/><circle class="cls-4" cx="144.51" cy="181.54" r="144.51"/><circle class="cls-3" cx="13.72" cy="182.71" r="5.8"/><path class="cls-1" d="M13.72,189a6.3,6.3,0,1,1,6.3-6.29A6.29,6.29,0,0,1,13.72,189Zm0-11.59a5.3,5.3,0,1,0,5.3,5.3A5.3,5.3,0,0,0,13.72,177.41Z"/><circle class="cls-3" cx="79.24" cy="296.18" r="5.8"/><path class="cls-1" d="M79.24,302.48a6.3,6.3,0,1,1,6.3-6.3A6.31,6.31,0,0,1,79.24,302.48Zm0-11.59a5.3,5.3,0,1,0,5.3,5.29A5.3,5.3,0,0,0,79.24,290.89Z"/><circle class="cls-3" cx="210.27" cy="296.18" r="5.8"/><path class="cls-1" d="M210.27,302.48a6.3,6.3,0,1,1,6.3-6.3A6.3,6.3,0,0,1,210.27,302.48Zm0-11.59a5.3,5.3,0,1,0,5.3,5.29A5.29,5.29,0,0,0,210.27,290.89Z"/><circle class="cls-3" cx="275.79" cy="182.71" r="5.8"/><path class="cls-1" d="M275.79,189a6.3,6.3,0,1,1,6.3-6.29A6.3,6.3,0,0,1,275.79,189Zm0-11.59a5.3,5.3,0,1,0,5.3,5.3A5.31,5.31,0,0,0,275.79,177.41Z"/><circle class="cls-3" cx="210.27" cy="69.23" r="5.8"/><path class="cls-1" d="M210.27,75.53a6.3,6.3,0,1,1,6.3-6.3A6.3,6.3,0,0,1,210.27,75.53Zm0-11.6a5.3,5.3,0,1,0,5.3,5.3A5.3,5.3,0,0,0,210.27,63.93Z"/><circle class="cls-3" cx="79.24" cy="69.23" r="5.8"/><path class="cls-1" d="M79.24,75.53a6.3,6.3,0,1,1,6.3-6.3A6.31,6.31,0,0,1,79.24,75.53Zm0-11.6a5.3,5.3,0,1,0,5.3,5.3A5.31,5.31,0,0,0,79.24,63.93Z"/><path class="cls-5" d="M114.9,27V.4H119V27Z"/><path class="cls-5" d="M129.5,27l-3-12-.92-3.64V27h-3.52V.4H126l2.64,12,.8,3.72V.4h3.48V27Z"/><path class="cls-5" d="M147.3,15.84c-1.88,4.28-2.32,5.76-2.32,7.32h5.16V27h-9.36v-1c0-3.56.56-5.8,3.6-12.24,1.8-3.6,2.44-5.48,2.44-8.6,0-1-.48-1.36-1.16-1.36s-1.08.48-1.08,1.36V8.88h-3.52V5.08c0-2.6,1.6-5.08,4.52-5.08,3.48,0,4.8,2.44,4.8,5.68C150.38,9.48,149.46,11.8,147.3,15.84Z"/><path class="cls-5" d="M157.9,27.44c-2.88,0-4.88-2.12-4.88-5.28V5.28C153,2.12,155,0,157.9,0s4.88,2.12,4.88,5.28V22.16C162.78,25.32,160.82,27.44,157.9,27.44Zm1-22.44a1,1,0,0,0-1-1,1,1,0,0,0-1,1V22.44a1,1,0,0,0,1,1,1,1,0,0,0,1-1Z"/><path class="cls-5" d="M166.78,27v-25A1.53,1.53,0,0,0,168.46.4h2.2V27Z"/><path class="cls-5" d="M178.26,27H174a86.87,86.87,0,0,1,4.72-22.56H173.1V.4h9.44V2.08A91.71,91.71,0,0,0,178.26,27Z"/></g></g></svg>