<svg xmlns="http://www.w3.org/2000/svg" viewBox="0 0 605.7 189.37"><defs><style>.cls-1{fill:#d63430;}.cls-2{fill:#4d4d4d;}.cls-3{fill:none;stroke:#d63430;stroke-miterlimit:10;}</style></defs><title>headlines</title><g id="Layer_2" data-name="Layer 2"><g id="Layer_1-2" data-name="Layer 1"><path class="cls-1" d="M207.31,9.05h1.61l2.31,8.81h0l2.24-8.81h1.61l2.29,8.85h0l2.23-8.85h1.6L218.22,20.5h-1.6l-2.29-8.85h0L212,20.5h-1.61Z"/><path class="cls-1" d="M227.38,4.61v6h0a4.7,4.7,0,0,1,3.39-1.76,3,3,0,0,1,3.3,3.35V20.5h-1.59V12.22c0-1.51-.72-2-1.87-2a5.25,5.25,0,0,0-3.27,1.74V20.5h-1.59V4.61Z"/><path class="cls-1" d="M239.52,11.25a4.68,4.68,0,0,1,4.29-2.42c1.94,0,4,.93,4,3.44V18A9.11,9.11,0,0,0,248,20.5h-1.62l-.18-1.59a5.11,5.11,0,0,1-3.78,1.81,3,3,0,0,1-3.26-3.15c0-2.51,1.91-3.76,7-4.66v-.62c0-1.52-1-2.09-2.36-2.09A2.94,2.94,0,0,0,240.91,12Zm6.67,3.06c-3.63.64-5.42,1.7-5.42,3.28a1.88,1.88,0,0,0,1.9,1.76,5.33,5.33,0,0,0,3.52-1.89Z"/><path class="cls-1" d="M253.73,9.05V5.29h1.58V9.05H258v1.37h-2.65v8.14c0,.53.38.79,1.3.79a8.5,8.5,0,0,0,1.41-.11v1.3a7.14,7.14,0,0,1-1.85.18c-1.71,0-2.44-.44-2.44-1.9v-8.4h-1.87V9.05Z"/><path class="cls-1" d="M273.75,4.39V6.28h-1.58V4.39Zm-1.58,4.66h1.58V20.5h-1.58Z"/><path class="cls-1" d="M280,17.59a3.87,3.87,0,0,0,3.28,1.76c1.71,0,2.46-.92,2.46-1.89,0-2.9-6.78-1.36-6.64-5.54.06-2,1.58-3.11,3.78-3.09a5.05,5.05,0,0,1,3.92,2l-1.1,1a3.59,3.59,0,0,0-2.95-1.6c-1.34,0-2.07.68-2.07,1.69,0,2.49,6.65,1.21,6.65,5.48,0,2.22-1.94,3.35-4,3.35a5.68,5.68,0,0,1-4.57-2.18Z"/><path class="cls-2" d="M305.75.28h6.69c5.35,0,9.05,3,9.08,10.11s-3.73,10.11-9.08,10.11h-6.69Zm3.87,17h2.57c4.43,0,5.46-3.25,5.46-6.86s-1-6.86-5.46-6.86h-2.57Z"/><path class="cls-2" d="M334,.25h4.82l5.74,20.25h-3.84l-1.12-4.37h-6.38L332,20.5h-3.83Zm.06,12.69h4.7l-2.27-8.8h0Z"/><path class="cls-2" d="M364,.25V3.5h-5.29v17h-3.86V3.5h-5.3V.25Z"/><path class="cls-2" d="M374.83.25h4.82l5.74,20.25h-3.84l-1.12-4.37h-6.38l-1.21,4.37H369Zm.06,12.69h4.7l-2.27-8.8h-.05Z"/><path class="cls-2" d="M417.22,5.66A3.72,3.72,0,0,0,413.61,3c-1.68,0-2.88.68-2.88,2.24,0,3.48,10.41,2.75,10.41,9.3,0,4.14-2.6,6.22-7.08,6.22A8,8,0,0,1,406.5,16l3.19-1.4c.93,1.9,2.13,3.16,4.4,3.16,1.93,0,3.41-.73,3.41-2.69,0-4-10.41-3.19-10.41-9.4,0-3.62,3-5.66,6.52-5.66a7.35,7.35,0,0,1,7.14,4.56Z"/><path class="cls-2" d="M440.71,6.16a3.76,3.76,0,0,0-3.66-2.91c-2.58,0-4.15,2.41-4.15,7.14s1.35,7.14,4.26,7.14c1.73,0,2.8-.62,3.95-3l3.58,1a7.39,7.39,0,0,1-7.53,5.3C432,20.78,429,17,429,10.39S432,0,437.16,0c3.86,0,6.1,1.74,7,5.32Z"/><path class="cls-2" d="M453.62,20.5V.28h3.87V20.5Z"/><path class="cls-2" d="M468.18,20.5V.28h13.39V3.53h-9.52V8.34H479v3.25h-6.91v5.66h9.82V20.5Z"/><path class="cls-2" d="M490.81,20.5V.28h4l8,13.78h.06V.28h3.64V20.5h-3.73L494.5,6.1h-.05V20.5Z"/><path class="cls-2" d="M526.87,6.16a3.76,3.76,0,0,0-3.67-2.91c-2.58,0-4.14,2.41-4.14,7.14s1.34,7.14,4.25,7.14c1.74,0,2.8-.62,4-3l3.59,1a7.4,7.4,0,0,1-7.54,5.3c-5.15,0-8.12-3.78-8.12-10.39S518.16,0,523.31,0c3.87,0,6.11,1.74,7.06,5.32Z"/><path class="cls-2" d="M539.41,20.5V.28H552.8V3.53h-9.52V8.34h6.91v3.25h-6.91v5.66h9.82V20.5Z"/><path class="cls-2" d="M563.77,13.69V12.15a7.59,7.59,0,0,1,1.79-4.23c.9-1.26,1.8-2.43,1.8-3.61a1.68,1.68,0,0,0-1.77-1.51,2.64,2.64,0,0,0-2.32,2.46l-3.22-.89A5.53,5.53,0,0,1,565.82,0c2.74,0,5.06,1.57,5.06,4.48a6.41,6.41,0,0,1-2,4.28c-1,1.21-2,2.33-2,3.9v1Zm-.33,6.81v-4h3.86v4Z"/><path class="cls-1" d="M0,93.84H1.61l2.31,8.8H4l2.25-8.8h1.6l2.29,8.85h0l2.23-8.85H14l-3.06,11.44H9.31L7,96.44H7l-2.27,8.84H3.1Z"/><path class="cls-1" d="M20.06,89.4v6h.05a4.7,4.7,0,0,1,3.39-1.76A3,3,0,0,1,26.8,97v8.31H25.21V97c0-1.52-.72-2-1.87-2a5.29,5.29,0,0,0-3.28,1.73v8.56H18.48V89.4Z"/><path class="cls-1" d="M40.37,93.84l-4,12.45c-.83,2.56-2.35,3.22-3.85,3.22a6.8,6.8,0,0,1-1.14-.13v-1.3a8.44,8.44,0,0,0,.86.06c1,0,2.44-.22,3-2.72l-4-11.58h1.67L36,102.58h0l2.69-8.74Z"/><path class="cls-1" d="M55.68,89.18v1.89H54.1V89.18ZM54.1,93.84h1.58v11.44H54.1Z"/><path class="cls-1" d="M61.93,102.38a3.87,3.87,0,0,0,3.28,1.76c1.71,0,2.46-.93,2.46-1.89,0-2.91-6.77-1.37-6.64-5.55.06-2,1.58-3.1,3.78-3.08a5,5,0,0,1,3.92,2l-1.1,1A3.57,3.57,0,0,0,64.68,95c-1.34,0-2.07.68-2.07,1.69,0,2.49,6.65,1.21,6.65,5.48,0,2.22-1.94,3.34-4,3.34a5.7,5.7,0,0,1-4.57-2.17Z"/><path class="cls-2" d="M87.68,85.07h6.7c5.34,0,9,3,9.07,10.1s-3.73,10.11-9.07,10.11h-6.7Zm3.87,17h2.57c4.43,0,5.46-3.25,5.46-6.87s-1-6.85-5.46-6.85H91.55Z"/><path class="cls-2" d="M116,85h4.82l5.74,20.24h-3.84l-1.12-4.36h-6.38l-1.2,4.36h-3.84ZM116,97.72h4.7l-2.26-8.79h-.06Z"/><path class="cls-2" d="M146,85v3.25h-5.29v17H136.8v-17h-5.29V85Z"/><path class="cls-2" d="M156.76,85h4.82l5.74,20.24h-3.84l-1.12-4.36H156l-1.21,4.36h-3.83Zm.06,12.68h4.7l-2.27-8.79h-.05Z"/><path class="cls-2" d="M199.15,90.44a3.71,3.71,0,0,0-3.61-2.63c-1.68,0-2.88.67-2.88,2.24,0,3.47,10.41,2.74,10.41,9.3,0,4.14-2.6,6.21-7.08,6.21a8,8,0,0,1-7.56-4.78l3.19-1.4c.93,1.9,2.13,3.16,4.4,3.16,1.93,0,3.41-.73,3.41-2.69,0-4-10.41-3.19-10.41-9.41,0-3.61,3-5.65,6.52-5.65a7.35,7.35,0,0,1,7.14,4.56Z"/><path class="cls-2" d="M222.65,91A3.77,3.77,0,0,0,219,88c-2.58,0-4.15,2.4-4.15,7.13s1.35,7.15,4.26,7.15c1.74,0,2.8-.62,3.95-3l3.58,1a7.37,7.37,0,0,1-7.53,5.29c-5.15,0-8.12-3.78-8.12-10.39s3-10.38,8.12-10.38c3.86,0,6.1,1.73,7.06,5.32Z"/><path class="cls-2" d="M235.55,105.28V85.07h3.87v20.21Z"/><path class="cls-2" d="M250.11,105.28V85.07H263.5v3.25H254v4.81h6.91v3.25H254V102h9.83v3.24Z"/><path class="cls-2" d="M272.74,105.28V85.07h4l8,13.77h.06V85.07h3.64v20.21h-3.73l-8.26-14.39h-.05v14.39Z"/><path class="cls-2" d="M308.8,91A3.76,3.76,0,0,0,305.13,88c-2.57,0-4.14,2.4-4.14,7.13s1.34,7.15,4.26,7.15c1.73,0,2.79-.62,3.94-3l3.59,1a7.39,7.39,0,0,1-7.53,5.29c-5.16,0-8.13-3.78-8.13-10.39s3-10.38,8.13-10.38c3.86,0,6.1,1.73,7.05,5.32Z"/><path class="cls-2" d="M321.34,105.28V85.07h13.39v3.25h-9.52v4.81h6.91v3.25h-6.91V102H335v3.24Z"/><path class="cls-2" d="M358.56,105.28V85.07h3.86v20.21Z"/><path class="cls-2" d="M373,105.28V85.07h5.43l3.9,14.11h.05l3.92-14.11h5.49v20.21h-3.36V89.38h-.06l-4.53,15.9h-2.94l-4.48-15.9h-.06v15.9Z"/><path class="cls-2" d="M401.59,105.28V85.07H409c4.37,0,7.14,1.82,7.14,6s-2.77,6-7.14,6h-3.52v8.17ZM405.46,94h3.08c2.91,0,3.72-1.09,3.72-2.88s-.81-2.89-3.72-2.89h-3.08Z"/><path class="cls-2" d="M431.72,105.56c-5.52,0-8.48-3.78-8.48-10.39s3-10.38,8.48-10.38,8.48,3.78,8.48,10.38S437.24,105.56,431.72,105.56Zm0-17.52c-3.16,0-4.62,2.4-4.62,7.13s1.43,7.15,4.62,7.15,4.62-2.41,4.62-7.15S434.88,88,431.72,88Z"/><path class="cls-2" d="M448.86,105.28V85.07h8.06c4.59,0,6.44,2.66,6.47,6a5,5,0,0,1-3.7,5.21l4.45,9h-4.28l-3.81-8.23h-3.33v8.23Zm3.86-11.36h2.86c3,0,3.94-1,3.94-2.86s-1.14-2.86-3.27-2.86h-3.53Z"/><path class="cls-2" d="M485.46,85v3.25h-5.3v17H476.3v-17H471V85Z"/><path class="cls-2" d="M496.27,85h4.81l5.74,20.24H503l-1.12-4.36h-6.39l-1.2,4.36h-3.84Zm.05,12.68H501l-2.27-8.79h-.06Z"/><path class="cls-2" d="M515.05,105.28V85.07h4L527,98.84h.05V85.07h3.64v20.21H527l-8.26-14.39h-.06v14.39Z"/><path class="cls-2" d="M553.61,85v3.25h-5.29v17h-3.87v-17h-5.29V85Z"/><path class="cls-2" d="M563.77,98.48V96.94a7.51,7.51,0,0,1,1.8-4.23c.89-1.26,1.79-2.43,1.79-3.61a1.68,1.68,0,0,0-1.77-1.51,2.64,2.64,0,0,0-2.32,2.46l-3.22-.89a5.52,5.52,0,0,1,5.77-4.37c2.74,0,5.07,1.57,5.07,4.48a6.42,6.42,0,0,1-2,4.28c-1,1.2-2,2.33-2,3.89v1Zm-.33,6.8v-4h3.86v4Z"/><polygon class="cls-1" points="601.87 10.5 601.87 6.67 600.87 6.67 600.87 10.5 597.04 10.5 597.04 11.5 600.87 11.5 600.87 15.33 601.87 15.33 601.87 11.5 605.7 11.5 605.7 10.5 601.87 10.5"/><line class="cls-3" x1="601.37" y1="91.33" x2="601.37" y2="99.99"/><line class="cls-3" x1="605.7" y1="95.66" x2="597.04" y2="95.66"/><line class="cls-3" x1="601.37" y1="175.17" x2="601.37" y2="183.83"/><line class="cls-3" x1="605.7" y1="179.5" x2="597.04" y2="179.5"/><path class="cls-2" d="M436.76,174.25a3.72,3.72,0,0,0-3.61-2.63c-1.68,0-2.88.67-2.88,2.24,0,3.47,10.41,2.75,10.41,9.3,0,4.14-2.6,6.21-7.08,6.21a8,8,0,0,1-7.56-4.78l3.19-1.4c.93,1.9,2.13,3.16,4.4,3.16,1.93,0,3.41-.73,3.41-2.69,0-4-10.41-3.19-10.41-9.41,0-3.61,3-5.65,6.52-5.65a7.35,7.35,0,0,1,7.14,4.56Z"/><path class="cls-2" d="M462.75,168.85v3.25h-5.3v17h-3.86v-17H448.3v-3.25Z"/><path class="cls-2" d="M478.23,189.37c-5.52,0-8.48-3.78-8.48-10.38s3-10.39,8.48-10.39,8.48,3.78,8.48,10.39S483.75,189.37,478.23,189.37Zm0-17.52c-3.16,0-4.62,2.4-4.62,7.14s1.43,7.14,4.62,7.14,4.62-2.41,4.62-7.14S481.4,171.85,478.23,171.85Z"/><path class="cls-2" d="M495.37,189.09V168.88h8.06c4.59,0,6.44,2.66,6.47,6a5,5,0,0,1-3.7,5.21l4.45,9h-4.28l-3.81-8.23h-3.33v8.23Zm3.86-11.36h2.86c3,0,3.94-1,3.94-2.86s-1.14-2.86-3.27-2.86h-3.53Z"/><path class="cls-2" d="M520.17,189.09V168.88H524v20.21Z"/><path class="cls-2" d="M534.73,189.09V168.88h13.39v3.25H538.6v4.81h6.91v3.25H538.6v5.66h9.83v3.24Z"/><path class="cls-2" d="M566.82,174.25a3.72,3.72,0,0,0-3.61-2.63c-1.68,0-2.88.67-2.88,2.24,0,3.47,10.41,2.75,10.41,9.3,0,4.14-2.6,6.21-7.08,6.21a8,8,0,0,1-7.56-4.78l3.19-1.4c.92,1.9,2.13,3.16,4.4,3.16,1.93,0,3.41-.73,3.41-2.69,0-4-10.41-3.19-10.41-9.41,0-3.61,3-5.65,6.52-5.65a7.35,7.35,0,0,1,7.14,4.56Z"/></g></g></svg>