<svg xmlns="http://www.w3.org/2000/svg" viewBox="0 0 59.76 59.76"><defs><style>.cls-1{fill:#b30837;}.cls-2{fill:#b30838;}.cls-3{fill:#fff;}</style></defs><title>icon-uber</title><g id="Layer_2" data-name="Layer 2"><g id="Layer_1-2" data-name="Layer 1"><circle class="cls-1" cx="29.88" cy="29.88" r="29.88" transform="translate(-9.16 46.05) rotate(-67.5)"/><circle class="cls-2" cx="18.1" cy="34.34" r="2.35"/><path class="cls-3" d="M18.11,37.19A2.86,2.86,0,1,1,21,34.34,2.86,2.86,0,0,1,18.11,37.19Zm0-4.71A1.86,1.86,0,1,0,20,34.34,1.86,1.86,0,0,0,18.11,32.48Z"/><path class="cls-3" d="M17.64,47.09h-2a1.36,1.36,0,0,1-1-.41,2.43,2.43,0,0,1-.53-1.59V42.55a.5.5,0,0,1,1,0v2.56a1.39,1.39,0,0,0,.25.87.35.35,0,0,0,.28.11h2c.16,0,1-.05,1-.85V42.73a.5.5,0,0,1,1,0v2.51A1.87,1.87,0,0,1,17.64,47.09Z"/><path class="cls-3" d="M44.66,43.05H29.77l-.14,0-.15,0H14.59c-3.31,0-3.46-2-3.46-2.09V32.73H9c-.9,0-1.22-1.18-1.22-2.2A2.33,2.33,0,0,1,8.61,29a.55.55,0,0,1,.33-.12h2.44l4.72-11.7c0-.05.75-2.56,4.23-2.56H38.92c3.48,0,4.22,2.51,4.25,2.62l4.7,11.64h2.45a.53.53,0,0,1,.32.12,2.33,2.33,0,0,1,.8,1.55c0,1-.31,2.2-1.21,2.2H48.12v8.21C48.12,41.05,48,43.05,44.66,43.05Zm-33-11.32a.5.5,0,0,1,.5.5v8.71s.15,1.11,2.46,1.11H29.48l.15,0,.14,0H44.66c2.34,0,2.46-1.13,2.47-1.14V32.23a.51.51,0,0,1,.5-.5h2.61a3.1,3.1,0,0,0,.21-1.2,1.19,1.19,0,0,0-.33-.67H47.53a.5.5,0,0,1-.46-.31l-4.84-12c0-.13-.61-1.94-3.31-1.94H20.33c-2.69,0-3.26,1.81-3.29,1.89L12.18,29.55a.49.49,0,0,1-.46.31H9.14a1.19,1.19,0,0,0-.33.67,2.11,2.11,0,0,0,.28,1.22Z"/><circle class="cls-2" cx="41.15" cy="34.34" r="2.35"/><path class="cls-3" d="M41.15,37.19A2.86,2.86,0,1,1,44,34.34,2.86,2.86,0,0,1,41.15,37.19Zm0-4.71A1.86,1.86,0,1,0,43,34.34,1.85,1.85,0,0,0,41.15,32.48Z"/><path class="cls-2" d="M29.37,18.31H39a1.32,1.32,0,0,1,1.26.91l3.26,9.17H15.76L19,19.22a1.34,1.34,0,0,1,1.27-.91h9.61"/><path class="cls-3" d="M43.5,28.89H15.76a.48.48,0,0,1-.41-.22.49.49,0,0,1-.07-.45l3.26-9.17a1.83,1.83,0,0,1,1.74-1.24H39a1.83,1.83,0,0,1,1.73,1.24L44,28.22a.51.51,0,0,1-.06.45A.5.5,0,0,1,43.5,28.89Zm-13.68-1h13l-3-8.51a.85.85,0,0,0-.79-.57H20.28a.83.83,0,0,0-.79.57l-3,8.51Z"/><path class="cls-3" d="M43.63,47.09h-2a1.87,1.87,0,0,1-2-1.85V42.73a.51.51,0,0,1,.5-.5.5.5,0,0,1,.5.5v2.51c0,.8.82.85,1,.85h2a.38.38,0,0,0,.29-.11,1.37,1.37,0,0,0,.24-.86V42.55a.51.51,0,0,1,.5-.5.5.5,0,0,1,.5.5v2.56a2.3,2.3,0,0,1-.53,1.57A1.34,1.34,0,0,1,43.63,47.09Z"/><polyline class="cls-2" points="34.41 34.89 29.59 34.89 29.66 34.89 24.84 34.89"/><path class="cls-3" d="M34.41,35.39H24.84a.5.5,0,0,1-.5-.5.5.5,0,0,1,.5-.5h9.57a.5.5,0,0,1,.5.5A.5.5,0,0,1,34.41,35.39Z"/><polyline class="cls-2" points="23.83 15.1 25.04 12.14 29.84 12.14"/><path class="cls-3" d="M23.83,15.6a.58.58,0,0,1-.19,0,.5.5,0,0,1-.28-.65l1.22-3a.5.5,0,0,1,.46-.31h4.8a.5.5,0,0,1,.5.5.5.5,0,0,1-.5.5H25.38l-1.09,2.65A.51.51,0,0,1,23.83,15.6Z"/><polyline class="cls-2" points="35.77 15.1 34.55 12.14 29.75 12.14"/><path class="cls-3" d="M35.77,15.6a.5.5,0,0,1-.46-.31l-1.09-2.65H29.75a.51.51,0,0,1-.5-.5.5.5,0,0,1,.5-.5h4.8A.5.5,0,0,1,35,12l1.21,3a.5.5,0,0,1-.27.65A.65.65,0,0,1,35.77,15.6Z"/><path class="cls-2" d="M30.47,27.83a4.22,4.22,0,1,1,8.43,0"/><path class="cls-3" d="M38.9,28.33a.51.51,0,0,1-.5-.5,3.72,3.72,0,1,0-7.43,0,.5.5,0,0,1-1,0,4.72,4.72,0,1,1,9.43,0A.5.5,0,0,1,38.9,28.33Z"/></g></g></svg>