<svg xmlns="http://www.w3.org/2000/svg" viewBox="0 0 59.76 59.76"><defs><style>.cls-1{fill:#b30837;}.cls-2{fill:#fff;}</style></defs><title>icon-hashtag</title><g id="Layer_2" data-name="Layer 2"><g id="Layer_1-2" data-name="Layer 1"><circle class="cls-1" cx="29.88" cy="29.88" r="29.88" transform="translate(-9.16 46.05) rotate(-67.5)"/><path class="cls-2" d="M44.57,14.5v.7H43.44v3.64h-.83V15.2H41.47v-.7Z"/><path class="cls-2" d="M45.2,18.84V14.51h1.16l.84,3h0l.84-3h1.17v4.33H48.5V15.43h0l-1,3.41h-.63l-1-3.41h0v3.41Z"/><path class="cls-2" d="M35.09,48.94H30l1.36-10.13H25.42L24.07,48.94H19l1.36-10.13H16.18v-5H21l.61-4.65H17.44v-5h4.78L23.57,14h5.12L27.33,24.13h5.9L34.59,14H39.7L38.35,24.13h4.13v5H37.7l-.61,4.65h4.13v5H36.44Zm-4-1h3.1l1.36-10.13h4.65v-3H36l.88-6.65h4.65v-3H37.21L38.56,15h-3.1L34.11,25.13H26.19L27.54,15H24.45L23.09,25.13H18.44v3h4.27l-.88,6.65H17.18v3h4.27L20.1,47.94h3.1l1.35-10.13h7.92ZM32.85,34.8H24.93l.88-6.65h7.92Zm-6.78-1H32l.62-4.65h-5.9Z"/></g></g></svg>