<svg xmlns="http://www.w3.org/2000/svg" viewBox="0 0 59.76 59.76"><defs><style>.cls-1{fill:#b30837;}.cls-2{fill:#fff;}.cls-3{fill:#b30838;}</style></defs><title>icon-new-ideas</title><g id="Layer_2" data-name="Layer 2"><g id="Layer_1-2" data-name="Layer 1"><circle class="cls-1" cx="29.88" cy="29.88" r="29.88" transform="translate(-9.16 46.05) rotate(-67.5)"/><path class="cls-2" d="M34.58,45.71H25.26a.51.51,0,0,1-.5-.49,23.68,23.68,0,0,0-.31-4A11.75,11.75,0,0,0,23,37.72c-.28-.45-.58-.89-.88-1.33a25.29,25.29,0,0,1-1.37-2.19,10.5,10.5,0,0,1,8.92-15.43h.46A10.5,10.5,0,0,1,39.07,34.2a25.29,25.29,0,0,1-1.37,2.19c-.3.44-.6.88-.87,1.33a11.52,11.52,0,0,0-1.44,3.52,23.68,23.68,0,0,0-.31,4A.51.51,0,0,1,34.58,45.71Zm-8.83-1h8.34a23.63,23.63,0,0,1,.32-3.7A12.58,12.58,0,0,1,36,37.2c.28-.46.58-.91.89-1.37a24.06,24.06,0,0,0,1.32-2.11,9.5,9.5,0,0,0-8.27-14,9.5,9.5,0,0,0-8.27,14A24.06,24.06,0,0,0,23,35.83c.31.46.61.91.9,1.37A12.81,12.81,0,0,1,25.43,41,22.43,22.43,0,0,1,25.75,44.71Z"/><path class="cls-2" d="M33.71,49.79h0l-7.33,0a.51.51,0,0,1-.5-.51.5.5,0,0,1,.5-.49h0l7.33,0a.5.5,0,0,1,0,1Z"/><path class="cls-2" d="M28.18,53.75a.49.49,0,0,1-.2,0l.21-.45-.22.44a3.3,3.3,0,0,1-1.88-2.54l-.82-5.79a.51.51,0,0,1,.43-.57.49.49,0,0,1,.56.43L27.08,51a2.29,2.29,0,0,0,1.29,1.77.51.51,0,0,1,.25.67A.49.49,0,0,1,28.18,53.75Z"/><path class="cls-2" d="M30.18,54.61a.43.43,0,0,1-.19,0l-2-.88a.5.5,0,0,1,.4-.92l1.82.79,1.52-.76A2.33,2.33,0,0,0,33,51l.81-5.79a.51.51,0,0,1,.57-.43.5.5,0,0,1,.42.57L34,51.15a3.3,3.3,0,0,1-1.85,2.53l-1.76.88A.59.59,0,0,1,30.18,54.61Z"/><path class="cls-2" d="M30.79,29.21a.5.5,0,0,1-.18-1l18.22-7.31a.51.51,0,0,1,.65.28.49.49,0,0,1-.28.65L31,29.17A.43.43,0,0,1,30.79,29.21Z"/><path class="cls-2" d="M29.86,28.74a.5.5,0,0,1-.5-.5V7.46a.51.51,0,0,1,.5-.5.5.5,0,0,1,.5.5V28.24A.5.5,0,0,1,29.86,28.74Z"/><line class="cls-3" x1="30.81" y1="30.15" x2="44.28" y2="43.22"/><rect class="cls-2" x="37.04" y="27.3" width="1" height="18.76" transform="translate(-14.93 38.08) rotate(-45.86)"/><path class="cls-2" d="M28.92,29.21a.43.43,0,0,1-.19,0l-18.22-7.3a.5.5,0,0,1-.28-.65.51.51,0,0,1,.65-.28l18.23,7.31a.49.49,0,0,1,.27.64A.49.49,0,0,1,28.92,29.21Z"/><line class="cls-3" x1="28.9" y1="30.15" x2="15.43" y2="43.22"/><rect class="cls-2" x="12.78" y="36.19" width="18.76" height="1" transform="translate(-19.3 25.82) rotate(-44.17)"/><circle class="cls-3" cx="29.89" cy="29.42" r="3.26"/><path class="cls-2" d="M29.89,33.18A3.92,3.92,0,0,1,28.68,33a3.76,3.76,0,1,1,4.58-5.24,3.76,3.76,0,0,1-3.37,5.43Zm0-6.52a2.77,2.77,0,0,0-1.22.29,2.76,2.76,0,0,0-1.25,3.7A2.79,2.79,0,0,0,29,32a2.77,2.77,0,0,0,1.77-5.24A3,3,0,0,0,29.88,26.66Z"/><circle class="cls-3" cx="29.92" cy="7.46" r="1.87"/><path class="cls-2" d="M29.92,9.83a2.37,2.37,0,1,1,2.37-2.37A2.37,2.37,0,0,1,29.92,9.83Zm0-3.73a1.37,1.37,0,1,0,1.37,1.36A1.36,1.36,0,0,0,29.92,6.1Z"/><circle class="cls-3" cx="49.02" cy="21.41" r="1.87"/><path class="cls-2" d="M49,23.77a2.37,2.37,0,1,1,2.36-2.36A2.37,2.37,0,0,1,49,23.77ZM49,20a1.37,1.37,0,1,0,0,2.73A1.37,1.37,0,0,0,49,20Z"/><circle class="cls-3" cx="44.28" cy="43.22" r="1.87"/><path class="cls-2" d="M44.28,45.59a2.37,2.37,0,1,1,2.36-2.37A2.38,2.38,0,0,1,44.28,45.59Zm0-3.73a1.37,1.37,0,1,0,1.36,1.36A1.37,1.37,0,0,0,44.28,41.86Z"/><circle class="cls-3" cx="15.43" cy="43.22" r="1.87"/><path class="cls-2" d="M15.43,45.59a2.37,2.37,0,1,1,2.37-2.37A2.37,2.37,0,0,1,15.43,45.59Zm0-3.73a1.37,1.37,0,1,0,1.37,1.36A1.36,1.36,0,0,0,15.43,41.86Z"/><circle class="cls-3" cx="10.69" cy="21.41" r="1.87"/><path class="cls-2" d="M10.69,23.77a2.37,2.37,0,1,1,2.37-2.36A2.36,2.36,0,0,1,10.69,23.77Zm0-3.73a1.37,1.37,0,1,0,1.37,1.37A1.37,1.37,0,0,0,10.69,20Z"/></g></g></svg>