<svg xmlns="http://www.w3.org/2000/svg" viewBox="0 0 59.76 59.76"><defs><style>.cls-1{fill:#b30837;}.cls-2{fill:#fff;}</style></defs><title>icon-big-data</title><g id="Layer_2" data-name="Layer 2"><g id="Layer_1-2" data-name="Layer 1"><circle class="cls-1" cx="29.88" cy="29.88" r="29.88" transform="translate(-9.16 46.05) rotate(-67.5)"/><path class="cls-2" d="M24.65,43.43a1.82,1.82,0,1,0,1.82,1.82A1.83,1.83,0,0,0,24.65,43.43Zm0,2.63a.81.81,0,0,1-.81-.81.81.81,0,1,1,.81.81Z"/><path class="cls-2" d="M37.05,35.73c-.74-.48-1.82-1.15-3-1.88V31.8l9.07,2.46.22.17.31-.23h0c.26-.2,6.32-4.85,6.32-9.69a3.86,3.86,0,0,0-3.75-4,3.71,3.71,0,0,0-2.88,1.73,3.67,3.67,0,0,0-2.87-1.73,3.63,3.63,0,0,0-1.54.36h0L34,23.36V15.83A1.86,1.86,0,0,0,32.16,14h-15a1.87,1.87,0,0,0-1.87,1.86V47.08a1.87,1.87,0,0,0,1.87,1.86h3.05a26.93,26.93,0,0,0,9.21,4.41l2.83,6.31,1.06-.1-3.06-6.85a.51.51,0,0,0-.35-.29A25.33,25.33,0,0,1,22,48.94H32.16a1.86,1.86,0,0,0,1.44-.67,2.23,2.23,0,0,0,.2-.3h0a1.72,1.72,0,0,0,.21-.7,1.15,1.15,0,0,0,0-.19V41.19a2.38,2.38,0,0,0-.89-1.79,27,27,0,0,0-3.79-2.63l-1.89-1.21A5.38,5.38,0,0,1,24.78,32a4.1,4.1,0,0,1-.06-.86,5.72,5.72,0,0,1,.08-.76,4.56,4.56,0,0,1,.2-.74l1.35.8.93.56,5.24,3.16,1,.61c1.19.72,2.25,1.38,3,1.85,1.52,1,2.63,3.9,3.29,8.69a.53.53,0,0,0,.06.19l5.81,9.79.86-.55L40.78,45C40.05,39.85,38.87,36.89,37.05,35.73ZM42.86,23.5l.45.93.46-.93a3.09,3.09,0,0,1,2.42-1.92,2.83,2.83,0,0,1,2.73,2.93c0,3.76-4.39,7.64-5.61,8.63-1.21-1-5.6-4.87-5.6-8.63a2.83,2.83,0,0,1,2.73-2.93A3.09,3.09,0,0,1,42.86,23.5ZM37,23a4.13,4.13,0,0,0-.29,1.5c0,3.26,2.75,6.43,4.62,8.21l-7.29-2V24.49Zm-9,4.54L33,25v5.47l-4.8-1.31c0-.06,0-.11,0-.17A3.64,3.64,0,0,0,27.93,27.55ZM17.14,15h15a.85.85,0,0,1,.85.85v2.26H16.28V15.83A.86.86,0,0,1,17.14,15ZM33,47.16h0a1.19,1.19,0,0,1-.1.32l-.09.13h0a.86.86,0,0,1-.66.31h-15a.86.86,0,0,1-.86-.85V42.5H33v4.66ZM26.9,36.41l1.9,1.21a28.78,28.78,0,0,1,3.63,2.51c.51.49.58.8.58,1.06v.3H16.28V19.1H33v4.77l-5.63,2.82a3.57,3.57,0,1,0-3.53,5.77A6.47,6.47,0,0,0,26.9,36.41Zm-2.28-8a.49.49,0,0,0-.31.24,5.88,5.88,0,0,0-.51,1.54,5.62,5.62,0,0,0-.09.92,1.5,1.5,0,0,0,0,.3A2.57,2.57,0,1,1,27.22,29a2.75,2.75,0,0,1-.1.7l-.29-.18h0L25,28.43A.51.51,0,0,0,24.62,28.38ZM28,30.21s0,0,0-.05l5,1.36v1.71Z"/></g></g></svg>