<svg xmlns="http://www.w3.org/2000/svg" viewBox="0 0 59.76 59.76"><defs><style>.cls-1{fill:#b30837;}.cls-2{fill:#fff;}</style></defs><title>icon-education</title><g id="Layer_2" data-name="Layer 2"><g id="Layer_1-2" data-name="Layer 1"><circle class="cls-1" cx="29.88" cy="29.88" r="29.88" transform="translate(-9.16 46.05) rotate(-67.5)"/><path class="cls-2" d="M48.63,14.84H11.13A1.18,1.18,0,0,0,9.94,16V42.74a1.18,1.18,0,0,0,1.19,1.18H25.86l-2.24,4.92a1.63,1.63,0,0,0,.16,1.38,2.22,2.22,0,0,0,1.94.76H34a2.21,2.21,0,0,0,1.94-.76,1.59,1.59,0,0,0,.15-1.42l-2.22-4.88H48.63a1.19,1.19,0,0,0,1.19-1.18V16A1.19,1.19,0,0,0,48.63,14.84Zm-37.5,1h37.5a.19.19,0,0,1,.19.18V36.9H10.94V16A.19.19,0,0,1,11.13,15.84Zm24,33.34a.59.59,0,0,1,0,.48A1.44,1.44,0,0,1,34,50H25.72a1.43,1.43,0,0,1-1.11-.32.58.58,0,0,1-.06-.44L27,43.92h5.81Zm13.47-6.26H11.13a.19.19,0,0,1-.19-.18V37.9H48.82v4.84A.19.19,0,0,1,48.63,42.92Z"/><path class="cls-2" d="M37.93,30.84h.87v1h1v-1h3.09v1h1v-1h.91v-1H38.74l-.33-1.57h6.87l1.12-4.76h-9l-.2-1H34.44v1h2Zm7.21-6.33-.65,2.76H38.21l-.57-2.76Z"/><path class="cls-2" d="M17.88,31.88a4.81,4.81,0,1,0-4.81-4.81A4.81,4.81,0,0,0,17.88,31.88Zm0-8.62a3.81,3.81,0,1,1-3.81,3.81A3.81,3.81,0,0,1,17.88,23.26Z"/><path class="cls-2" d="M17,29.1a.13.13,0,0,0,.09,0l2.63-1.87a.16.16,0,0,0,.05-.11.11.11,0,0,0-.06-.1l-2.64-1.66a.12.12,0,0,0-.13,0,.14.14,0,0,0-.06.11V29A.12.12,0,0,0,17,29.1Z"/><path class="cls-2" d="M28.45,29.34h.27a3.51,3.51,0,0,0,2.05-.67l2.92,3.39.76-.65L31.5,28a3.58,3.58,0,1,0-3.05,1.33Zm.26-6.15h.19A2.6,2.6,0,0,1,31.29,26a2.59,2.59,0,0,1-4.53,1.5,2.58,2.58,0,0,1,1.95-4.27Z"/><rect class="cls-2" x="28.25" y="40.15" width="3.23" height="1"/></g></g></svg>