<svg xmlns="http://www.w3.org/2000/svg" viewBox="0 0 49.61 37.27"><defs><style>.cls-1{fill:#636466;}.cls-2{fill:none;stroke:#b30838;stroke-miterlimit:10;}</style></defs><title>icon-back-to-top</title><g id="Layer_2" data-name="Layer 2"><g id="Layer_1-2" data-name="Layer 1"><path class="cls-1" d="M0,30.68H1.66A1.52,1.52,0,0,1,3.38,32.4a1.4,1.4,0,0,1-.77,1.36,1.48,1.48,0,0,1,.9,1.54c0,1.07-.48,1.88-1.75,1.88H0Zm1.12,2.67h.4a.74.74,0,0,0,.75-.83c0-.61-.23-.92-.73-.92H1.12Zm0,2.91h.46c.6,0,.81-.34.81-1s-.25-1-.91-1H1.12Z"/><path class="cls-1" d="M6.05,37.18H5l1.2-6.5H7.55l1.2,6.5H7.67l-.2-1.44H6.25Zm.36-2.41h.9L6.87,32h0Z"/><path class="cls-1" d="M12.55,32.85v-.5c0-.55-.26-.79-.54-.79-.45,0-.6.24-.6.72v3.3c0,.48.15.72.6.72s.54-.24.54-.66v-.78h1.11v.75A1.54,1.54,0,0,1,12,37.27a1.56,1.56,0,0,1-1.71-1.66V32.26A1.56,1.56,0,0,1,12,30.59a1.61,1.61,0,0,1,1.65,1.78v.48Z"/><path class="cls-1" d="M15.64,37.18v-6.5h1.12v2.4h0L18,30.68h1.11l-1.2,2.42,1.36,4.08H18.08l-.91-3h0l-.4.73v2.3Z"/><path class="cls-1" d="M24.14,31.65H23.06v-1h3.27v1H25.25v5.53H24.14Z"/><path class="cls-1" d="M27.89,32.26a1.56,1.56,0,0,1,1.71-1.67,1.56,1.56,0,0,1,1.71,1.67v3.35a1.56,1.56,0,0,1-1.71,1.66,1.56,1.56,0,0,1-1.71-1.66ZM29,35.58c0,.48.14.72.59.72s.6-.24.6-.72v-3.3c0-.48-.15-.72-.6-.72s-.59.24-.59.72Z"/><path class="cls-1" d="M36.84,31.65H35.76v-1H39v1H38v5.53H36.84Z"/><path class="cls-1" d="M40.59,32.26a1.71,1.71,0,0,1,3.42,0v3.35a1.71,1.71,0,0,1-3.42,0Zm1.12,3.32c0,.48.14.72.59.72s.59-.24.59-.72v-3.3c0-.48-.14-.72-.59-.72s-.59.24-.59.72Z"/><path class="cls-1" d="M46,37.18v-6.5h1.6c1.38,0,2,.53,2,1.92s-.64,1.92-2,1.92h-.48v2.66Zm1.12-3.58h.43c.73,0,1-.23,1-1s-.22-1-1-1h-.43Z"/><polyline class="cls-2" points="36.88 13.01 24.58 0.71 12.53 12.75"/></g></g></svg>