<svg xmlns="http://www.w3.org/2000/svg" viewBox="0 0 363.42 298.07"><defs><style>.cls-1{fill:#fff;}</style></defs><title>menu-items</title><g id="Layer_2" data-name="Layer 2"><g id="Layer_1-2" data-name="Layer 1"><path class="cls-1" d="M66.54.2V14.64H64.93V.2Z"/><path class="cls-1" d="M75.23,14.64V.2h2.3l6.31,11.12h.08V.2h1.44V14.64H84L76.71,1.76h0V14.64Z"/><path class="cls-1" d="M103.77,14.64V.2h1.6V13.28h6.84v1.36Z"/><path class="cls-1" d="M123.39,0C126.94,0,129,2.6,129,7.42s-2.1,7.42-5.65,7.42-5.64-2.6-5.64-7.42S119.85,0,123.39,0Zm0,13.48c2.55,0,4-2,4-6.06s-1.5-6.06-4-6.06-4,2-4,6.06S120.85,13.48,123.39,13.48Z"/><path class="cls-1" d="M134.43.2H136L139.59,12h0L143.21.2h1.62l-4.48,14.44h-1.46Z"/><path class="cls-1" d="M160,.2V1.56H153V6.4h5V7.76h-5v5.52h7.47v1.36h-9.07V.2Z"/><path class="cls-1" d="M176.07.2h1.52l2.68,11.52h0L183.11.2h1.42l2.89,11.52h0L190.1.2h1.52L188.2,14.64h-1.43L183.81,3h0L181,14.64h-1.42Z"/><path class="cls-1" d="M200.29.2V14.64h-1.6V.2Z"/><path class="cls-1" d="M213.19,1.56V14.64h-1.6V1.56h-4.32V.2h10.24V1.56Z"/><path class="cls-1" d="M234.23.2V14.64h-1.6V7.76h-6.92v6.88h-1.6V.2h1.6V6.4h6.92V.2Z"/><path class="cls-1" d="M252.65.2H258c2.52,0,4,1.6,4,3.56a3.22,3.22,0,0,1-2.44,3.32l0,0a3.67,3.67,0,0,1,2.78,3.64c0,2.16-1.32,3.88-5.24,3.88h-4.48Zm1.6,6.2h2.8c2.42,0,3.36-1.24,3.36-2.46,0-1.62-.88-2.38-2.72-2.38h-3.44Zm0,6.88h3c2.36,0,3.52-.8,3.52-2.6S259.29,7.76,257,7.76h-2.76Z"/><path class="cls-1" d="M272,.2V14.64h-1.6V.2Z"/><path class="cls-1" d="M290.23,7.7v6.94h-1.32V13.32h0a4.58,4.58,0,0,1-3.78,1.52c-3.28,0-5.64-2.36-5.64-7.42S281.81,0,285.09,0c2.44,0,4.32,1.16,5.2,4.24l-1.52.3c-.72-2.3-1.92-3.18-3.6-3.18-2.12,0-4.12,1.44-4.12,6.06s2,6.06,4.12,6.06c2.36,0,3.46-1.44,3.46-3.2V9.06h-3.26V7.7Z"/><path class="cls-1" d="M307.93.2h3.88c3.92,0,6.52,2.48,6.52,7.22,0,4.24-2.28,7.22-6.6,7.22h-3.8Zm1.6,13.08h2.16c3.32,0,5-2,5-5.86,0-4.22-2-5.86-5-5.86h-2.24Z"/><path class="cls-1" d="M323.75,14.64,328.19.2h2.38L335,14.64h-1.68L332,10.12h-5.18l-1.36,4.52Zm3.44-5.88h4.38l-2.08-7.44h-.22Z"/><path class="cls-1" d="M344,1.56V14.64h-1.6V1.56h-4.33V.2h10.25V1.56Z"/><path class="cls-1" d="M352.16,14.64,356.6.2H359l4.44,14.44h-1.68l-1.36-4.52H355.2l-1.36,4.52Zm3.44-5.88H360L357.9,1.32h-.22Z"/><path class="cls-1" d="M9.61,71.44h1.52L13.81,83h0l2.8-11.52h1.42L21,83h0l2.64-11.52h1.53L21.73,85.88H20.31l-3-11.68h0l-2.8,11.68H13.09Z"/><path class="cls-1" d="M42,71.44V85.88h-1.6V79H33.47v6.88h-1.6V71.44h1.6v6.2h6.92v-6.2Z"/><path class="cls-1" d="M48.63,85.88l4.44-14.44h2.38l4.44,14.44H58.21l-1.36-4.52H51.67l-1.36,4.52ZM52.07,80h4.38l-2.08-7.44h-.22Z"/><path class="cls-1" d="M68.9,72.8V85.88H67.3V72.8H63V71.44H73.22V72.8Z"/><path class="cls-1" d="M81.48,73.64l-1.26,2.84h-.84l.94-2.84h-.8v-2.2h2Z"/><path class="cls-1" d="M96.18,75.12a3.28,3.28,0,0,0-3.36-2.52c-1.68,0-2.68.8-2.7,2.24,0,3.16,8.12,2.36,8.12,7,0,2.1-1.18,4.24-4.86,4.24-3.16,0-4.4-2-5.17-3.76l1.47-.52a3.94,3.94,0,0,0,3.78,2.92c2.12,0,3.18-1.12,3.18-2.6,0-3.68-8.12-2.6-8.12-7.16,0-2.08,1.74-3.72,4.34-3.72a4.74,4.74,0,0,1,4.76,3.56Z"/><path class="cls-1" d="M114,85.88l4.45-14.44h2.38l4.44,14.44H123.6l-1.36-4.52h-5.18l-1.36,4.52ZM117.46,80h4.38l-2.08-7.44h-.22Z"/><path class="cls-1" d="M152.14,71.44V85.88h-1.6V79h-6.92v6.88H142V71.44h1.61v6.2h6.92v-6.2Z"/><path class="cls-1" d="M158.77,85.88l4.44-14.44h2.39L170,85.88h-1.68L167,81.36h-5.19l-1.36,4.52ZM162.21,80h4.39l-2.09-7.44h-.22Z"/><path class="cls-1" d="M183.48,75.12a3.29,3.29,0,0,0-3.37-2.52c-1.68,0-2.68.8-2.7,2.24,0,3.16,8.13,2.36,8.13,7,0,2.1-1.18,4.24-4.87,4.24-3.16,0-4.4-2-5.16-3.76L177,81.8a3.94,3.94,0,0,0,3.78,2.92c2.13,0,3.19-1.12,3.19-2.6,0-3.68-8.13-2.6-8.13-7.16,0-2.08,1.74-3.72,4.34-3.72a4.74,4.74,0,0,1,4.77,3.56Z"/><path class="cls-1" d="M203,71.44V85.88h-1.6V79h-6.93v6.88h-1.6V71.44h1.6v6.2h6.93v-6.2Z"/><path class="cls-1" d="M215.53,72.8V85.88h-1.6V72.8h-4.32V71.44h10.24V72.8Z"/><path class="cls-1" d="M223.67,85.88l4.45-14.44h2.38l4.44,14.44h-1.68l-1.36-4.52h-5.19l-1.36,4.52ZM227.12,80h4.38l-2.08-7.44h-.22Z"/><path class="cls-1" d="M251.16,78.94v6.94h-1.32V84.56h0A4.58,4.58,0,0,1,246,86.08c-3.29,0-5.65-2.36-5.65-7.42s2.36-7.42,5.65-7.42c2.44,0,4.32,1.16,5.2,4.24l-1.52.3c-.72-2.3-1.92-3.18-3.6-3.18C244,72.6,242,74,242,78.66s2,6.06,4.13,6.06c2.36,0,3.46-1.44,3.46-3.2V80.3h-3.27V78.94Z"/><path class="cls-1" d="M267.41,71.44h1.52L271.61,83h0l2.81-11.52h1.42L278.76,83h0l2.64-11.52H283l-3.42,14.44h-1.42l-3-11.68h0l-2.81,11.68h-1.42Z"/><path class="cls-1" d="M294.17,71.24c3.54,0,5.65,2.6,5.65,7.42s-2.11,7.42-5.65,7.42-5.64-2.6-5.64-7.42S290.63,71.24,294.17,71.24Zm0,13.48c2.54,0,4-2,4-6.06s-1.5-6.06-4-6.06-4,2-4,6.06S291.63,84.72,294.17,84.72Z"/><path class="cls-1" d="M306.85,85.88V71.44h4.64c3.13,0,4.83,1.4,4.83,3.8A3.75,3.75,0,0,1,313.43,79l3.07,6.88h-1.75l-2.92-6.56h-3.38v6.56Zm1.6-7.92h2.9c2.2,0,3.36-.82,3.36-2.64s-1.32-2.52-3.38-2.52h-2.88Z"/><path class="cls-1" d="M327.82,72.8V85.88h-1.6V72.8H321.9V71.44h10.24V72.8Z"/><path class="cls-1" d="M348.86,71.44V85.88h-1.6V79h-6.92v6.88h-1.6V71.44h1.6v6.2h6.92v-6.2Z"/><path class="cls-1" d="M358.06,81.32v-1.1c0-3,3-3.66,3-6a1.62,1.62,0,0,0-1.68-1.72c-.92,0-1.52.44-2.1,1.54l-1.2-.58a3.47,3.47,0,0,1,3.26-2.2,3,3,0,0,1,3.24,3c0,2.6-3.16,3.72-3.16,5.92v1.12Zm1.62,2.36v2.2h-2v-2.2Z"/><path class="cls-1" d="M10.3,157.55V143.1h5c3.08,0,4.42,1.76,4.42,4s-1.66,4-5.3,4H11.9v6.45Zm1.6-7.81h2.72c2.66,0,3.54-.92,3.54-2.64s-1-2.64-3.18-2.64H11.9Z"/><path class="cls-1" d="M35.34,143.1v1.36H28.28v4.84h5v1.36h-5v5.53h7.46v1.36H26.68V143.1Z"/><path class="cls-1" d="M42.74,157.55V143.1h4.64c3.12,0,4.82,1.4,4.82,3.8a3.74,3.74,0,0,1-2.88,3.76l3.06,6.89H50.64L47.72,151H44.34v6.57Zm1.6-7.93h2.9c2.2,0,3.36-.82,3.36-2.64s-1.32-2.52-3.38-2.52H44.34Z"/><path class="cls-1" d="M67,146.78a3.28,3.28,0,0,0-3.36-2.52c-1.68,0-2.68.8-2.7,2.24,0,3.16,8.12,2.36,8.12,7,0,2.1-1.18,4.25-4.86,4.25-3.16,0-4.41-2-5.16-3.77l1.46-.52a4,4,0,0,0,3.78,2.93c2.12,0,3.18-1.12,3.18-2.61,0-3.68-8.12-2.6-8.12-7.16,0-2.08,1.74-3.72,4.34-3.72a4.74,4.74,0,0,1,4.76,3.56Z"/><path class="cls-1" d="M81,142.9c3.54,0,5.64,2.6,5.64,7.42s-2.1,7.43-5.64,7.43-5.65-2.6-5.65-7.43S77.42,142.9,81,142.9Zm0,13.49c2.54,0,4-2,4-6.07s-1.5-6.06-4-6.06-4,2-4,6.06S78.42,156.39,81,156.39Z"/><path class="cls-1" d="M93.79,157.55V143.1H96.1l6.3,11.12h.08V143.1h1.44v14.45H102.6l-7.32-12.89h0v12.89Z"/><path class="cls-1" d="M110.55,157.55,115,143.1h2.38l4.44,14.45h-1.68L118.78,153h-5.19l-1.36,4.53Zm3.45-5.89h4.38l-2.09-7.44h-.21Z"/><path class="cls-1" d="M128.45,157.55V143.1h1.6v13.09h6.85v1.36Z"/><path class="cls-1" d="M145.54,143.1v14.45h-1.61V143.1Z"/><path class="cls-1" d="M162.3,157.55H153v-1.16l7.24-11.93h-6.58V143.1h8.59v1l-7.37,12.05h7.45Z"/><path class="cls-1" d="M171.31,143.1v14.45h-1.6V143.1Z"/><path class="cls-1" d="M180,157.55V143.1h2.3l6.31,11.12h.08V143.1h1.44v14.45h-1.32l-7.33-12.89h0v12.89Z"/><path class="cls-1" d="M208,150.6v7h-1.33v-1.32h0a4.58,4.58,0,0,1-3.78,1.52c-3.28,0-5.64-2.37-5.64-7.43s2.36-7.42,5.64-7.42c2.44,0,4.32,1.16,5.21,4.24l-1.52.3c-.73-2.3-1.93-3.18-3.61-3.18-2.12,0-4.12,1.44-4.12,6.06s2,6.07,4.12,6.07c2.36,0,3.46-1.45,3.46-3.21V152h-3.26V150.6Z"/><path class="cls-1" d="M234.55,143.1v1.36h-7.06v4.84h5v1.36h-5v5.53H235v1.36h-9.06V143.1Z"/><path class="cls-1" d="M242,143.1h3.88c3.92,0,6.52,2.48,6.52,7.22,0,4.24-2.28,7.23-6.6,7.23H242Zm1.6,13.09h2.16c3.32,0,5-2,5-5.87,0-4.22-2-5.86-5-5.86h-2.24Z"/><path class="cls-1" d="M261.05,143.1v10.2c0,1.68,1.2,3.09,3.46,3.09S268,155,268,153.3V143.1h1.6v10.08c0,2.88-2.08,4.57-5.06,4.57s-5.06-1.69-5.06-4.57V143.1Z"/><path class="cls-1" d="M287.17,153.22c-.64,2.69-2.12,4.53-5.08,4.53-3.24,0-5.52-2.37-5.52-7.43,0-4.7,2-7.42,5.52-7.42,2.68,0,4.24,1.56,4.88,4.2l-1.48.44c-.52-2-1.44-3.28-3.6-3.28s-3.72,1.92-3.72,6.06,1.64,6.07,4,6.07c2.22,0,3.08-1.69,3.52-3.45Z"/><path class="cls-1" d="M292.43,157.55l4.44-14.45h2.38l4.44,14.45H302L300.65,153h-5.18l-1.36,4.53Zm3.44-5.89h4.38l-2.08-7.44H298Z"/><path class="cls-1" d="M312.7,144.46v13.09h-1.6V144.46h-4.33V143.1H317v1.36Z"/><path class="cls-1" d="M325.58,143.1v14.45H324V143.1Z"/><path class="cls-1" d="M338.78,142.9c3.54,0,5.64,2.6,5.64,7.42s-2.1,7.43-5.64,7.43-5.65-2.6-5.65-7.43S335.24,142.9,338.78,142.9Zm0,13.49c2.54,0,4-2,4-6.07s-1.5-6.06-4-6.06-4,2-4,6.06S336.24,156.39,338.78,156.39Z"/><path class="cls-1" d="M351.62,157.55V143.1h2.3l6.3,11.12h.08V143.1h1.44v14.45h-1.32l-7.33-12.89h0v12.89Z"/><path class="cls-1" d="M10.6,222.22c-.64,2.68-2.12,4.52-5.08,4.52-3.24,0-5.52-2.36-5.52-7.42,0-4.7,2-7.42,5.52-7.42,2.68,0,4.24,1.56,4.88,4.2l-1.48.44c-.52-2-1.44-3.28-3.6-3.28s-3.72,1.92-3.72,6.06,1.64,6.06,4,6.06c2.22,0,3.08-1.68,3.52-3.44Z"/><path class="cls-1" d="M15.86,226.54,20.3,212.1h2.38l4.44,14.44H25.44L24.08,222H18.9l-1.36,4.52Zm3.44-5.88h4.38l-2.08-7.44h-.22Z"/><path class="cls-1" d="M33.76,226.54V212.1h2.3l6.3,11.12h.08V212.1h1.44v14.44H42.56l-7.32-12.88h0v12.88Z"/><path class="cls-1" d="M63.9,212.1v10.2c0,1.68,1.2,3.08,3.46,3.08s3.46-1.4,3.46-3.08V212.1h1.6v10.08c0,2.88-2.08,4.56-5.06,4.56s-5.06-1.68-5.06-4.56V212.1Z"/><path class="cls-1" d="M80.74,212.1h5.32c2.52,0,4,1.6,4,3.56A3.22,3.22,0,0,1,87.66,219l0,0a3.67,3.67,0,0,1,2.78,3.64c0,2.16-1.32,3.88-5.24,3.88H80.74Zm1.6,6.2h2.8c2.42,0,3.36-1.24,3.36-2.46,0-1.62-.88-2.38-2.72-2.38H82.34Zm0,6.88h3c2.36,0,3.52-.8,3.52-2.6s-1.48-2.92-3.76-2.92H82.34Z"/><path class="cls-1" d="M106.74,212.1v1.36H99.68v4.84h5v1.36h-5v5.52h7.46v1.36H98.08V212.1Z"/><path class="cls-1" d="M114.14,226.54V212.1h4.64c3.12,0,4.82,1.4,4.82,3.8a3.74,3.74,0,0,1-2.88,3.76l3.06,6.88H122L119.12,220h-3.38v6.56Zm1.6-7.92h2.9c2.2,0,3.36-.82,3.36-2.64s-1.32-2.52-3.38-2.52h-2.88Z"/><path class="cls-1" d="M141.74,212.1h5.32c2.52,0,4,1.6,4,3.56a3.22,3.22,0,0,1-2.44,3.32l0,0a3.67,3.67,0,0,1,2.78,3.64c0,2.16-1.32,3.88-5.24,3.88h-4.48Zm1.6,6.2h2.8c2.42,0,3.36-1.24,3.36-2.46,0-1.62-.88-2.38-2.72-2.38h-3.44Zm0,6.88h3c2.36,0,3.52-.8,3.52-2.6s-1.48-2.92-3.76-2.92h-2.76Z"/><path class="cls-1" d="M160.68,212.1v10.2c0,1.68,1.2,3.08,3.46,3.08s3.46-1.4,3.46-3.08V212.1h1.6v10.08c0,2.88-2.08,4.56-5.06,4.56s-5.06-1.68-5.06-4.56V212.1Z"/><path class="cls-1" d="M180.12,220.46l-4.44-8.36h1.76l3.48,6.62,3.48-6.62h1.76l-4.44,8.36v6.08h-1.6Z"/><path class="cls-1" d="M205.34,220.46l-4.44-8.36h1.76l3.48,6.62,3.48-6.62h1.76l-4.44,8.36v6.08h-1.6Z"/><path class="cls-1" d="M222.36,211.9c3.54,0,5.64,2.6,5.64,7.42s-2.1,7.42-5.64,7.42-5.64-2.6-5.64-7.42S218.82,211.9,222.36,211.9Zm0,13.48c2.54,0,4-2,4-6.06s-1.5-6.06-4-6.06-4,2-4,6.06S219.82,225.38,222.36,225.38Z"/><path class="cls-1" d="M236.8,212.1v10.2c0,1.68,1.2,3.08,3.46,3.08s3.46-1.4,3.46-3.08V212.1h1.6v10.08c0,2.88-2.08,4.56-5.06,4.56s-5.06-1.68-5.06-4.56V212.1Z"/><path class="cls-1" d="M262.06,226.54l4.44-14.44h2.38l4.44,14.44h-1.68L270.28,222H265.1l-1.36,4.52Zm3.44-5.88h4.38l-2.08-7.44h-.22Z"/><path class="cls-1" d="M290.06,212.1h5.32c2.52,0,4,1.6,4,3.56A3.22,3.22,0,0,1,297,219l0,0a3.67,3.67,0,0,1,2.78,3.64c0,2.16-1.32,3.88-5.24,3.88h-4.48Zm1.6,6.2h2.8c2.42,0,3.36-1.24,3.36-2.46,0-1.62-.88-2.38-2.72-2.38h-3.44Zm0,6.88h3c2.36,0,3.52-.8,3.52-2.6s-1.48-2.92-3.76-2.92h-2.76Z"/><path class="cls-1" d="M316.06,212.1v1.36H309v4.84h5v1.36h-5v5.52h7.46v1.36H307.4V212.1Z"/><path class="cls-1" d="M323.62,226.54V212.1h2.3l6.3,11.12h.08V212.1h1.44v14.44h-1.32l-7.33-12.88h0v12.88Z"/><path class="cls-1" d="M350.12,226.54h-9.33v-1.16L348,213.46h-6.59V212.1H350v1l-7.37,12h7.45Z"/><path class="cls-1" d="M358.05,222v-1.1c0-3,3-3.66,3-6a1.62,1.62,0,0,0-1.68-1.72c-.92,0-1.53.44-2.11,1.54l-1.2-.58a3.47,3.47,0,0,1,3.26-2.2,3,3,0,0,1,3.25,3c0,2.6-3.16,3.72-3.16,5.92V222Zm1.62,2.36v2.2h-2v-2.2Z"/><path class="cls-1" d="M53.88,293.55c-.64,2.68-2.12,4.52-5.08,4.52-3.24,0-5.52-2.36-5.52-7.42,0-4.7,2-7.42,5.52-7.42,2.68,0,4.24,1.56,4.88,4.2l-1.48.44c-.52-2-1.44-3.28-3.6-3.28s-3.72,1.92-3.72,6.06,1.64,6.06,4,6.06c2.22,0,3.08-1.68,3.52-3.44Z"/><path class="cls-1" d="M59.13,297.87l4.45-14.44H66l4.44,14.44H68.72l-1.36-4.52H62.18l-1.36,4.52ZM62.58,292H67l-2.08-7.44h-.22Z"/><path class="cls-1" d="M77,297.87V283.43h1.6v13.08h6.84v1.36Z"/><path class="cls-1" d="M101.44,293.55c-.64,2.68-2.12,4.52-5.08,4.52-3.24,0-5.53-2.36-5.53-7.42,0-4.7,2-7.42,5.53-7.42,2.68,0,4.24,1.56,4.88,4.2l-1.48.44c-.52-2-1.44-3.28-3.6-3.28s-3.72,1.92-3.72,6.06,1.64,6.06,4,6.06c2.22,0,3.08-1.68,3.52-3.44Z"/><path class="cls-1" d="M110,283.43v10.2c0,1.68,1.2,3.08,3.46,3.08s3.46-1.4,3.46-3.08v-10.2h1.6v10.08c0,2.88-2.08,4.56-5.06,4.56s-5.06-1.68-5.06-4.56V283.43Z"/><path class="cls-1" d="M126.81,297.87V283.43h1.61v13.08h6.84v1.36Z"/><path class="cls-1" d="M140.25,297.87l4.45-14.44h2.38l4.44,14.44h-1.68l-1.36-4.52h-5.19l-1.36,4.52ZM143.7,292h4.38L146,284.55h-.22Z"/><path class="cls-1" d="M160.52,284.79v13.08h-1.6V284.79H154.6v-1.36h10.24v1.36Z"/><path class="cls-1" d="M173.4,283.43v14.44h-1.6V283.43Z"/><path class="cls-1" d="M182.1,297.87V283.43h2.3l6.3,11.12h.08V283.43h1.44v14.44H190.9L183.58,285h0v12.88Z"/><path class="cls-1" d="M210.12,290.93v6.94H208.8v-1.32h0a4.58,4.58,0,0,1-3.78,1.52c-3.28,0-5.64-2.36-5.64-7.42s2.36-7.42,5.64-7.42c2.44,0,4.32,1.16,5.2,4.24l-1.52.3c-.72-2.3-1.92-3.18-3.6-3.18-2.12,0-4.12,1.44-4.12,6.06s2,6.06,4.12,6.06c2.36,0,3.46-1.44,3.46-3.2v-1.22h-3.26v-1.36Z"/><path class="cls-1" d="M228,297.87V283.43h2.3l6.3,11.12h.08V283.43h1.44v14.44h-1.32L229.46,285h0v12.88Z"/><path class="cls-1" d="M255.08,283.43v1.36H248v4.84h5V291h-5v5.52h7.46v1.36h-9.06V283.43Z"/><path class="cls-1" d="M261,283.43h1.52L265.24,295h0l2.8-11.52h1.42L272.38,295h0l2.64-11.52h1.52l-3.42,14.44h-1.42l-3-11.68h0l-2.8,11.68h-1.42Z"/><path class="cls-1" d="M295.36,283.43v14.44h-1.6V283.43Z"/><path class="cls-1" d="M303.9,283.43h3.88c3.92,0,6.52,2.48,6.52,7.22,0,4.24-2.28,7.22-6.6,7.22h-3.8Zm1.6,13.08h2.16c3.32,0,5-2,5-5.86,0-4.22-2-5.86-5-5.86H305.5Z"/><path class="cls-1" d="M330.06,283.43v1.36H323v4.84h5V291h-5v5.52h7.46v1.36H321.4V283.43Z"/><path class="cls-1" d="M335.94,297.87l4.44-14.44h2.38l4.44,14.44h-1.68l-1.36-4.52H339l-1.36,4.52Zm3.44-5.88h4.38l-2.08-7.44h-.22Z"/><path class="cls-1" d="M360.64,287.11a3.28,3.28,0,0,0-3.36-2.52c-1.68,0-2.68.8-2.7,2.24,0,3.16,8.12,2.36,8.12,7,0,2.1-1.18,4.24-4.86,4.24-3.16,0-4.4-2-5.17-3.76l1.47-.52a3.94,3.94,0,0,0,3.78,2.92c2.12,0,3.18-1.12,3.18-2.6,0-3.68-8.12-2.6-8.12-7.16,0-2.08,1.74-3.72,4.34-3.72a4.74,4.74,0,0,1,4.76,3.56Z"/></g></g></svg>