<svg xmlns="http://www.w3.org/2000/svg" viewBox="0 0 271 258.84"><defs><style>.cls-1{isolation:isolate;}.cls-2,.cls-5,.cls-6{fill:none;}.cls-2{stroke:#636466;mix-blend-mode:overlay;}.cls-2,.cls-6{stroke-miterlimit:10;}.cls-3{fill:#252729;}.cls-4{fill:#b30838;}.cls-5,.cls-6{stroke:#b30838;stroke-width:0.75px;}.cls-5{stroke-linejoin:round;}</style></defs><title>mobile-diagram</title><g class="cls-1"><g id="Layer_2" data-name="Layer 2"><g id="Layer_1-2" data-name="Layer 1"><circle class="cls-2" cx="90.5" cy="90.5" r="90"/><circle class="cls-2" cx="180.5" cy="90.5" r="90"/><circle class="cls-2" cx="135.01" cy="168.34" r="90"/><path class="cls-3" d="M24.85,71.07v-.79c0-.85-.39-1.21-.84-1.21-.7,0-.92.36-.92,1.12v5.12c0,.76.22,1.12.92,1.12s.84-.36.84-1V74.19h1.74v1.17A2.41,2.41,0,0,1,24,78a2.43,2.43,0,0,1-2.66-2.59V70.14A2.43,2.43,0,0,1,24,67.55a2.51,2.51,0,0,1,2.58,2.78v.74Z"/><path class="cls-3" d="M28.7,70.14a2.43,2.43,0,0,1,2.66-2.59A2.43,2.43,0,0,1,34,70.14v5.22A2.43,2.43,0,0,1,31.36,78a2.43,2.43,0,0,1-2.66-2.59Zm1.74,5.17c0,.76.22,1.12.92,1.12s.93-.36.93-1.12V70.19c0-.76-.23-1.12-.93-1.12s-.92.36-.92,1.12Z"/><path class="cls-3" d="M43,67.69V77.81H41.5v-7.9h0l-1.57,7.9h-.84l-1.57-7.9h0v7.9H36V67.69h2.29l1.23,5.91h0l1.23-5.91Z"/><path class="cls-3" d="M45,77.81V67.69h2.5c2.14,0,3.14.83,3.14,3s-1,3-3.14,3h-.76v4.15Zm1.74-5.58h.67c1.14,0,1.49-.35,1.49-1.55s-.35-1.56-1.49-1.56h-.67Z"/><path class="cls-3" d="M52.3,67.69H54v7.64c0,.74.3,1.1.93,1.1s.92-.36.92-1.1V67.69h1.74v7.57a2.67,2.67,0,1,1-5.33,0Z"/><path class="cls-3" d="M60.66,69.21H59V67.69h5.1v1.52H62.4v8.6H60.66Z"/><path class="cls-3" d="M65.45,77.81V67.69H70.1v1.52H67.19v2.6h2.24v1.51H67.19v3H70.3v1.52Z"/><path class="cls-3" d="M73.75,77.81H72V67.69h2.43c2,0,2.94.83,2.94,3,0,1.62-.63,2.28-1.21,2.55l1.47,4.58H75.88l-1.23-4.19a7.93,7.93,0,0,1-.9,0Zm0-5.58h.62c.94,0,1.29-.35,1.29-1.55s-.35-1.56-1.29-1.56h-.62Z"/><path class="cls-3" d="M23.39,85.19c-.07-.87-.53-1.12-.93-1.12-.56,0-.86.36-.86,1,0,1.72,3.53,2.55,3.53,5.3A2.48,2.48,0,0,1,22.38,93a2.67,2.67,0,0,1-2.61-2.8l1.66-.24c.07,1,.47,1.52,1,1.52a.89.89,0,0,0,1-.92c0-2-3.53-2.54-3.53-5.44a2.37,2.37,0,0,1,2.69-2.52A2.43,2.43,0,0,1,25,85Z"/><path class="cls-3" d="M30.29,86.07v-.79c0-.85-.39-1.21-.84-1.21-.7,0-.92.36-.92,1.12v5.12c0,.76.22,1.12.92,1.12s.84-.36.84-1V89.19H32v1.17A2.41,2.41,0,0,1,29.45,93a2.43,2.43,0,0,1-2.66-2.59V85.14a2.43,2.43,0,0,1,2.66-2.59A2.51,2.51,0,0,1,32,85.33v.74Z"/><path class="cls-3" d="M34.38,92.81V82.69h1.73V92.81Z"/><path class="cls-3" d="M38.38,92.81V82.69H43v1.52H40.12v2.6h2.24v1.51H40.12v3h3.11v1.52Z"/><path class="cls-3" d="M45,92.81V82.69h1.61l2.11,5.79h0V82.69h1.57V92.81H48.76l-2.22-6.32h0v6.32Z"/><path class="cls-3" d="M55.8,86.07v-.79c0-.85-.39-1.21-.84-1.21-.7,0-.93.36-.93,1.12v5.12c0,.76.23,1.12.93,1.12s.84-.36.84-1V89.19h1.74v1.17a2.62,2.62,0,0,1-5.24,0V85.14A2.43,2.43,0,0,1,55,82.55a2.51,2.51,0,0,1,2.58,2.78v.74Z"/><path class="cls-3" d="M59.65,92.81V82.69H64.3v1.52H61.38v2.6h2.25v1.51H61.38v3h3.11v1.52Z"/><path class="cls-3" d="M68.19,82.55h1.37L66.45,93H65.08Z"/><path class="cls-3" d="M70.69,92.81V82.69h1.74V92.81Z"/><path class="cls-3" d="M75.71,84.21H74V82.69h5.1v1.52H77.44v8.6H75.71Z"/><path class="cls-3" d="M192.74,69.74c-.07-.87-.53-1.12-.93-1.12-.56,0-.86.36-.86,1,0,1.73,3.53,2.55,3.53,5.3a2.49,2.49,0,0,1-2.75,2.59,2.67,2.67,0,0,1-2.61-2.8l1.66-.24c.07,1,.47,1.53,1,1.53a.9.9,0,0,0,1-.93c0-2-3.53-2.53-3.53-5.43A2.37,2.37,0,0,1,192,67.11a2.42,2.42,0,0,1,2.41,2.45Z"/><path class="cls-3" d="M197.15,68.76h-1.68V67.25h5.09v1.51h-1.68v8.6h-1.73Z"/><path class="cls-3" d="M202.94,77.36h-1.68l1.86-10.11h2.16l1.86,10.11h-1.68l-.3-2.24h-1.91Zm.56-3.75h1.4l-.68-4.35h0Z"/><path class="cls-3" d="M209.51,68.76h-1.68V67.25h5.1v1.51h-1.68v8.6h-1.74Z"/><path class="cls-3" d="M214.53,77.36V67.25h1.74V77.36Z"/><path class="cls-3" d="M221.7,69.74c-.07-.87-.53-1.12-.92-1.12-.56,0-.87.36-.87,1,0,1.73,3.53,2.55,3.53,5.3a2.48,2.48,0,0,1-2.74,2.59,2.66,2.66,0,0,1-2.61-2.8l1.65-.24c.07,1,.48,1.53,1,1.53a.9.9,0,0,0,1-.93c0-2-3.53-2.53-3.53-5.43A2.37,2.37,0,0,1,221,67.11a2.43,2.43,0,0,1,2.41,2.45Z"/><path class="cls-3" d="M226.11,68.76h-1.68V67.25h5.1v1.51h-1.68v8.6h-1.74Z"/><path class="cls-3" d="M231.14,77.36V67.25h1.73V77.36Z"/><path class="cls-3" d="M238.64,70.62v-.78c0-.86-.39-1.22-.84-1.22-.7,0-.92.36-.92,1.12v5.13c0,.75.22,1.12.92,1.12s.84-.37.84-1V73.75h1.74v1.16a2.62,2.62,0,0,1-5.24,0V69.7a2.43,2.43,0,0,1,2.66-2.59,2.51,2.51,0,0,1,2.58,2.77v.74Z"/><path class="cls-3" d="M245.66,69.74c-.07-.87-.54-1.12-.93-1.12-.56,0-.87.36-.87,1,0,1.73,3.53,2.55,3.53,5.3a2.48,2.48,0,0,1-2.74,2.59A2.67,2.67,0,0,1,242,74.7l1.66-.24c.07,1,.47,1.53,1,1.53a.9.9,0,0,0,1-.93c0-2-3.53-2.53-3.53-5.43a2.37,2.37,0,0,1,2.69-2.52,2.42,2.42,0,0,1,2.41,2.45Z"/><path class="cls-3" d="M123.93,41.25v7.22h-1.08V42.83h0l-1.12,5.64h-.6L120,42.83h0v5.64h-1.08V41.25h1.63l.88,4.22h0l.88-4.22Z"/><path class="cls-3" d="M126,48.47h-1.2l1.33-7.22h1.54L129,48.47h-1.2l-.22-1.6h-1.36Zm.4-2.68h1l-.49-3.1h0Z"/><path class="cls-3" d="M132.51,43.66V43.1c0-.61-.28-.87-.6-.87-.5,0-.66.26-.66.8v3.66c0,.54.16.8.66.8s.6-.26.6-.73v-.87h1.24v.83a1.87,1.87,0,0,1-3.74,0V43a1.73,1.73,0,0,1,1.9-1.85,1.79,1.79,0,0,1,1.84,2v.53Z"/><path class="cls-3" d="M135.26,48.47V41.25h1.24v2.94h1.32V41.25h1.24v7.22h-1.24v-3.2H136.5v3.2Z"/><path class="cls-3" d="M140.68,48.47V41.25h1.24v7.22Z"/><path class="cls-3" d="M143.54,48.47V41.25h1.15l1.51,4.13h0V41.25h1.12v7.22h-1.08L144.68,44h0v4.51Z"/><path class="cls-3" d="M148.79,48.47V41.25h3.32v1.08H150v1.86h1.6v1.08H150v2.12h2.22v1.08Z"/><path class="cls-3" d="M117.39,60.47V53.25h1.24v6.14h2v1.08Z"/><path class="cls-3" d="M121.59,60.47V53.25h3.32v1.08h-2.08v1.86h1.6v1.08h-1.6v2.12h2.22v1.08Z"/><path class="cls-3" d="M127,60.47h-1.2l1.33-7.22h1.54L130,60.47h-1.2l-.22-1.6h-1.36Zm.4-2.68h1l-.49-3.1h0Z"/><path class="cls-3" d="M132.21,60.47H131V53.25h1.74c1.39,0,2.1.59,2.1,2.13,0,1.16-.45,1.63-.87,1.82L135,60.47h-1.26l-.88-3a6,6,0,0,1-.64,0Zm0-4h.44c.67,0,.92-.25.92-1.11s-.25-1.11-.92-1.11h-.44Z"/><path class="cls-3" d="M136.22,60.47V53.25h1.15l1.51,4.13h0V53.25H140v7.22h-1.08L137.36,56h0v4.51Z"/><path class="cls-3" d="M141.64,60.47V53.25h1.24v7.22Z"/><path class="cls-3" d="M144.5,60.47V53.25h1.15l1.51,4.13h0V53.25h1.12v7.22h-1.08L145.64,56h0v4.51Z"/><path class="cls-3" d="M151.46,56.81h2v3.66h-.6l-.23-.54a1.44,1.44,0,0,1-1.25.64,1.65,1.65,0,0,1-1.66-1.85V55a1.71,1.71,0,0,1,1.82-1.85,1.8,1.8,0,0,1,1.86,2v.46h-1.18c0-1.08-.22-1.36-.71-1.36-.3,0-.55.18-.55.79v3.71c0,.46.15.76.58.76s.68-.28.68-1v-.7h-.79Z"/><path class="cls-3" d="M53.93,155.61v-7.22h1.24v7.22Z"/><path class="cls-3" d="M56.79,155.61v-7.22h1.15l1.5,4.13h0v-4.13h1.12v7.22H59.5l-1.57-4.51h0v4.51Z"/><path class="cls-3" d="M62,155.61v-7.22h3.45v1.08H63.28v1.86h1.65v1.08H63.28v3.2Z"/><path class="cls-3" d="M66.73,150.14a1.9,1.9,0,0,1,3.79,0v3.72a1.9,1.9,0,0,1-3.79,0ZM68,153.83c0,.54.16.8.65.8s.66-.26.66-.8v-3.66c0-.54-.16-.8-.66-.8s-.65.26-.65.8Z"/><path class="cls-3" d="M73.22,155.61H72v-7.22h1.74c1.38,0,2.09.59,2.09,2.13,0,1.16-.45,1.63-.87,1.82l1,3.27H74.73l-.88-3a5.66,5.66,0,0,1-.63,0Zm0-4h.44c.66,0,.91-.25.91-1.11s-.25-1.11-.91-1.11h-.44Z"/><path class="cls-3" d="M82.19,148.39v7.22H81.11V150h0L80,155.61h-.6L78.26,150h0v5.64H77.16v-7.22h1.63l.87,4.22h0l.88-4.22Z"/><path class="cls-3" d="M84.31,155.61h-1.2l1.33-7.22H86l1.33,7.22H86.1l-.22-1.6H84.53Zm.4-2.68h1l-.48-3.1h0Z"/><path class="cls-3" d="M89,149.47H87.8v-1.08h3.63v1.08h-1.2v6.14H89Z"/><path class="cls-3" d="M92.59,155.61v-7.22h1.23v7.22Z"/><path class="cls-3" d="M95.45,150.14a1.9,1.9,0,0,1,3.79,0v3.72a1.9,1.9,0,0,1-3.79,0Zm1.24,3.69c0,.54.16.8.65.8s.66-.26.66-.8v-3.66c0-.54-.16-.8-.66-.8s-.65.26-.65.8Z"/><path class="cls-3" d="M100.7,155.61v-7.22h1.15l1.5,4.13h0v-4.13h1.12v7.22h-1.08l-1.57-4.51h0v4.51Z"/><path class="cls-3" d="M65.14,162.17c0-.62-.38-.8-.66-.8s-.62.26-.62.71c0,1.23,2.51,1.82,2.51,3.78a1.77,1.77,0,0,1-2,1.85,1.9,1.9,0,0,1-1.86-2l1.18-.17c0,.73.34,1.09.74,1.09a.64.64,0,0,0,.72-.66c0-1.43-2.52-1.81-2.52-3.88a1.69,1.69,0,0,1,1.92-1.8A1.73,1.73,0,0,1,66.31,162Z"/><path class="cls-3" d="M69.81,167.61H68.57v-3l-1.5-4.22h1.26l.87,2.75h0l.83-2.75H71.3l-1.49,4.22Z"/><path class="cls-3" d="M74.52,162.17c0-.62-.38-.8-.66-.8s-.62.26-.62.71c0,1.23,2.51,1.82,2.51,3.78a1.77,1.77,0,0,1-2,1.85,1.9,1.9,0,0,1-1.86-2l1.18-.17c0,.73.34,1.09.74,1.09a.64.64,0,0,0,.72-.66c0-1.43-2.52-1.81-2.52-3.88a1.69,1.69,0,0,1,1.92-1.8A1.73,1.73,0,0,1,75.69,162Z"/><path class="cls-3" d="M77.67,161.47h-1.2v-1.08H80.1v1.08H78.91v6.14H77.67Z"/><path class="cls-3" d="M81.09,167.61v-7.22H84.4v1.08H82.33v1.86h1.59v1.08H82.33v2.12h2.21v1.08Z"/><path class="cls-3" d="M90.74,160.39v7.22H89.66V162h0l-1.12,5.64h-.59L86.81,162h0v5.64H85.71v-7.22h1.63l.87,4.22h0l.88-4.22Z"/><path class="cls-3" d="M94.39,162.17c0-.62-.37-.8-.65-.8s-.62.26-.62.71c0,1.23,2.51,1.82,2.51,3.78a1.77,1.77,0,0,1-1.95,1.85,1.9,1.9,0,0,1-1.86-2l1.18-.17c0,.73.34,1.09.74,1.09a.63.63,0,0,0,.71-.66c0-1.43-2.51-1.81-2.51-3.88a1.69,1.69,0,0,1,1.91-1.8A1.73,1.73,0,0,1,95.57,162Z"/><path class="cls-3" d="M169.73,148.39h1.83a1.69,1.69,0,0,1,1.92,1.91,1.55,1.55,0,0,1-.86,1.51,1.65,1.65,0,0,1,1,1.71c0,1.19-.53,2.09-1.94,2.09h-2Zm1.24,3h.45a.82.82,0,0,0,.82-.92c0-.67-.26-1-.8-1H171Zm0,3.24h.51c.66,0,.9-.38.9-1.11s-.28-1.11-1-1.11H171Z"/><path class="cls-3" d="M175,148.39h1.24v5.45c0,.53.21.79.65.79s.66-.26.66-.79v-5.45h1.24v5.4a1.9,1.9,0,1,1-3.79,0Z"/><path class="cls-3" d="M182.48,150.17c0-.62-.38-.8-.66-.8s-.61.26-.61.71c0,1.23,2.51,1.82,2.51,3.78a1.77,1.77,0,0,1-1.95,1.85,1.9,1.9,0,0,1-1.86-2l1.18-.17c0,.73.34,1.09.73,1.09a.64.64,0,0,0,.72-.66c0-1.43-2.51-1.81-2.51-3.88a1.69,1.69,0,0,1,1.91-1.8,1.73,1.73,0,0,1,1.72,1.75Z"/><path class="cls-3" d="M185.09,155.61v-7.22h1.23v7.22Z"/><path class="cls-3" d="M188,155.61v-7.22h1.15l1.5,4.13h0v-4.13h1.12v7.22h-1.08l-1.57-4.51h0v4.51Z"/><path class="cls-3" d="M193.2,155.61v-7.22h3.31v1.08h-2.07v1.86H196v1.08h-1.59v2.12h2.21v1.08Z"/><path class="cls-3" d="M200.14,150.17c0-.62-.38-.8-.66-.8s-.61.26-.61.71c0,1.23,2.51,1.82,2.51,3.78a1.77,1.77,0,0,1-1.95,1.85,1.9,1.9,0,0,1-1.86-2l1.18-.17c.05.73.34,1.09.73,1.09a.64.64,0,0,0,.72-.66c0-1.43-2.51-1.81-2.51-3.88a1.69,1.69,0,0,1,1.91-1.8,1.73,1.73,0,0,1,1.72,1.75Z"/><path class="cls-3" d="M204.83,150.17c-.05-.62-.38-.8-.66-.8s-.61.26-.61.71c0,1.23,2.51,1.82,2.51,3.78a1.77,1.77,0,0,1-2,1.85,1.9,1.9,0,0,1-1.85-2l1.18-.17c.05.73.34,1.09.73,1.09a.64.64,0,0,0,.72-.66c0-1.43-2.51-1.81-2.51-3.88a1.69,1.69,0,0,1,1.91-1.8A1.73,1.73,0,0,1,206,150Z"/><path class="cls-3" d="M161.89,167.61v-7.22h1.24v7.22Z"/><path class="cls-3" d="M164.75,167.61v-7.22h1.15l1.51,4.13h0v-4.13h1.12v7.22h-1.08l-1.58-4.51h0v4.51Z"/><path class="cls-3" d="M170.72,161.47h-1.2v-1.08h3.64v1.08H172v6.14h-1.24Z"/><path class="cls-3" d="M174.14,167.61v-7.22h3.32v1.08h-2.08v1.86H177v1.08h-1.6v2.12h2.22v1.08Z"/><path class="cls-3" d="M178.77,167.61v-7.22H180v6.14h2v1.08Z"/><path class="cls-3" d="M182.91,167.61v-7.22h1.24v6.14h1.95v1.08Z"/><path class="cls-3" d="M187.28,167.61v-7.22h1.24v7.22Z"/><path class="cls-3" d="M191.85,164h2v3.66h-.6l-.23-.54a1.44,1.44,0,0,1-1.25.64,1.65,1.65,0,0,1-1.66-1.85v-3.72a1.71,1.71,0,0,1,1.82-1.85,1.8,1.8,0,0,1,1.86,2v.46h-1.18c0-1.08-.22-1.36-.71-1.36-.3,0-.55.18-.55.79v3.71c0,.46.15.76.58.76s.68-.28.68-1v-.7h-.79Z"/><path class="cls-3" d="M195.39,167.61v-7.22h3.32v1.08h-2.08v1.86h1.6v1.08h-1.6v2.12h2.22v1.08Z"/><path class="cls-3" d="M200.08,167.61v-7.22h1.15l1.51,4.13h0v-4.13h1.12v7.22H202.8l-1.58-4.51h0v4.51Z"/><path class="cls-3" d="M207.83,162.8v-.56c0-.61-.28-.87-.6-.87-.5,0-.66.26-.66.8v3.66c0,.54.16.8.66.8s.6-.26.6-.73V165h1.24v.83a1.87,1.87,0,0,1-3.74,0v-3.72a1.73,1.73,0,0,1,1.9-1.85,1.79,1.79,0,0,1,1.84,2v.53Z"/><path class="cls-3" d="M210.58,167.61v-7.22h3.32v1.08h-2.08v1.86h1.6v1.08h-1.6v2.12H214v1.08Z"/><path class="cls-3" d="M110.24,192.68h2.58a2.36,2.36,0,0,1,2.68,2.68,2.16,2.16,0,0,1-1.2,2.11,2.32,2.32,0,0,1,1.4,2.4c0,1.66-.74,2.93-2.72,2.93h-2.74Zm1.73,4.15h.64a1.15,1.15,0,0,0,1.16-1.29c0-.94-.37-1.43-1.14-1.43H112Zm0,4.54h.73c.93,0,1.26-.54,1.26-1.56s-.39-1.55-1.42-1.55H112Z"/><path class="cls-3" d="M117.59,192.68h1.73v7.64c0,.74.3,1.1.93,1.1s.92-.36.92-1.1v-7.64h1.74v7.57a2.66,2.66,0,1,1-5.32,0Z"/><path class="cls-3" d="M128.1,195.18c-.07-.87-.53-1.13-.92-1.13-.56,0-.87.37-.87,1,0,1.72,3.53,2.55,3.53,5.29a2.48,2.48,0,0,1-2.75,2.6,2.66,2.66,0,0,1-2.6-2.81l1.65-.23c.07,1,.48,1.52,1,1.52a.89.89,0,0,0,1-.92c0-2-3.53-2.54-3.53-5.44a2.37,2.37,0,0,1,2.69-2.52,2.43,2.43,0,0,1,2.41,2.45Z"/><path class="cls-3" d="M131.74,202.8V192.68h1.74V202.8Z"/><path class="cls-3" d="M135.75,202.8V192.68h1.61l2.11,5.79h0v-5.79h1.57V202.8h-1.51l-2.22-6.32h0v6.32Z"/><path class="cls-3" d="M143.1,202.8V192.68h4.65v1.51h-2.92v2.61h2.24v1.51h-2.24v3h3.11v1.52Z"/><path class="cls-3" d="M152.83,195.18c-.07-.87-.53-1.13-.93-1.13-.56,0-.87.37-.87,1,0,1.72,3.53,2.55,3.53,5.29a2.48,2.48,0,0,1-2.74,2.6,2.67,2.67,0,0,1-2.61-2.81l1.66-.23c.07,1,.47,1.52,1,1.52a.89.89,0,0,0,1-.92c0-2-3.53-2.54-3.53-5.44a2.37,2.37,0,0,1,2.69-2.52,2.42,2.42,0,0,1,2.41,2.45Z"/><path class="cls-3" d="M159.39,195.18c-.07-.87-.53-1.13-.92-1.13-.56,0-.87.37-.87,1,0,1.72,3.53,2.55,3.53,5.29a2.48,2.48,0,0,1-2.75,2.6,2.66,2.66,0,0,1-2.6-2.81l1.65-.23c.07,1,.48,1.52,1,1.52a.89.89,0,0,0,1-.92c0-2-3.53-2.54-3.53-5.44a2.37,2.37,0,0,1,2.69-2.52,2.43,2.43,0,0,1,2.41,2.45Z"/><path class="cls-4" d="M119.91,97.8h3.32c2.3,0,3.52,1.26,3.52,3.93v5.14c0,2.67-1.22,3.93-3.52,3.93h-3.32ZM122.15,109h.77c1.19,0,1.6-.45,1.6-1.81v-5.69c0-1.37-.41-1.82-1.6-1.82h-.77Z"/><path class="cls-4" d="M130.66,110.8H128.5l2.39-13h2.78l2.39,13H133.9l-.4-2.88h-2.44Zm.72-4.83h1.8l-.88-5.58h0Z"/><path class="cls-4" d="M139.1,99.74h-2.16V97.8h6.55v1.94h-2.16V110.8H139.1Z"/><path class="cls-4" d="M146.55,110.8h-2.16l2.4-13h2.77l2.39,13h-2.16l-.39-2.88H147Zm.72-4.83h1.8l-.88-5.58h0Z"/><path class="cls-4" d="M111.31,119.78c-.09-1.11-.68-1.44-1.19-1.44-.72,0-1.11.47-1.11,1.28,0,2.21,4.53,3.28,4.53,6.81,0,2.14-1.44,3.33-3.53,3.33s-3.26-1.66-3.35-3.6l2.13-.31c.09,1.31.61,2,1.33,2a1.15,1.15,0,0,0,1.3-1.19c0-2.57-4.54-3.25-4.54-7,0-2.07,1.26-3.24,3.46-3.24,1.82,0,2.9,1.31,3.09,3.15Z"/><path class="cls-4" d="M120.18,120.92v-1c0-1.1-.5-1.57-1.08-1.57-.9,0-1.18.47-1.18,1.44v6.59c0,1,.28,1.44,1.18,1.44s1.08-.47,1.08-1.31v-1.57h2.24v1.5a3.37,3.37,0,0,1-6.74,0v-6.7a3.12,3.12,0,0,1,3.42-3.33c2.24,0,3.32,1.62,3.32,3.56v1Z"/><path class="cls-4" d="M125.44,129.58v-13h2.23v13Z"/><path class="cls-4" d="M130.59,129.58v-13h6v1.94h-3.74v3.35h2.88v1.95h-2.88v3.81h4v2Z"/><path class="cls-4" d="M139,129.58v-13h2.07l2.72,7.43h0v-7.43h2v13h-1.94l-2.85-8.12h0v8.12Z"/><path class="cls-4" d="M153,120.92v-1c0-1.1-.5-1.57-1.08-1.57-.9,0-1.19.47-1.19,1.44v6.59c0,1,.29,1.44,1.19,1.44s1.08-.47,1.08-1.31v-1.57h2.23v1.5a3.09,3.09,0,0,1-3.31,3.33,3.13,3.13,0,0,1-3.42-3.33v-6.7a3.12,3.12,0,0,1,3.42-3.33c2.23,0,3.31,1.62,3.31,3.56v1Z"/><path class="cls-4" d="M157.93,129.58v-13h6v1.94h-3.75v3.35H163v1.95h-2.88v3.81h4v2Z"/><circle class="cls-4" cx="135.72" cy="12.52" r="1.65"/><circle class="cls-4" cx="135.72" cy="168.35" r="1.65"/><circle class="cls-4" cx="225.07" cy="168.8" r="1.65"/><circle class="cls-4" cx="44.89" cy="168.35" r="1.65"/><circle class="cls-4" cx="90.68" cy="90.12" r="1.65"/><circle class="cls-4" cx="180.32" cy="90.57" r="1.65"/><path class="cls-5" d="M133.39,219.39h3.66a6.2,6.2,0,0,1,1.51-3.6,4.73,4.73,0,1,0-6.74-.06A6.17,6.17,0,0,1,133.39,219.39Z"/><line class="cls-5" x1="133.02" y1="220.78" x2="137.42" y2="220.78"/><line class="cls-5" x1="133.02" y1="222.17" x2="137.42" y2="222.17"/><line class="cls-5" x1="133.62" y1="223.56" x2="136.82" y2="223.56"/><path class="cls-5" d="M137,212.75a1.89,1.89,0,0,1-1.75.81h0a1.87,1.87,0,0,1-1.75-.81,15.32,15.32,0,0,1,1,6.64H136A15.16,15.16,0,0,1,137,212.75Z"/><path class="cls-5" d="M135.16,224.9v7.24a4.28,4.28,0,0,0-3.42-2.12c-2.69-.42-6.12,1.6-9.54,1-3.06-.55-3.84-2-3.84-2l4.46-10.86c2.31,1.16,4.09.65,6-.14a12.33,12.33,0,0,1,2.36-.78"/><path class="cls-5" d="M135.16,224.9h0v7.24a4.31,4.31,0,0,1,3.43-2.12c2.69-.42,6.12,1.6,9.54,1,3.06-.55,3.83-2,3.83-2l-4.46-10.86c-2.3,1.16-4.08.65-6-.14a12.89,12.89,0,0,0-2.32-.77"/><path class="cls-5" d="M152,232.48s-.78,1.42-3.84,2c-3.41.61-6.84-1.41-9.54-1a4.28,4.28,0,0,0-3.42,2.12,4.26,4.26,0,0,0-3.42-2.12c-2.7-.42-6.12,1.6-9.54,1-3.06-.55-3.84-2-3.84-2"/><path class="cls-5" d="M152,230.75s-.77,1.43-3.83,2c-3.42.61-6.85-1.41-9.54-1a4.29,4.29,0,0,0-3.43,2.11,4.26,4.26,0,0,0-3.42-2.11c-2.69-.43-6.12,1.59-9.54,1-3.06-.54-3.84-2-3.84-2"/><line class="cls-5" x1="205.12" y1="34.91" x2="231.28" y2="34.91"/><polyline class="cls-5" points="206.87 47 211.54 41.7 215.04 47.79 220.58 38.87 222.31 42.31 223.69 40.44 225.24 44 229.45 37.97"/><path class="cls-5" d="M230.11,32.38H206.28a1.16,1.16,0,0,0-1.16,1.17V50a1.16,1.16,0,0,0,1.16,1.17h23.83A1.17,1.17,0,0,0,231.28,50V33.55A1.17,1.17,0,0,0,230.11,32.38Z"/><path class="cls-5" d="M218.16,29.77h0a.85.85,0,0,1,.85.85v1.76a0,0,0,0,1,0,0h-1.7a0,0,0,0,1,0,0V30.62a.85.85,0,0,1,.85-.85Z"/><path class="cls-5" d="M219.39,51.2l5.47,9.48A.65.65,0,0,0,226,60l-5.1-8.83h-1.49Z"/><path class="cls-5" d="M215.43,51.2,210.33,60a.65.65,0,0,0,1.12.65l5.47-9.48h-1.49Z"/><rect class="cls-6" x="35.57" y="34.77" width="27.93" height="20.95" rx="1.12" ry="1.12"/><path class="cls-5" d="M49.78,45.72V43.85H48.72a3.62,3.62,0,0,0-.33-.81l.75-.75L47.82,41l-.76.75a3.74,3.74,0,0,0-.8-.33V40.33H44.39v1.06a3.74,3.74,0,0,0-.8.33L42.84,41l-1.33,1.32.76.75a3.23,3.23,0,0,0-.34.81H40.87v1.87h1.06a3.32,3.32,0,0,0,.34.8l-.76.75,1.33,1.32.75-.75a2.94,2.94,0,0,0,.8.33v1.07h1.87V48.17a2.94,2.94,0,0,0,.8-.33l.76.75,1.32-1.32-.75-.75a3.74,3.74,0,0,0,.33-.8Z"/><circle class="cls-6" cx="45.33" cy="44.78" r="1.25"/><path class="cls-5" d="M57.85,42.92V41.51H57a2.52,2.52,0,0,0-.25-.61l.57-.57-1-1-.57.57a2.52,2.52,0,0,0-.61-.25v-.81H53.77v.81a2.52,2.52,0,0,0-.61.25l-.57-.57-1,1,.57.57a2.52,2.52,0,0,0-.25.61h-.8v1.41h.8a2.7,2.7,0,0,0,.25.61l-.57.57,1,1,.57-.57a3,3,0,0,0,.61.25v.8h1.41v-.8a3,3,0,0,0,.61-.25l.57.57,1-1-.57-.57a2.7,2.7,0,0,0,.25-.61Z"/><circle class="cls-6" cx="54.48" cy="42.21" r="0.84"/><line class="cls-6" x1="47.5" y1="53.59" x2="51.57" y2="53.59"/><line class="cls-6" x1="46.38" y1="55.72" x2="46.38" y2="59.79"/><line class="cls-6" x1="52.69" y1="55.72" x2="52.69" y2="59.79"/><line class="cls-6" x1="43.76" y1="59.88" x2="55.31" y2="59.88"/><line class="cls-6" x1="35.57" y1="51.57" x2="63.5" y2="51.57"/><line class="cls-6" x1="35.57" y1="36.76" x2="63.5" y2="36.76"/></g></g></g></svg>