<svg xmlns="http://www.w3.org/2000/svg" viewBox="0 0 59.96 59.96"><defs><style>.cls-1{fill:#fff;}</style></defs><title>nav-icon-education</title><g id="Layer_2" data-name="Layer 2"><g id="Layer_1-2" data-name="Layer 1"><path class="cls-1" d="M30,0A30,30,0,1,0,60,30,30,30,0,0,0,30,0Zm0,59A29,29,0,1,1,59,30,29,29,0,0,1,30,59Z"/><path class="cls-1" d="M48.73,15.44H11.23A1.19,1.19,0,0,0,10,16.62V43.34a1.19,1.19,0,0,0,1.19,1.18H26l-2.24,4.92a1.58,1.58,0,0,0,.16,1.39,2.21,2.21,0,0,0,1.94.75h8.28a2.22,2.22,0,0,0,1.94-.75,1.61,1.61,0,0,0,.14-1.42L34,44.52H48.73a1.18,1.18,0,0,0,1.19-1.18V16.62A1.18,1.18,0,0,0,48.73,15.44Zm-37.5,1h37.5a.19.19,0,0,1,.19.18V37.5H11V16.62A.19.19,0,0,1,11.23,16.44Zm24,33.35a.56.56,0,0,1-.05.46c-.14.21-.54.33-1.11.33H25.83a1.44,1.44,0,0,1-1.12-.32.64.64,0,0,1-.06-.44h0l2.41-5.3h5.81Zm13.46-6.27H11.23a.19.19,0,0,1-.19-.18V38.5H48.92v4.84A.19.19,0,0,1,48.73,43.52Z"/><path class="cls-1" d="M38,31.44h.88v1h1v-1H43v1h1v-1h.91v-1H38.84l-.32-1.57h6.86l1.12-4.76h-9l-.2-1H34.55v1h2Zm7.21-6.33-.65,2.76H38.31l-.57-2.76Z"/><path class="cls-1" d="M18,32.48a4.81,4.81,0,1,0-4.81-4.81A4.82,4.82,0,0,0,18,32.48Zm0-8.62a3.81,3.81,0,1,1-3.81,3.81A3.82,3.82,0,0,1,18,23.86Z"/><path class="cls-1" d="M17.12,29.7a.13.13,0,0,0,.09,0l2.63-1.87a.14.14,0,0,0,.05-.11.11.11,0,0,0-.06-.1l-2.64-1.66a.12.12,0,0,0-.13,0A.11.11,0,0,0,17,26v3.54A.12.12,0,0,0,17.12,29.7Z"/><path class="cls-1" d="M28.55,29.94h.27a3.58,3.58,0,0,0,2.05-.66l2.92,3.38.76-.65L31.6,28.6a3.56,3.56,0,0,0,.79-2h0a3.58,3.58,0,1,0-3.84,3.31Zm.26-6.15H29a2.55,2.55,0,1,1-.2,0Z"/><rect class="cls-1" x="28.35" y="40.75" width="3.23" height="1"/></g></g></svg>