<svg xmlns="http://www.w3.org/2000/svg" viewBox="0 0 59.96 59.96"><defs><style>.cls-1{fill:#fff;}</style></defs><title>nav-icon-hashtag</title><g id="Layer_2" data-name="Layer 2"><g id="Layer_1-2" data-name="Layer 1"><path class="cls-1" d="M30,0A30,30,0,1,0,60,30,30,30,0,0,0,30,0Zm0,59A29,29,0,1,1,59,30,29,29,0,0,1,30,59Z"/><polygon class="cls-1" points="41.7 14.45 42.84 14.45 42.84 18.08 43.66 18.08 43.66 14.45 44.8 14.45 44.8 13.75 41.7 13.75 41.7 14.45"/><polygon class="cls-1" points="47.44 16.78 47.43 16.78 46.59 13.75 45.43 13.75 45.43 18.08 46.15 18.08 46.15 14.68 46.16 14.68 47.12 18.08 47.75 18.08 48.72 14.68 48.73 14.68 48.73 18.08 49.45 18.08 49.45 13.75 48.28 13.75 47.44 16.78"/><path class="cls-1" d="M39.93,13.25H34.82L33.46,23.38h-5.9l1.36-10.13H23.8L22.44,23.38H17.67v5H21.8L21.18,33H16.41v5h4.13L19.18,48.19H24.3l1.35-10.13h5.9L30.2,48.19h5.12l1.35-10.13h4.78V33H37.32l.61-4.64h4.78v-5H38.58Zm1.78,11.13v3H37.06L36.18,34h4.27v3H35.8L34.44,47.19h-3.1L32.7,37.06H24.78L23.42,47.19H20.33l1.35-10.13H17.41V34h4.65l.88-6.64H18.67v-3h4.65l1.35-10.13h3.1L26.42,24.38h7.92l1.35-10.13h3.1L37.44,24.38Z"/><path class="cls-1" d="M25.16,34h7.92L34,27.4H26Zm1.76-5.64h5.9L32.2,33H26.3Z"/></g></g></svg>