<svg xmlns="http://www.w3.org/2000/svg" viewBox="0 0 59.96 59.96"><defs><style>.cls-1{fill:#fff;}.cls-2{fill:#b30838;}.cls-3{fill:#252729;}</style></defs><title>nav-icon-ideas</title><g id="Layer_2" data-name="Layer 2"><g id="Layer_1-2" data-name="Layer 1"><path class="cls-1" d="M30,60A30,30,0,1,1,60,30,30,30,0,0,1,30,60ZM30,1A29,29,0,1,0,59,30,29,29,0,0,0,30,1Z"/><g id="_Group_" data-name="&lt;Group&gt;"><path class="cls-1" d="M34.93,46.14H25.62a.49.49,0,0,1-.5-.49,25,25,0,0,0-.31-4,11.61,11.61,0,0,0-1.44-3.51c-.28-.45-.57-.89-.87-1.33-.47-.7-1-1.43-1.38-2.2A10.52,10.52,0,0,1,30.05,19.2h.45a10.52,10.52,0,0,1,8.93,15.43c-.42.77-.91,1.5-1.38,2.2-.3.44-.59.88-.87,1.33a11.61,11.61,0,0,0-1.44,3.51,25,25,0,0,0-.31,4A.49.49,0,0,1,34.93,46.14Zm-8.83-1h8.35a21.09,21.09,0,0,1,.32-3.69,12.51,12.51,0,0,1,1.56-3.82c.28-.46.59-.91.89-1.36a23.21,23.21,0,0,0,1.32-2.11,9.38,9.38,0,1,0-16.53,0,23.21,23.21,0,0,0,1.32,2.11c.3.45.61.9.89,1.36a12.51,12.51,0,0,1,1.56,3.82A22.15,22.15,0,0,1,26.1,45.14Z"/></g><g id="_Group_2" data-name="&lt;Group&gt;"><path class="cls-1" d="M34.06,50.22h0l-7.33,0a.51.51,0,0,1-.5-.51.48.48,0,0,1,.51-.49l7.33,0a.5.5,0,0,1,0,1Z"/></g><path class="cls-1" d="M28.33,54.13l.21-.45-.23.44a3.31,3.31,0,0,1-1.87-2.54l-.81-5.79a.51.51,0,0,1,.42-.57.52.52,0,0,1,.57.43l.81,5.79a2.32,2.32,0,0,0,1.29,1.77Z"/><path class="cls-1" d="M30.54,55a.45.45,0,0,1-.2,0l-2-.88a.5.5,0,0,1-.26-.66.5.5,0,0,1,.66-.26l1.81.79L32,53.23a2.31,2.31,0,0,0,1.34-1.79l.82-5.79a.51.51,0,0,1,.56-.43.52.52,0,0,1,.43.57l-.82,5.79a3.3,3.3,0,0,1-1.85,2.53L30.76,55A.42.42,0,0,1,30.54,55Z"/><path class="cls-1" d="M31.15,29.64a.51.51,0,0,1-.47-.31.5.5,0,0,1,.28-.65l18.23-7.3a.5.5,0,0,1,.65.27.51.51,0,0,1-.28.65L31.33,29.6A.39.39,0,0,1,31.15,29.64Z"/><path class="cls-1" d="M30.22,29.18a.5.5,0,0,1-.5-.5V7.9a.5.5,0,0,1,.5-.5.5.5,0,0,1,.5.5V28.68A.51.51,0,0,1,30.22,29.18Z"/><line class="cls-2" x1="31.17" y1="30.59" x2="44.63" y2="43.65"/><rect class="cls-1" x="37.4" y="27.74" width="1" height="18.76" transform="translate(-15.13 38.47) rotate(-45.86)"/><path class="cls-1" d="M29.27,29.64a.39.39,0,0,1-.18,0L10.86,22.3a.51.51,0,0,1-.28-.65.5.5,0,0,1,.65-.27l18.23,7.3a.5.5,0,0,1,.28.65A.51.51,0,0,1,29.27,29.64Z"/><line class="cls-2" x1="29.25" y1="30.59" x2="15.79" y2="43.65"/><rect class="cls-1" x="13.14" y="36.62" width="18.76" height="1" transform="translate(-19.5 26.19) rotate(-44.17)"/><circle class="cls-3" cx="30.24" cy="29.85" r="3.26"/><path class="cls-1" d="M30.24,33.62a3.82,3.82,0,0,1-1.2-.2,3.76,3.76,0,0,1-2.17-1.9,3.72,3.72,0,0,1-.2-2.87,3.76,3.76,0,1,1,5.24,4.57h0A3.77,3.77,0,0,1,30.24,33.62Zm0-6.53a2.71,2.71,0,0,0-1.23.29,2.75,2.75,0,0,0-1.24,3.7,2.76,2.76,0,0,0,3.7,1.25,2.77,2.77,0,0,0-1.23-5.24Z"/><circle class="cls-3" cx="30.28" cy="7.89" r="1.87"/><path class="cls-1" d="M30.28,10.26A2.37,2.37,0,1,1,32.64,7.9,2.37,2.37,0,0,1,30.28,10.26Zm0-3.73A1.37,1.37,0,1,0,31.64,7.9,1.37,1.37,0,0,0,30.28,6.53Z"/><circle class="cls-3" cx="49.37" cy="21.84" r="1.87"/><path class="cls-1" d="M49.37,24.21a2.37,2.37,0,1,1,2.37-2.37A2.37,2.37,0,0,1,49.37,24.21Zm0-3.73a1.37,1.37,0,0,0,0,2.73,1.37,1.37,0,1,0,0-2.73Z"/><circle class="cls-3" cx="44.63" cy="43.65" r="1.87"/><path class="cls-1" d="M44.63,46A2.37,2.37,0,1,1,47,43.65,2.37,2.37,0,0,1,44.63,46Zm0-3.73A1.37,1.37,0,1,0,46,43.65,1.36,1.36,0,0,0,44.63,42.29Z"/><circle class="cls-3" cx="15.79" cy="43.65" r="1.87"/><path class="cls-1" d="M15.79,46a2.37,2.37,0,1,1,2.36-2.37A2.37,2.37,0,0,1,15.79,46Zm0-3.73a1.37,1.37,0,1,0,1.36,1.36A1.37,1.37,0,0,0,15.79,42.29Z"/><circle class="cls-3" cx="11.05" cy="21.84" r="1.87"/><path class="cls-1" d="M11.05,24.21a2.37,2.37,0,1,1,2.36-2.37A2.38,2.38,0,0,1,11.05,24.21Zm0-3.73a1.37,1.37,0,1,0,1.36,1.36A1.36,1.36,0,0,0,11.05,20.48Z"/></g></g></svg>