<svg xmlns="http://www.w3.org/2000/svg" viewBox="0 0 59.96 59.96"><defs><style>.cls-1{fill:#fff;}</style></defs><title>nav-icon-uber</title><g id="Layer_2" data-name="Layer 2"><g id="Layer_1-2" data-name="Layer 1"><path class="cls-1" d="M30,60A30,30,0,1,1,60,30,30,30,0,0,1,30,60ZM30,1A29,29,0,1,0,59,30,29,29,0,0,0,30,1Z"/><path class="cls-1" d="M18.46,36.66a2.85,2.85,0,1,1,2.85-2.85A2.86,2.86,0,0,1,18.46,36.66Zm0-4.7a1.85,1.85,0,1,0,1.85,1.85A1.85,1.85,0,0,0,18.46,32Z"/><path class="cls-1" d="M18,46.56H16a1.36,1.36,0,0,1-1-.41,2.42,2.42,0,0,1-.53-1.58V42a.51.51,0,0,1,.5-.5.5.5,0,0,1,.5.5v2.56a1.51,1.51,0,0,0,.25.88.42.42,0,0,0,.29.1h2c.16,0,1-.05,1-.84V42.2a.5.5,0,0,1,.5-.5.51.51,0,0,1,.5.5v2.52A1.87,1.87,0,0,1,18,46.56Z"/><path class="cls-1" d="M45,42.52H30.12a.34.34,0,0,1-.14,0,.32.32,0,0,1-.14,0H14.94c-3.3,0-3.45-2-3.46-2.08V32.21H9.38c-.9,0-1.22-1.19-1.22-2.21A2.25,2.25,0,0,1,9,28.46a.48.48,0,0,1,.32-.13h2.45l4.71-11.69c0-.06.76-2.57,4.24-2.57H39.28c3.48,0,4.22,2.51,4.25,2.62l4.7,11.64h2.44a.51.51,0,0,1,.33.13A2.29,2.29,0,0,1,51.8,30c0,1-.32,2.21-1.22,2.21h-2.1v8.2C48.47,40.52,48.32,42.52,45,42.52ZM12,31.21a.5.5,0,0,1,.5.5v8.7s.15,1.11,2.46,1.11h14.9l.14,0,.14,0H45c2.33,0,2.46-1.13,2.46-1.14V31.71a.5.5,0,0,1,.5-.5h2.6A3.14,3.14,0,0,0,50.8,30a1.17,1.17,0,0,0-.34-.67H47.89a.49.49,0,0,1-.46-.31L42.58,17c0-.13-.61-1.94-3.3-1.94H20.69c-2.7,0-3.27,1.81-3.29,1.89L12.54,29a.5.5,0,0,1-.47.31H9.5a1.17,1.17,0,0,0-.34.67,2.16,2.16,0,0,0,.28,1.22Z"/><path class="cls-1" d="M41.5,36.66a2.85,2.85,0,1,1,2.86-2.85A2.86,2.86,0,0,1,41.5,36.66Zm0-4.7a1.85,1.85,0,1,0,1.86,1.85A1.85,1.85,0,0,0,41.5,32Z"/><path class="cls-1" d="M43.85,28.36H16.11a.52.52,0,0,1-.41-.21.51.51,0,0,1-.06-.46l3.26-9.17a1.83,1.83,0,0,1,1.73-1.24h18.7a1.85,1.85,0,0,1,1.74,1.25l3.25,9.16a.5.5,0,0,1-.47.67Zm-13.68-1h13l-3-8.51a.83.83,0,0,0-.79-.57H20.63a.85.85,0,0,0-.79.57l-3,8.51Z"/><path class="cls-1" d="M44,46.56H42a1.87,1.87,0,0,1-2-1.84V42.2a.5.5,0,0,1,.5-.5.51.51,0,0,1,.5.5v2.52c0,.79.82.84,1,.84h2a.39.39,0,0,0,.28-.1,1.5,1.5,0,0,0,.25-.87V42a.5.5,0,0,1,.5-.5.51.51,0,0,1,.5.5v2.56A2.41,2.41,0,0,1,45,46.15,1.36,1.36,0,0,1,44,46.56Z"/><path class="cls-1" d="M34.77,34.87H25.2a.5.5,0,0,1-.5-.5.5.5,0,0,1,.5-.5h9.57a.5.5,0,0,1,.5.5A.51.51,0,0,1,34.77,34.87Z"/><path class="cls-1" d="M24.18,15.07A.43.43,0,0,1,24,15a.49.49,0,0,1-.27-.65l1.21-3a.5.5,0,0,1,.47-.31h4.8a.5.5,0,0,1,.5.5.51.51,0,0,1-.5.5H25.73l-1.09,2.65A.5.5,0,0,1,24.18,15.07Z"/><path class="cls-1" d="M36.12,15.07a.51.51,0,0,1-.46-.31l-1.09-2.65H30.11a.5.5,0,0,1-.5-.5.5.5,0,0,1,.5-.5h4.8a.5.5,0,0,1,.46.31l1.22,3a.5.5,0,0,1-.28.65A.41.41,0,0,1,36.12,15.07Z"/><path class="cls-1" d="M39.26,27.8a.5.5,0,0,1-.5-.5,3.72,3.72,0,1,0-7.43,0,.51.51,0,0,1-.5.5.5.5,0,0,1-.5-.5,4.72,4.72,0,1,1,9.43,0A.5.5,0,0,1,39.26,27.8Z"/></g></g></svg>