<?xml version="1.0" encoding="utf-8"?>
<!-- Generator: Adobe Illustrator 22.1.0, SVG Export Plug-In . SVG Version: 6.00 Build 0)  -->
<svg version="1.1" id="Layer_1" xmlns="http://www.w3.org/2000/svg" xmlns:xlink="http://www.w3.org/1999/xlink" x="0px" y="0px"
	 viewBox="0 0 30.8 8.7" style="enable-background:new 0 0 30.8 8.7;" xml:space="preserve">
<style type="text/css">
	.st0{fill:#999999;}
</style>
<title>nav-home</title>
<g id="Layer_2_1_">
	<g id="Layer_1-2">
		<path class="st0" d="M0,8.7V0h1.5v3.5h1.6V0h1.5v8.7H3.1V4.8H1.5v3.8H0z"/>
		<path class="st0" d="M8.4,2.1C8.3,1,9.2,0,10.3-0.1c0.1,0,0.2,0,0.4,0c1.1-0.1,2.2,0.7,2.3,1.9c0,0.1,0,0.2,0,0.4v4.5
			C13,7.7,12.2,8.7,11,8.8c-0.1,0-0.2,0-0.4,0C9.5,8.9,8.5,8.1,8.4,6.9c0-0.1,0-0.2,0-0.4V2.1z M9.9,6.5c0,0.7,0.2,1,0.8,1
			s0.8-0.3,0.8-1V2.1c0-0.6-0.2-1-0.8-1s-0.8,0.3-0.8,1V6.5z"/>
		<path class="st0" d="M22.8,0v8.7h-1.3V1.9l0,0l-1.3,6.8h-0.7L18,1.9l0,0v6.8h-1.4V0h2l1,5.1l0,0l1-5.1L22.8,0z"/>
		<path class="st0" d="M26.5,8.7V0h4v1.3H28v2.2h1.9v1.3H28v2.5h2.7v1.3H26.5z"/>
	</g>
</g>
</svg>
