<?xml version="1.0" encoding="utf-8"?>
<!-- Generator: Adobe Illustrator 22.1.0, SVG Export Plug-In . SVG Version: 6.00 Build 0)  -->
<svg version="1.1" id="Layer_1" xmlns="http://www.w3.org/2000/svg" xmlns:xlink="http://www.w3.org/1999/xlink" x="0px" y="0px"
	 viewBox="0 0 50.3 8.9" style="enable-background:new 0 0 50.3 8.9;" xml:space="preserve">
<style type="text/css">
	.st0{fill:#999999;}
</style>
<title>nav-stories</title>
<g id="Layer_2_1_">
	<g id="Layer_1-2">
		<path class="st0" d="M3.1,2.3c-0.1-0.7-0.5-1-0.8-1S1.6,1.6,1.6,2.1c0,1.5,3,2.2,3,4.5c0.1,1.2-0.8,2.2-2,2.3c-0.1,0-0.2,0-0.4,0
			C1,8.9,0,7.9,0,6.6c0,0,0,0,0-0.1l1.4-0.2c0.1,0.9,0.4,1.3,0.9,1.3C2.7,7.7,3.1,7.4,3.2,7c0,0,0-0.1,0-0.1c0-1.7-3-2.2-3-4.6
			C0.1,1.1,0.9,0.1,2,0c0.2,0,0.3,0,0.5,0C3.6,0,4.5,1,4.5,2.1c0,0,0,0,0,0L3.1,2.3z"/>
		<path class="st0" d="M9,1.4H7.5V0.1h4.4v1.3h-1.4v7.4H9L9,1.4z"/>
		<path class="st0" d="M15.2,2.2C15.1,1.1,16,0.1,17.1,0c0.1,0,0.2,0,0.4,0c1.1-0.1,2.2,0.7,2.3,1.9c0,0.1,0,0.2,0,0.4v4.5
			c0.1,1.1-0.8,2.1-1.9,2.2c-0.1,0-0.2,0-0.4,0c-1.1,0.1-2.2-0.7-2.3-1.9c0-0.1,0-0.2,0-0.4V2.2z M16.6,6.7c0,0.7,0.2,1,0.8,1
			s0.8-0.3,0.8-1V2.3c0-0.6-0.2-1-0.8-1c-0.6,0-0.8,0.3-0.8,1V6.7z"/>
		<path class="st0" d="M25.1,8.8h-1.5V0.1h2.1c1.7,0,2.5,0.7,2.5,2.5c0,1.4-0.5,2-1,2.2l1.3,3.9h-1.5l-1.1-3.6c-0.3,0-0.5,0-0.8,0
			V8.8z M25.1,4h0.5c0.8,0,1.1-0.3,1.1-1.3s-0.3-1.3-1.1-1.3h-0.5V4z"/>
		<path class="st0" d="M32.2,8.8V0.1h1.5v8.7H32.2z"/>
		<path class="st0" d="M37.7,8.8V0.1h4v1.3h-2.5v2.2h1.9V5h-1.9v2.5h2.7v1.3H37.7z"/>
		<path class="st0" d="M48.2,2.3c-0.1-0.7-0.5-1-0.8-1s-0.7,0.3-0.7,0.9c0,1.5,3,2.2,3,4.6c0.1,1.2-0.8,2.2-2,2.2
			c-0.1,0-0.2,0-0.3,0c-1.3,0-2.3-1.1-2.2-2.3c0,0,0,0,0-0.1l1.4-0.2c0.1,0.9,0.4,1.3,0.9,1.3c0.4,0.1,0.8-0.2,0.9-0.7
			c0,0,0-0.1,0-0.1c0-1.7-3-2.2-3-4.6C45.1,1.1,45.9,0.1,47,0c0.2,0,0.3,0,0.5,0c1.1,0,2.1,1,2.1,2.1c0,0,0,0,0,0L48.2,2.3z"/>
	</g>
</g>
</svg>
