<svg xmlns="http://www.w3.org/2000/svg" viewBox="0 0 8.9 30.68"><defs><style>.cls-1{fill:#999;}</style></defs><title>nav-home</title><g id="Layer_2" data-name="Layer 2"><g id="Layer_1-2" data-name="Layer 1"><path class="cls-1" d="M8.78,30.68H.12V29.19H3.65V27.61H.12V26.12H8.78v1.49H4.94v1.58H8.78Z"/><path class="cls-1" d="M2.22,22.28A2.08,2.08,0,0,1,0,20a2.08,2.08,0,0,1,2.22-2.28H6.68A2.08,2.08,0,0,1,8.9,20a2.08,2.08,0,0,1-2.22,2.28Zm4.42-1.49c.65,0,1-.19,1-.79s-.31-.79-1-.79H2.25c-.64,0-1,.19-1,.79s.32.79,1,.79Z"/><path class="cls-1" d="M.12,7.92H8.78v1.3H2v0l6.77,1.34v.72L2,12.65v0H8.78V14H.12V12l5.06-1v0l-5.06-1Z"/><path class="cls-1" d="M8.78,4.15H.12v-4H1.41V2.66H3.65V.74H4.94V2.66H7.48V0h1.3Z"/></g></g></svg>