<svg xmlns="http://www.w3.org/2000/svg" viewBox="0 0 59.97 59.97"><defs><style>.cls-1{fill:#fff;}</style></defs><title>nav-icon-data</title><g id="Layer_2" data-name="Layer 2"><g id="Layer_1-2" data-name="Layer 1"><path class="cls-1" d="M30,0A30,30,0,1,0,60,30,30,30,0,0,0,30,0ZM17.41,47.8a.85.85,0,0,1-.84-.84V42.44H33.08V47h0a.85.85,0,0,1-.09.31.64.64,0,0,1-.1.13.81.81,0,0,1-.64.31H17.41ZM33.08,18.35H16.57V16.12a.85.85,0,0,1,.84-.84H32.24a.85.85,0,0,1,.84.84Zm-16.51,1H33.08v4.7l-5.56,2.79A3.53,3.53,0,1,0,24,32.54a6.38,6.38,0,0,0,3,3.89l1.87,1.2a26.87,26.87,0,0,1,3.59,2.48,1.36,1.36,0,0,1,.57,1v.29H16.57ZM43.24,33.21c-1.19-1-5.53-4.81-5.53-8.52a2.81,2.81,0,0,1,2.7-2.9,3,3,0,0,1,2.38,1.9l.45.92.45-.92a3.06,3.06,0,0,1,2.39-1.9,2.81,2.81,0,0,1,2.7,2.9C48.78,28.4,44.44,32.22,43.24,33.21Zm-2-.42-7.19-1.95V24.67L37,23.21a4.06,4.06,0,0,0-.28,1.48C36.71,27.91,39.42,31,41.27,32.79Zm-8.19-2.22-4.74-1.29c0-.06,0-.12,0-.18a3.49,3.49,0,0,0-.3-1.41l5-2.52Zm0,2.72-5-3,0,0,4.94,1.34ZM24.8,28.51a.49.49,0,0,0-.31.24,5.62,5.62,0,0,0-.5,1.51,5.51,5.51,0,0,0-.1.91v.29a2.53,2.53,0,1,1,3.47-2.36,2.37,2.37,0,0,1-.1.7L27,29.62h0l-1.79-1.06A.49.49,0,0,0,24.8,28.51ZM32.24,48.8a1.84,1.84,0,0,0,1.42-.67,1.81,1.81,0,0,0,.19-.29h0a1.92,1.92,0,0,0,.22-.69c0-.06,0-.13,0-.19V41.15a2.06,2.06,0,0,0-.21-.91,3.36,3.36,0,0,0-.67-.86h0a27.42,27.42,0,0,0-3.74-2.6c-.56-.35-1.18-.74-1.87-1.19A5.33,5.33,0,0,1,25,32a4.79,4.79,0,0,1-.06-.85,6.36,6.36,0,0,1,.08-.75,5.68,5.68,0,0,1,.2-.73L27.25,31c1.53.92,3.52,2.11,5.34,3.22l1.49.9h0c1,.6,1.83,1.13,2.44,1.53,1.5,1,2.59,3.85,3.24,8.58a.4.4,0,0,0,.07.18l5.47,9.22a28.75,28.75,0,0,1-12.16,4.21l-2.81-6.28a.5.5,0,0,0-.35-.28,25.18,25.18,0,0,1-7.8-3.43ZM46.14,54l-5.4-9.1c-.72-5.11-1.89-8-3.68-9.18-.73-.47-1.79-1.13-3-1.86v-2L43,34.31l.22.17.3-.23h0c.25-.2,6.23-4.79,6.23-9.56a3.81,3.81,0,0,0-3.7-3.9,3.65,3.65,0,0,0-2.84,1.71,3.62,3.62,0,0,0-2.83-1.71,3.57,3.57,0,0,0-1.52.35h0l-4.77,2.4V16.12a1.85,1.85,0,0,0-1.84-1.84H17.41a1.85,1.85,0,0,0-1.84,1.84V47a1.85,1.85,0,0,0,1.84,1.84h3a26.61,26.61,0,0,0,9.09,4.35l2.57,5.74c-.7,0-1.4.08-2.1.08A29,29,0,1,1,46.14,54Z"/><path class="cls-1" d="M24.82,43.36a1.8,1.8,0,1,0,1.8,1.79A1.79,1.79,0,0,0,24.82,43.36Zm0,2.59a.8.8,0,1,1,.8-.8A.8.8,0,0,1,24.82,46Z"/></g></g></svg>