<svg xmlns="http://www.w3.org/2000/svg" viewBox="0 0 19.69 331.01"><defs><style>.cls-1{fill:#999;}.cls-2{fill:#fff;}.cls-3{fill:#333;}.cls-4{fill:#d63430;}</style></defs><title>nav</title><g id="Layer_2" data-name="Layer 2"><g id="Layer_1-2" data-name="Layer 1"><path class="cls-1" d="M8.42,50.85a1.33,1.33,0,0,0-.94,1.29c0,.6.24,1,.8,1,1.24,0,1-3.72,3.32-3.72,1.48,0,2.22.93,2.22,2.53a2.86,2.86,0,0,1-1.71,2.7l-.5-1.14A1.65,1.65,0,0,0,12.74,52c0-.69-.26-1.22-1-1.22-1.42,0-1.14,3.72-3.36,3.72a2.1,2.1,0,0,1-2-2.33A2.63,2.63,0,0,1,8,49.59Z"/><path class="cls-1" d="M6.49,41.07H7.65V43h6.07v1.38H7.65v1.89H6.49Z"/><path class="cls-1" d="M13.82,35c0,2-1.35,3-3.71,3S6.4,37,6.4,35s1.35-3,3.71-3S13.82,33.07,13.82,35ZM7.56,35c0,1.13.86,1.65,2.55,1.65s2.55-.51,2.55-1.65-.86-1.65-2.55-1.65S7.56,33.91,7.56,35Z"/><path class="cls-1" d="M13.72,28.42H6.5V25.54a2,2,0,0,1,2.14-2.31,1.79,1.79,0,0,1,1.86,1.32L13.72,23v1.53l-2.94,1.36V27h2.94ZM9.66,27V26c0-1.08-.34-1.41-1-1.41s-1,.41-1,1.17V27Z"/><path class="cls-1" d="M13.72,19.06H6.5V17.68h7.22Z"/><path class="cls-1" d="M13.72,13.36H6.5V8.58H7.66V12H9.38V9.51h1.16V12h2V8.47h1.16Z"/><path class="cls-1" d="M8.42,1.4a1.33,1.33,0,0,0-.94,1.29c0,.6.24,1,.8,1C9.52,3.72,9.26,0,11.6,0c1.48,0,2.22.93,2.22,2.53a2.86,2.86,0,0,1-1.71,2.7l-.5-1.14a1.65,1.65,0,0,0,1.13-1.57c0-.69-.26-1.22-1-1.22C10.36,1.3,10.64,5,8.42,5a2.1,2.1,0,0,1-2-2.33A2.63,2.63,0,0,1,8,.14Z"/><path class="cls-2" d="M5.3,77.86c2.2,0,3.57,1.54,3.57,5.19s-1.37,5.2-3.57,5.2-3.57-1.54-3.57-5.2S3.1,77.86,5.3,77.86Zm0,9.52c1.64,0,2.51-1.26,2.51-4.33s-.87-4.32-2.51-4.32S2.79,80,2.79,83.05,3.66,87.38,5.3,87.38Z"/><path class="cls-2" d="M11.89,88.11v-.87h1.75V79l-1.94.2v-.66a9.17,9.17,0,0,0,1.94-.7h1v9.38h1.73v.87Z"/><path class="cls-2" d="M5.3,138.55c2.2,0,3.57,1.54,3.57,5.19s-1.37,5.2-3.57,5.2-3.57-1.54-3.57-5.2S3.1,138.55,5.3,138.55Zm0,9.52c1.64,0,2.51-1.26,2.51-4.33s-.87-4.32-2.51-4.32-2.51,1.26-2.51,4.32S3.66,148.07,5.3,148.07Z"/><path class="cls-2" d="M17.22,148.8H10.65v-1.06c1.75-3.55,5.52-3.76,5.52-6.48,0-1.17-.76-1.84-2.05-1.84a2.45,2.45,0,0,0-2.38,2.2l-1-.23a3.25,3.25,0,0,1,3.41-2.84c1.65,0,3.08.95,3.08,2.69,0,3.08-4.43,3.92-5.52,6.69h5.51Z"/><path class="cls-2" d="M5.3,199.24c2.2,0,3.57,1.54,3.57,5.19s-1.37,5.2-3.57,5.2-3.57-1.54-3.57-5.2S3.1,199.24,5.3,199.24Zm0,9.52c1.64,0,2.51-1.26,2.51-4.33s-.87-4.32-2.51-4.32-2.51,1.26-2.51,4.32S3.66,208.76,5.3,208.76Z"/><path class="cls-2" d="M11,207.08a3.56,3.56,0,0,0,2.77,1.68c1.49,0,2.39-.75,2.39-2,0-1.41-.84-2.27-2.86-2.27h-1v-.87h.61c2,0,2.88-.64,2.88-1.89A1.73,1.73,0,0,0,14,200.11a2.76,2.76,0,0,0-2.44,1.4l-.82-.56A3.75,3.75,0,0,1,14,199.24c1.8,0,2.92.92,2.92,2.52A2.35,2.35,0,0,1,15.3,204a2.71,2.71,0,0,1,1.93,2.69c0,1.72-1.33,2.94-3.45,2.94a4.16,4.16,0,0,1-3.58-2Z"/><path class="cls-2" d="M5.3,259.93c2.2,0,3.57,1.54,3.57,5.19s-1.37,5.2-3.57,5.2-3.57-1.54-3.57-5.2S3.1,259.93,5.3,259.93Zm0,9.52c1.64,0,2.51-1.26,2.51-4.33s-.87-4.32-2.51-4.32-2.51,1.26-2.51,4.32S3.66,269.45,5.3,269.45Z"/><path class="cls-2" d="M15.91,267.8v2.38h-1V267.8H10.25v-.87l4.18-6.86h1.48v6.86h1.74v.87Zm-4.59-.87H14.9v-5.8h0Z"/><path class="cls-2" d="M5.3,320.62c2.2,0,3.57,1.54,3.57,5.2S7.5,331,5.3,331s-3.57-1.54-3.57-5.19S3.1,320.62,5.3,320.62Zm0,9.52c1.64,0,2.51-1.26,2.51-4.32s-.87-4.33-2.51-4.33-2.51,1.26-2.51,4.33S3.66,330.14,5.3,330.14Z"/><path class="cls-2" d="M16.74,321.63H12.4l-.26,3.23a3,3,0,0,1,2.08-.82,3.15,3.15,0,0,1,3.23,3.41A3.37,3.37,0,0,1,14,331a3.59,3.59,0,0,1-3.22-1.93l.91-.48A2.64,2.64,0,0,0,14,330.14c1.33,0,2.41-.78,2.41-2.69a2.27,2.27,0,0,0-4.4-1l-.88-.19.45-5.48h5.18Z"/><rect class="cls-3" x="0.5" y="112.35" width="18.69" height="0.47"/><rect class="cls-4" y="111.85" width="19.69" height="1.47"/><rect class="cls-3" x="0.5" y="172.78" width="18.69" height="0.47"/><rect class="cls-4" y="172.28" width="19.69" height="1.47"/><rect class="cls-3" x="0.5" y="233.87" width="18.69" height="0.47"/><rect class="cls-4" y="233.37" width="19.69" height="1.47"/><rect class="cls-3" x="0.5" y="293.96" width="18.69" height="0.47"/><rect class="cls-4" y="293.46" width="19.69" height="1.47"/></g></g></svg>