<svg xmlns="http://www.w3.org/2000/svg" viewBox="0 0 145.56 35.57"><defs><style>.cls-1{fill:#636466;}.cls-2{fill:#fff;}</style></defs><title>otv-logo-footer</title><g id="Layer_2" data-name="Layer 2"><g id="Layer_1-2" data-name="Layer 1"><polygon class="cls-1" points="55.33 19.92 54.15 27.64 52.98 19.92 49.52 0.6 44.38 0.6 51.51 34.98 56.72 34.98 63.85 0.6 58.63 0.6 55.33 19.92"/><path class="cls-1" d="M76.78.16c-5.44,0-9,4-9,10.21V25.43c0,6.25,3.6,10.14,9,10.14s8.52-3.82,8.52-10.06V22.93H80.6v3.31c0,2.72-1.18,4.48-3.75,4.48S73,29,73,26.24V18.38H85.3v-8C85.3,4.2,82.22.16,76.78.16ZM80.6,14.93H73V9.56C73,6.85,74.21,5,76.85,5S80.6,6.85,80.6,9.56Z"/><path class="cls-1" d="M96.17,5.74,95.8.6H91.18V35h5.36V10.23c0-3,1.91-4.71,7.49-4.19V.38C100.29-.13,97.64,1.26,96.17,5.74Z"/><path class="cls-1" d="M115.37,21.45H119v6.3a3.36,3.36,0,0,1-3.55,3.61,3.33,3.33,0,0,1-3.56-3.61V7.8a3.35,3.35,0,0,1,3.56-3.51,3.2,3.2,0,0,1,3.4,3.46v4.08h4.39V8.31C123.22,3,120.38,0,115.43,0s-8.21,3.34-8.21,8.31V27.25c0,5,3,8.3,7.54,8.3,2.57,0,4.53-.93,5.57-2.62l.81,2h2.34V17.41h-8.11Z"/><path class="cls-1" d="M145.56,18.38v-8C145.56,4.2,142.48.16,137,.16s-9,4-9,10.21V25.43c0,6.25,3.6,10.14,9,10.14s8.52-3.82,8.52-10.06V22.93h-4.7v3.31c0,2.72-1.18,4.48-3.75,4.48s-3.89-1.76-3.89-4.48V18.38ZM133.22,9.56c0-2.71,1.25-4.55,3.89-4.55s3.75,1.84,3.75,4.55v5.37h-7.64Z"/><path class="cls-2" d="M3,15.94a2.93,2.93,0,0,1-3-3.06V3.33A3,3,0,0,1,3,.27a2.93,2.93,0,0,1,3,3.06v9.55A2.91,2.91,0,0,1,3,15.94ZM3.54,3.17A.55.55,0,0,0,3,2.56a.55.55,0,0,0-.57.61V13a.56.56,0,0,0,.57.62A.56.56,0,0,0,3.54,13Z"/><path class="cls-2" d="M11.83,15.71,10.12,8.84,9.59,6.76v9h-2V.5H9.82l1.51,6.83.46,2.12V.5h2V15.71Z"/><path class="cls-2" d="M22.14,2.81v12.9H19.79V2.81H18.07V.5h5.78V2.81Z"/><path class="cls-2" d="M28.79,15.71V9.43H27.46v6.28H25.11V.5h2.35V7.1h1.33V.5h2.33V15.71Z"/><path class="cls-2" d="M32.88,15.71V.5h4.93V2.69H35.23V6.85h1.71V8.93H35.23v4.52h2.58v2.26Z"/></g></g></svg>