<svg xmlns="http://www.w3.org/2000/svg" viewBox="0 0 228.66 79.42"><defs><style>.cls-1{fill:#636466;}.cls-2{fill:#b30838;}</style></defs><title>otv-logo-home</title><g id="Layer_2" data-name="Layer 2"><g id="Layer_1-2" data-name="Layer 1"><polygon class="cls-1" points="87.38 31.19 85.54 43.27 83.7 31.19 78.3 0.94 70.24 0.94 81.4 54.77 89.57 54.77 100.72 0.94 92.56 0.94 87.38 31.19"/><path class="cls-1" d="M121,.25c-8.51,0-14.15,6.33-14.15,16V39.82c0,9.78,5.64,15.87,14.15,15.87s13.34-6,13.34-15.75v-4H127v5.18c0,4.25-1.84,7-5.87,7s-6.09-2.76-6.09-7V28.78h19.32V16.24C134.31,6.58,129.48.25,121,.25Zm6,23.12H115V15c0-4.26,2-7.14,6.09-7.14S127,10.72,127,15Z"/><path class="cls-1" d="M151.33,9,150.76.94h-7.25V54.77h8.4V16c0-4.71,3-7.36,11.73-6.56V.6C157.77-.21,153.63,2,151.33,9Z"/><path class="cls-1" d="M181.39,33.59h5.66v9.87c0,2.6-1.46,5.64-5.57,5.64s-5.57-2.91-5.57-5.64V12.21a5.24,5.24,0,0,1,5.57-5.49c3.93,0,5.33,2.8,5.33,5.41v6.39h6.88V13c0-8.27-4.45-13-12.21-13s-12.85,5.23-12.85,13V42.66c0,7.9,4.64,13,11.81,13,4,0,7.09-1.45,8.72-4.1l1.26,3.15h3.67V27.26h-12.7Z"/><path class="cls-1" d="M228.66,28.78V16.24c0-9.66-4.83-16-13.34-16s-14.15,6.33-14.15,16V39.82c0,9.78,5.64,15.87,14.15,15.87s13.34-6,13.34-15.75v-4H221.3v5.18c0,4.25-1.84,7-5.86,7s-6.1-2.76-6.1-7V28.78ZM209.34,15c0-4.26,2-7.14,6.1-7.14s5.86,2.88,5.86,7.14v8.39h-12Z"/><path d="M3.63,69.75H5l1.11,6.08h0L7,69.75H8.56L6.88,79.29H5.51L4.32,73h0l-1.11,6.3H1.81L0,69.75H1.53l1,6.08h0Z"/><path d="M9.94,79.29V69.75h1.64v3.89h1.74V69.75H15v9.54H13.32V75.06H11.58v4.23Z"/><path d="M16.88,79.29V69.75h4.39v1.43H18.52v2.46h2.11v1.42H18.52v2.81h2.93v1.42Z"/><path d="M24.72,79.29H23.08V69.75h2.3c1.84,0,2.77.78,2.77,2.82,0,1.53-.59,2.15-1.15,2.4l1.39,4.32H26.73l-1.17-4a7,7,0,0,1-.84,0Zm0-5.26h.58c.88,0,1.22-.33,1.22-1.46s-.34-1.47-1.22-1.47h-.58Z"/><path d="M30,79.29V69.75h4.39v1.43H31.66v2.46h2.11v1.42H31.66v2.81h2.93v1.42Z"/><path d="M39.71,79.29V69.75h1.64v9.54Z"/><path d="M43.49,69.75h2.43c1.69,0,2.59.93,2.59,2.88v3.78c0,2-.9,2.88-2.59,2.88H43.49Zm1.64,8.19h.57c.87,0,1.17-.33,1.17-1.33V72.43c0-1-.3-1.33-1.17-1.33h-.57Z"/><path d="M50.43,79.29V69.75h4.39v1.43H52.07v2.46h2.11v1.42H52.07v2.81H55v1.42Z"/><path d="M57.58,79.29H56l1.76-9.54h2l1.75,9.54H60l-.29-2.11h-1.8Zm.53-3.54h1.32l-.65-4.1h0Z"/><path d="M65.81,72.1c-.06-.82-.5-1-.87-1-.53,0-.82.34-.82.93,0,1.63,3.33,2.41,3.33,5a2.33,2.33,0,0,1-2.59,2.44,2.5,2.5,0,0,1-2.45-2.64L64,76.56c.07,1,.45,1.44,1,1.44a.84.84,0,0,0,1-.87c0-1.89-3.33-2.4-3.33-5.13a2.24,2.24,0,0,1,2.54-2.38,2.28,2.28,0,0,1,2.27,2.31Z"/><path d="M73.24,79.29H71.66l1.76-9.54h2l1.76,9.54H75.62l-.29-2.11H73.54Zm.53-3.54h1.32l-.64-4.1h0Z"/><path d="M78.49,79.29V69.75H80l2,5.46h0V69.75h1.48v9.54H82.09l-2.09-6h0v6Z"/><path d="M85.43,69.75h2.43c1.7,0,2.59.93,2.59,2.88v3.78c0,2-.89,2.88-2.59,2.88H85.43Zm1.64,8.19h.57c.87,0,1.18-.33,1.18-1.33V72.43c0-1-.31-1.33-1.18-1.33h-.57Z"/><path d="M98.94,72.94V72.2c0-.81-.37-1.15-.79-1.15-.66,0-.87.34-.87,1v4.84c0,.71.21,1.06.87,1.06s.79-.35.79-1V75.88h1.64V77a2.26,2.26,0,0,1-2.43,2.44A2.29,2.29,0,0,1,95.64,77V72.06a2.29,2.29,0,0,1,2.51-2.44,2.36,2.36,0,0,1,2.43,2.62v.7Z"/><path d="M102.58,72.06a2.51,2.51,0,0,1,5,0V77a2.51,2.51,0,0,1-5,0Zm1.64,4.88c0,.71.21,1.06.87,1.06s.87-.35.87-1.06V72.1c0-.71-.21-1-.87-1s-.87.34-.87,1Z"/><path d="M109.44,79.29V69.75h1.64v8.12h2.57v1.42Z"/><path d="M114.91,79.29V69.75h1.64v8.12h2.58v1.42Z"/><path d="M121.41,79.29h-1.58l1.76-9.54h2l1.76,9.54h-1.59l-.29-2.11h-1.8Zm.53-3.54h1.32l-.64-4.1h0Z"/><path d="M126.66,69.75h2.43a2.24,2.24,0,0,1,2.54,2.53,2,2,0,0,1-1.14,2,2.18,2.18,0,0,1,1.33,2.26c0,1.57-.7,2.76-2.57,2.76h-2.59Zm1.64,3.91h.6A1.08,1.08,0,0,0,130,72.45c0-.89-.34-1.35-1.07-1.35h-.62Zm0,4.28H129c.87,0,1.19-.5,1.19-1.46S129.81,75,128.83,75h-.53Z"/><path d="M133.6,72.06a2.51,2.51,0,0,1,5,0V77a2.51,2.51,0,0,1-5,0Zm1.64,4.88c0,.71.21,1.06.87,1.06s.87-.35.87-1.06V72.1c0-.71-.21-1-.87-1s-.87.34-.87,1Z"/><path d="M142.18,79.29h-1.64V69.75h2.3c1.84,0,2.78.78,2.78,2.82,0,1.53-.6,2.15-1.15,2.4l1.38,4.32h-1.66l-1.16-4a7.24,7.24,0,0,1-.85,0Zm0-5.26h.58c.89,0,1.22-.33,1.22-1.46s-.33-1.47-1.22-1.47h-.58Z"/><path d="M148.43,79.29h-1.58l1.75-9.54h2l1.76,9.54h-1.59l-.29-2.11h-1.8Zm.53-3.54h1.32l-.64-4.1h0Z"/><path d="M154.15,71.18h-1.59V69.75h4.81v1.43h-1.59v8.11h-1.63Z"/><path d="M158.89,79.29V69.75h1.64v9.54Z"/><path d="M162.67,72.06a2.51,2.51,0,0,1,5,0V77a2.51,2.51,0,0,1-5,0Zm1.64,4.88c0,.71.21,1.06.87,1.06s.87-.35.87-1.06V72.1c0-.71-.21-1-.87-1s-.87.34-.87,1Z"/><path d="M169.61,79.29V69.75h1.52l2,5.46h0V69.75h1.48v9.54h-1.42l-2.09-6h0v6Z"/><path d="M179.82,79.29V69.75h4.57v1.43h-2.93v2.46h2.19v1.42h-2.19v4.23Z"/><path d="M185.94,79.29V69.75h1.64v8.12h2.57v1.42Z"/><path d="M191.49,72.06a2.51,2.51,0,0,1,5,0V77a2.51,2.51,0,0,1-5,0Zm1.64,4.88c0,.71.21,1.06.87,1.06s.87-.35.87-1.06V72.1c0-.71-.21-1-.87-1s-.87.34-.87,1Z"/><path d="M198.43,69.75h1.64V77c0,.7.27,1,.87,1s.87-.35.87-1v-7.2h1.64v7.14a2.51,2.51,0,1,1-5,0Z"/><path d="M207,79.29h-1.64V69.75h2.3c1.83,0,2.77.78,2.77,2.82,0,1.53-.59,2.15-1.15,2.4l1.39,4.32H209l-1.17-4a7,7,0,0,1-.84,0ZM207,74h.58c.88,0,1.21-.33,1.21-1.46s-.33-1.47-1.21-1.47H207Z"/><path d="M212.53,79.29V69.75h1.64v9.54Z"/><path d="M219.3,72.1c-.07-.82-.5-1-.87-1-.53,0-.82.34-.82.93,0,1.63,3.33,2.41,3.33,5a2.34,2.34,0,0,1-2.59,2.44,2.51,2.51,0,0,1-2.46-2.64l1.56-.22c.07,1,.45,1.44,1,1.44a.84.84,0,0,0,.95-.87c0-1.89-3.33-2.4-3.33-5.13a2.24,2.24,0,0,1,2.54-2.38,2.29,2.29,0,0,1,2.27,2.31Z"/><path d="M222.51,79.29V69.75h1.64v3.89h1.75V69.75h1.63v9.54H225.9V75.06h-1.75v4.23Z"/><path class="cls-2" d="M5.4,25A4.59,4.59,0,0,1,.75,20.17v-15A4.62,4.62,0,0,1,5.4.42a4.59,4.59,0,0,1,4.65,4.8v15A4.57,4.57,0,0,1,5.4,25ZM6.29,5A.86.86,0,0,0,5.4,4a.86.86,0,0,0-.89,1V20.42a.86.86,0,0,0,.89,1,.86.86,0,0,0,.89-1Z"/><path class="cls-2" d="M19.28,24.6,16.6,13.84l-.83-3.26v14H12.63V.78h3.5l2.36,10.69.72,3.33V.78h3.11V24.6Z"/><path class="cls-2" d="M35.41,4.39V24.6H31.73V4.39H29.05V.78h9V4.39Z"/><path class="cls-2" d="M45.82,24.6V14.77H43.75V24.6H40.06V.78h3.69V11.12h2.07V.78h3.65V24.6Z"/><path class="cls-2" d="M52.22,24.6V.78H60V4.21h-4v6.51h2.68V14H55.91v7.08h4V24.6Z"/></g></g></svg>