<svg xmlns="http://www.w3.org/2000/svg" viewBox="0 0 238.91 75"><defs><style>.cls-1{fill:#999;}.cls-2{fill:#d63430;}.cls-3{fill:#333;}</style></defs><title>otv-logo</title><g id="Layer_2" data-name="Layer 2"><g id="Layer_1-2" data-name="Layer 1"><polygon class="cls-1" points="97.63 31.19 95.79 43.27 93.95 31.19 88.55 0.94 80.49 0.94 91.65 54.77 99.82 54.77 110.97 0.94 102.81 0.94 97.63 31.19"/><path class="cls-1" d="M131.22.25c-8.51,0-14.15,6.33-14.15,16V39.82c0,9.78,5.64,15.87,14.15,15.87s13.34-6,13.34-15.75v-4H137.2v5.18c0,4.25-1.84,7-5.87,7s-6.09-2.76-6.09-7V28.78h19.32V16.24C144.56,6.58,139.73.25,131.22.25Zm6,23.12h-12V15c0-4.26,2-7.14,6.09-7.14s5.87,2.88,5.87,7.14Z"/><path class="cls-1" d="M161.58,9,161,.94h-7.25V54.77h8.4V16c0-4.71,3-7.36,11.73-6.56V.6C168-.21,163.88,2,161.58,9Z"/><path class="cls-1" d="M191.64,33.59h5.66v9.87c0,2.6-1.46,5.64-5.57,5.64s-5.57-2.91-5.57-5.64V12.21a5.24,5.24,0,0,1,5.57-5.49c3.93,0,5.33,2.8,5.33,5.41v6.39h6.88V13c0-8.27-4.45-13-12.21-13s-12.85,5.23-12.85,13V42.66c0,7.9,4.64,13,11.81,13,4,0,7.09-1.45,8.72-4.1l1.26,3.15h3.67V27.26h-12.7Z"/><path class="cls-1" d="M238.91,28.78V16.24c0-9.66-4.83-16-13.34-16s-14.15,6.33-14.15,16V39.82c0,9.78,5.64,15.87,14.15,15.87s13.34-6,13.34-15.75v-4h-7.36v5.18c0,4.25-1.84,7-5.86,7s-6.1-2.76-6.1-7V28.78ZM219.59,15c0-4.26,2-7.14,6.1-7.14s5.86,2.88,5.86,7.14v8.39h-12Z"/><path class="cls-2" d="M3.79,21A3.75,3.75,0,0,1,0,17V4.79A3.76,3.76,0,0,1,3.79.8a3.75,3.75,0,0,1,3.79,4V17A3.75,3.75,0,0,1,3.79,21ZM5,4.56A1.16,1.16,0,0,0,3.79,3.29,1.14,1.14,0,0,0,2.62,4.56V17.2a1.12,1.12,0,0,0,1.17,1.26A1.14,1.14,0,0,0,5,17.2Z"/><path class="cls-2" d="M19.55,20.67l-2.76-9.38L16,8.38V20.67H13.67V1.09h2.41l2.47,9.41.74,2.94V1.09h2.29V20.67Z"/><path class="cls-2" d="M39.78,3.59V20.67H37.22V3.59H34.78V1.09h7.35v2.5Z"/><path class="cls-2" d="M52.77,20.67V12.26H50.3v8.41H47.72V1.09H50.3V9.76h2.47V1.09h2.59V20.67Z"/><path class="cls-2" d="M61.62,20.67V1.09h6.26V3.5h-3.7V9.41h2.59v2.32H64.18v6.5h3.7v2.44Z"/><path class="cls-3" d="M0,69.41H1l.7,3.72h0l.79-3.72H3.57l.72,3.72h0l.75-3.72h1L4.9,74.92H3.83L3,71H3l-.8,3.92H1.15Z"/><path class="cls-3" d="M8.75,74.92V69.41H9.81v2.2h2.12v-2.2H13v5.51H11.93V72.56H9.81v2.36Z"/><path class="cls-3" d="M16.17,74.92V69.41h3.65v.89h-2.6v1.31h1.89v.89H17.22V74H19.9v.88Z"/><path class="cls-3" d="M22.69,74.92V69.41h2.2a1.55,1.55,0,0,1,1.76,1.64,1.36,1.36,0,0,1-1,1.42l1.21,2.45H25.69l-1-2.24h-.91v2.24Zm1-3.09h.78c.83,0,1.08-.26,1.08-.78s-.31-.78-.89-.78h-1Z"/><path class="cls-3" d="M29.73,74.92V69.41h3.65v.89H30.79v1.31h1.88v.89H30.79V74h2.68v.88Z"/><path class="cls-3" d="M40.64,74.92V69.41h1v5.51Z"/><path class="cls-3" d="M44.94,69.41h1.82c1.46,0,2.47.81,2.48,2.76s-1,2.75-2.48,2.75H44.94ZM46,74h.71c1.2,0,1.48-.89,1.48-1.87S47.9,70.3,46.7,70.3H46Z"/><path class="cls-3" d="M52,74.92V69.41h3.65v.89H53v1.31h1.88v.89H53V74h2.67v.88Z"/><path class="cls-3" d="M59.6,69.41h1.31l1.56,5.51h-1l-.31-1.19H59.38l-.33,1.19H58Zm0,3.45h1.28l-.61-2.39h0Z"/><path class="cls-3" d="M67.68,70.88a1,1,0,0,0-1-.72c-.45,0-.78.18-.78.61,0,1,2.84.75,2.84,2.54,0,1.13-.71,1.69-1.93,1.69a2.19,2.19,0,0,1-2.07-1.3l.87-.39a1.28,1.28,0,0,0,1.2.87c.53,0,.93-.2.93-.74,0-1.08-2.84-.87-2.84-2.56a1.6,1.6,0,0,1,1.78-1.54,2,2,0,0,1,2,1.24Z"/><path class="cls-3" d="M77,69.41h1.31l1.57,5.51h-1l-.3-1.19H76.76l-.33,1.19H75.38Zm0,3.45h1.28l-.62-2.39h0Z"/><path class="cls-3" d="M82.47,74.92V69.41h1.1l2.17,3.76h0V69.41h1v5.51h-1L83.48,71h0v3.92Z"/><path class="cls-3" d="M89.86,69.41h1.83c1.46,0,2.46.81,2.47,2.76s-1,2.75-2.47,2.75H89.86ZM90.92,74h.7c1.21,0,1.49-.89,1.49-1.87s-.28-1.87-1.49-1.87h-.7Z"/><path class="cls-3" d="M103.91,71a1,1,0,0,0-1-.8c-.7,0-1.13.66-1.13,2s.37,2,1.16,2c.48,0,.77-.17,1.08-.82l1,.26A2,2,0,0,1,102.94,75c-1.4,0-2.21-1-2.21-2.83s.81-2.83,2.21-2.83a1.77,1.77,0,0,1,1.93,1.45Z"/><path class="cls-3" d="M109.61,75c-1.5,0-2.31-1-2.31-2.83s.81-2.83,2.31-2.83,2.31,1,2.31,2.83S111.11,75,109.61,75Zm0-4.78c-.86,0-1.26.66-1.26,2s.39,2,1.26,2,1.26-.66,1.26-2S110.47,70.22,109.61,70.22Z"/><path class="cls-3" d="M114.66,74.92V69.41h1V74h2.4v.88Z"/><path class="cls-3" d="M120.81,74.92V69.41h1V74h2.4v.88Z"/><path class="cls-3" d="M128.05,69.41h1.32l1.56,5.51h-1.05l-.3-1.19h-1.74l-.33,1.19h-1.05Zm0,3.45h1.28l-.62-2.39h0Z"/><path class="cls-3" d="M133.53,69.41h2.05c1.09,0,1.8.37,1.87,1.35a1.24,1.24,0,0,1-.84,1.26,1.29,1.29,0,0,1,1,1.45c0,.86-.6,1.45-2,1.45h-2Zm1.05,2.2h1.06a.67.67,0,1,0,0-1.34h-1.06Zm0,2.46h1.06c.61,0,.87-.28.87-.8s-.26-.8-.87-.8h-1.06Z"/><path class="cls-3" d="M142.47,75c-1.5,0-2.31-1-2.31-2.83s.81-2.83,2.31-2.83,2.32,1,2.32,2.83S144,75,142.47,75Zm0-4.78c-.86,0-1.26.66-1.26,2s.39,2,1.26,2,1.26-.66,1.26-2S143.33,70.22,142.47,70.22Z"/><path class="cls-3" d="M147.52,74.92V69.41h2.2a1.55,1.55,0,0,1,1.76,1.64,1.36,1.36,0,0,1-1,1.42l1.21,2.45h-1.17l-1-2.24h-.9v2.24Zm1.06-3.09h.77c.83,0,1.08-.26,1.08-.78s-.31-.78-.89-.78h-1Z"/><path class="cls-3" d="M155.61,69.41h1.31l1.57,5.51h-1.05l-.3-1.19H155.4l-.33,1.19h-1Zm0,3.45h1.28l-.62-2.39h0Z"/><path class="cls-3" d="M164.17,69.41v.88h-1.45v4.63h-1.05V70.29h-1.44v-.88Z"/><path class="cls-3" d="M167,74.92V69.41H168v5.51Z"/><path class="cls-3" d="M173.21,75c-1.5,0-2.31-1-2.31-2.83s.81-2.83,2.31-2.83,2.32,1,2.32,2.83S174.72,75,173.21,75Zm0-4.78c-.86,0-1.26.66-1.26,2s.39,2,1.26,2,1.26-.66,1.26-2S174.08,70.22,173.21,70.22Z"/><path class="cls-3" d="M178.29,74.92V69.41h1.09l2.17,3.76h0V69.41h1v5.51h-1L179.29,71h0v3.92Z"/><path class="cls-3" d="M189.91,74.92V69.41h3.52v.89H191v1.31h1.84v.89H191v2.42Z"/><path class="cls-3" d="M196.06,74.92V69.41h1.06V74h2.39v.88Z"/><path class="cls-3" d="M204.16,75c-1.5,0-2.31-1-2.31-2.83s.81-2.83,2.31-2.83,2.31,1,2.31,2.83S205.66,75,204.16,75Zm0-4.78c-.86,0-1.26.66-1.26,2s.39,2,1.26,2,1.26-.66,1.26-2S205,70.22,204.16,70.22Z"/><path class="cls-3" d="M212.43,69.41h1v3.45a2.11,2.11,0,1,1-4.22,0V69.41h1.05v3.5c0,.89.35,1.21,1.06,1.21s1.06-.32,1.06-1.21Z"/><path class="cls-3" d="M216.63,74.92V69.41h2.19a1.56,1.56,0,0,1,1.77,1.64,1.38,1.38,0,0,1-1,1.42l1.21,2.45h-1.16l-1-2.24h-.91v2.24Zm1.05-3.09h.78c.82,0,1.07-.26,1.07-.78s-.31-.78-.89-.78h-1Z"/><path class="cls-3" d="M223.77,74.92V69.41h1v5.51Z"/><path class="cls-3" d="M230.67,70.88a1,1,0,0,0-1-.72c-.46,0-.79.18-.79.61,0,1,2.84.75,2.84,2.54,0,1.13-.71,1.69-1.93,1.69a2.18,2.18,0,0,1-2.06-1.3l.87-.39a1.27,1.27,0,0,0,1.2.87c.53,0,.93-.2.93-.74,0-1.08-2.84-.87-2.84-2.56a1.6,1.6,0,0,1,1.78-1.54,2,2,0,0,1,1.95,1.24Z"/><path class="cls-3" d="M234.69,74.92V69.41h1.05v2.2h2.12v-2.2h1v5.51h-1V72.56h-2.12v2.36Z"/></g></g></svg>