<svg xmlns="http://www.w3.org/2000/svg" viewBox="0 0 7.42 36.78"><defs><style>.cls-1{fill:#636466;}</style></defs><title>scroll-down-text</title><g id="Layer_2" data-name="Layer 2"><g id="Layer_1-2" data-name="Layer 1"><path class="cls-1" d="M1.88,34.2c-.62,0-.8.38-.8.66s.26.62.71.62C3,35.48,3.61,33,5.57,33a1.77,1.77,0,0,1,1.85,2,1.9,1.9,0,0,1-2,1.86L5.25,35.6c.73-.05,1.09-.34,1.09-.74a.64.64,0,0,0-.66-.72c-1.43,0-1.81,2.52-3.88,2.52A1.69,1.69,0,0,1,0,34.74,1.73,1.73,0,0,1,1.75,33Z"/><path class="cls-1" d="M2.51,27.52H2c-.61,0-.87.28-.87.6,0,.5.26.66.8.66H5.54c.54,0,.8-.16.8-.66s-.26-.6-.73-.6H4.74V26.28h.83a1.72,1.72,0,0,1,1.85,1.84A1.73,1.73,0,0,1,5.57,30H1.85A1.73,1.73,0,0,1,0,28.12a1.79,1.79,0,0,1,2-1.84h.53Z"/><path class="cls-1" d="M7.32,21.78V23H.1V21.28c0-1.39.59-2.1,2.13-2.1,1.16,0,1.63.45,1.82.87L7.32,19v1.26l-3,.88a6,6,0,0,1,0,.64Zm-4,0v-.44c0-.67-.25-.92-1.11-.92s-1.11.25-1.11.92v.44Z"/><path class="cls-1" d="M1.85,16A1.73,1.73,0,0,1,0,14.12a1.73,1.73,0,0,1,1.85-1.9H5.57a1.73,1.73,0,0,1,1.85,1.9A1.73,1.73,0,0,1,5.57,16Zm3.69-1.24c.54,0,.8-.16.8-.66s-.26-.66-.8-.66H1.88c-.54,0-.8.16-.8.66s.26.66.8.66Z"/><path class="cls-1" d="M7.32,9.08H.1V7.84H6.24V5.89H7.32Z"/><path class="cls-1" d="M7.32,3.19H.1V2H6.24V0H7.32Z"/></g></g></svg>