<svg xmlns="http://www.w3.org/2000/svg" xmlns:xlink="http://www.w3.org/1999/xlink" viewBox="0 0 239.54 30.86"><defs><style>.cls-1{fill:none;}.cls-2{clip-path:url(#clip-path);}.cls-3{fill:#9f1c36;}.cls-4{fill:#fff;}</style><clipPath id="clip-path" transform="translate(0 -0.02)"><rect class="cls-1" width="239.94" height="30.93"/></clipPath></defs><title>tu-logo</title><g id="Layer_2" data-name="Layer 2"><g id="Layer_1-2" data-name="Layer 1"><g class="cls-2"><rect class="cls-3" width="26.89" height="30.86"/><polygon class="cls-4" points="22.86 2.2 2.06 2.2 2.06 11.43 4.03 11.43 4.03 4.03 22.86 4.03 22.86 11.29 24.73 11.29 24.73 2.2 22.86 2.2"/><polygon class="cls-4" points="7.12 22.76 7.12 24.64 12.32 24.64 12.32 6.32 6.23 6.32 6.23 11.38 8.15 11.38 8.15 8.24 10.4 8.24 10.4 22.76 7.12 22.76"/><polygon class="cls-4" points="16.51 6.3 14.59 6.3 14.59 24.61 19.79 24.61 19.79 22.74 16.51 22.74 16.51 8.22 18.76 8.22 18.76 11.36 20.68 11.36 20.68 6.3 16.51 6.3"/><rect class="cls-4" x="7.12" y="26.8" width="12.67" height="1.85"/><g class="cls-2"><path class="cls-4" d="M36.78,8.36c0,.79-.05.79.88.79h2.5c2.42,0,1.79-1.86,2.35-1.86.18,0,.25.26.25.44,0,.82,0,1.6,0,2.35,0,.6,0,1.2,0,1.83,0,.21-.09.3-.25.3-.72,0,.07-2-1.88-2H37.2c-.54,0-.42.39-.42.74V15.6c0,2.2,2.18,1.6,2.18,2.13,0,.33-.35.33-.51.33a15.34,15.34,0,0,0-2.55-.12c-1.19,0-2,.12-2.42.12a.23.23,0,0,1-.23-.21c0-.65,1.69,0,1.69-2.55V4.6c0-1,0-2.16-1.25-2.34-.18,0-.69-.09-.69-.37s.14-.28.81-.28c4.38,0,5.59.09,6.56.09.47,0,2.6-.09,3.32-.09.19,0,.23.23.23.51,0,2.57-.32,2.76-.46,2.76-.56,0-.19-1.11-.56-1.65-.6-.79-3-.65-3.94-.65-2.23,0-2.18-.09-2.18,1.46V8.36" transform="translate(0 -0.02)"/><path class="cls-4" d="M44.48,13.28A5.23,5.23,0,0,1,49.65,8a4.77,4.77,0,0,1,5,5.17,4.93,4.93,0,0,1-5,5c-3,0-5.2-1.79-5.2-4.92m8.58.23c0-2.39-1-5-3.75-5-2.28,0-3.21,2-3.21,4,0,2.27,1.07,5.24,3.79,5.24,1.94,0,3.17-1.32,3.17-4.2" transform="translate(0 -0.02)"/><path class="cls-4" d="M62.81,9.89A.87.87,0,0,0,63,9.31c0-.53-1.09-.32-1.09-.76,0-.26.19-.31.4-.31a12.88,12.88,0,0,0,1.67.1c.79,0,1.18-.1,1.41-.1s.33.1.33.31-.72,0-1.83,1.27l-2.46,2.83,3.08,4c.65.86,1.63.65,1.63,1.07,0,.18-.1.27-.35.27s-.7-.09-1.79-.09-1.48.09-1.74.09-.42-.07-.42-.23c0-.35.75-.25.75-.79,0-.11,0-.28-.4-.79L60.4,13.88l-1.84,2.27a1,1,0,0,0-.21.54c0,.88,1.19.58,1.19,1.07,0,.18-.1.27-.37.27s-.68-.09-1.81-.09c-.91,0-1.35.09-1.54.09s-.27-.11-.27-.3c0-.39.83-.07,2-1.51L60,13.37,57.33,9.73c-.6-.84-1.78-.74-1.78-1.16s.18-.33.46-.33.7.1,1.6.1,1.56-.1,1.88-.1c.09,0,.28.07.28.24,0,.37-.79.27-.79.65s.23.46,2.06,3l1.77-2.23" transform="translate(0 -0.02)"/><path class="cls-4" d="M72.55,13.93c-.09-.47,0-.72.26-.72s.32.28.44.76a5,5,0,0,0,4.87,3.48c2.2,0,4.36-1.23,4.36-3.66,0-4.48-9.42-2-9.42-8,0-2.94,2.49-4.36,5.15-4.36a8.23,8.23,0,0,1,3.9.83c.21,0,.26-.25.49-.25s.25.07.28.33l.34,3.15c0,.19,0,.35-.25.35s-.42-.49-.49-.7a4.43,4.43,0,0,0-4.43-3c-1.83,0-3.78.88-3.78,3,0,4.36,9.42,1.81,9.42,8.21,0,1.95-1.37,4.88-6.64,4.88-1.71,0-3.82-.86-3.92-1.28l-.58-3" transform="translate(0 -0.02)"/><path class="cls-4" d="M85,13.28A5.25,5.25,0,0,1,90.18,8c1.16,0,2.74.32,2.81.86a13.14,13.14,0,0,1,0,1.37c0,.32-.07.48-.18.48s-.49-.44-.56-.53A3.36,3.36,0,0,0,89.4,8.75c-2,0-2.74,2.05-2.74,3.72,0,2.5,1.48,4.57,4.1,4.57,1.81,0,2.83-1.35,3.18-1.35.07,0,.19.07.19.14,0,.37-1.39,2.37-4.57,2.37A4.78,4.78,0,0,1,85,13.28" transform="translate(0 -0.02)"/><path class="cls-4" d="M97.86,9.64A5.08,5.08,0,0,1,101.2,8c3,0,3.88,2.57,3.88,4.57v3.87c0,1.21,1.85.72,1.85,1.3,0,.26-.2.3-.46.3-.42,0-1.07-.09-2-.09s-1.65.09-1.9.09-.37-.07-.37-.25c0-.35,1.13-.35,1.13-1.18V12.35c0-2.88-2-3.41-2.8-3.41-1,0-2.72.9-2.72,2.09v4.89c0,2,2,1.35,2,1.79,0,.28-.12.32-.4.32-.49,0-1.65-.09-2.37-.09S95.4,18,95,18a.21.21,0,0,1-.23-.23c0-.46,1.37-.21,1.37-1.34V3.35c0-1.39-1.79-.79-1.79-1.28a.23.23,0,0,1,.19-.25c1.69-.33,2.48-1.16,3-1.16.14,0,.28.14.28.37V9.64" transform="translate(0 -0.02)"/><path class="cls-4" d="M107.49,13.28A5.23,5.23,0,0,1,112.66,8a4.77,4.77,0,0,1,5,5.17,4.93,4.93,0,0,1-5,5c-3,0-5.2-1.79-5.2-4.92m8.58.23c0-2.39-1-5-3.75-5-2.28,0-3.21,2-3.21,4,0,2.27,1.07,5.24,3.79,5.24,1.95,0,3.17-1.32,3.17-4.2" transform="translate(0 -0.02)"/><path class="cls-4" d="M118.74,13.28A5.23,5.23,0,0,1,123.92,8a4.76,4.76,0,0,1,5,5.17,4.93,4.93,0,0,1-5,5c-3,0-5.2-1.79-5.2-4.92m8.59.23c0-2.39-1-5-3.76-5-2.28,0-3.2,2-3.2,4,0,2.27,1.06,5.24,3.78,5.24,1.95,0,3.18-1.32,3.18-4.2" transform="translate(0 -0.02)"/><path class="cls-4" d="M133.41,16.15c0,1.61,1.92.93,1.92,1.56,0,.28-.19.32-.53.32s-1.05-.09-2.14-.09-1.57.09-1.81.09-.28-.09-.28-.3,1.14-.28,1.14-1.27V3.35c0-1.39-1.58-.79-1.58-1.28a.25.25,0,0,1,.21-.25c1.79-.42,2.25-1.16,2.79-1.16a.34.34,0,0,1,.28.37V16.15" transform="translate(0 -0.02)"/><path class="cls-4" d="M141.55,13.28A5.23,5.23,0,0,1,146.72,8a4.77,4.77,0,0,1,5,5.17,4.93,4.93,0,0,1-5,5c-3,0-5.19-1.79-5.19-4.92m8.58.23c0-2.39-1-5-3.76-5-2.27,0-3.2,2-3.2,4,0,2.27,1.07,5.24,3.78,5.24,2,0,3.18-1.32,3.18-4.2" transform="translate(0 -0.02)"/><path class="cls-4" d="M154,8.29a9.13,9.13,0,0,1,1.37-4.89c.53-.84,2.11-2.49,3.76-2.49.3,0,.95.09.95.49s-.09,1.65-.35,1.65-.11-1-1.57-1c-1.23,0-2.07,1.33-2.28,2.39a21.29,21.29,0,0,0-.18,3.83h1.78a1.47,1.47,0,0,0,.91-.39.17.17,0,0,1,.16.18.81.81,0,0,1-.14.33l-.46.83h-2.25v7c0,1.49,1.64.93,1.64,1.44,0,.28-.3.21-.48.21h-3.6c-.12,0-.37,0-.37-.14,0-.48,1.11-.21,1.11-1.32V9.24h-1.57l.13-1H154" transform="translate(0 -0.02)"/><path class="cls-4" d="M167.07,3.93c0-1.76-2.07-1.53-2.07-2s.35-.32.63-.32c.46,0,.93.09,1.86.09s1.85-.09,3.71-.09c4.08,0,5.1,2.23,5.1,3.94,0,2.37-2.18,3.13-2.18,3.3,0,.34,3.64.41,3.64,4.27,0,1.53-1.11,4.91-5.63,4.91-.84,0-2.23-.09-3-.09-1.07,0-2.16.09-3.22.09-.12,0-.58,0-.58-.25s.27-.3.69-.44c.26-.07,1.07-.19,1.07-2V3.93m1.83,4c0,.74-.28.86,1.81.86,3.8,0,4-1.41,4-2.51,0-2.5-2.11-3.92-4.45-3.92-1.47,0-1.35.4-1.35,1.74Zm0,7.31c0,1.67-.12,2.16,3.18,2.16,3.08,0,3.92-2,3.92-3.44s-.09-4.45-5.43-4.45c-1.79,0-1.67.32-1.67.53Z" transform="translate(0 -0.02)"/><path class="cls-4" d="M186.09,9.68c0-.88-1.23-.32-1.23-.88,0-.18.3-.21.42-.21a4.29,4.29,0,0,0,1.25-.14,4.41,4.41,0,0,1,.84-.11.49.49,0,0,1,.41.55v8c0,.6,1.47.3,1.47.81,0,.19-.49.21-.86.21a5.82,5.82,0,0,0-1.25.12,2.59,2.59,0,0,1-.79.14c-.19,0-.21-.26-.21-.35V16.57h0A3.59,3.59,0,0,1,183,18.2a3.11,3.11,0,0,1-3.39-3.11V9.68c0-.88-1.23-.32-1.23-.88,0-.18.3-.21.42-.21a4.34,4.34,0,0,0,1.25-.14,4.18,4.18,0,0,1,.83-.11.49.49,0,0,1,.42.55v5.87a2.31,2.31,0,0,0,2.25,2.62c1.33,0,2.48-1,2.53-1.64V9.68" transform="translate(0 -0.02)"/><path class="cls-4" d="M190.13,10.77c0-1.85,1.44-2.78,3.13-2.78a5,5,0,0,1,2.28.53,3.48,3.48,0,0,1,.11,1.14c0,.63.09.9-.26.9s-.44-2-2.55-2A1.47,1.47,0,0,0,191.22,10c0,.77.6,1.25,3,2.23A2.63,2.63,0,0,1,196.18,15a3.17,3.17,0,0,1-3.13,3.18c-1.62,0-2-.68-2.6-.68s-.51,0-.51-1.85c0-.4-.07-1.14.28-1.14.51,0,.26,3.06,2.76,3.06a1.89,1.89,0,0,0,2.07-1.9c0-1.23-1.19-1.6-2.12-2-1.25-.63-2.8-1.23-2.8-2.88" transform="translate(0 -0.02)"/><path class="cls-4" d="M199,10.49c0-1.39-1.28-.79-1.28-1.27A.26.26,0,0,1,198,9c1.49-.41,1.95-1.16,2.48-1.16.14,0,.28.14.28.37V16.5c0,1.19,1.83.68,1.83,1.28,0,.18-.14.25-.44.25-.49,0-1.2-.09-2.16-.09-.74,0-1.34.09-1.6.09s-.32,0-.34-.25c0-.58,1,.3,1-1.81V10.49m1.81-6c0,.28-.68,1.21-1,1.21s-1-1-1-1.21.69-1.23,1-1.23,1,1,1,1.23" transform="translate(0 -0.02)"/><path class="cls-4" d="M206.41,16.15c0,1.61,2.05.93,2.05,1.56,0,.28-.16.32-.51.32s-.86-.09-2.21-.09-1.69.09-2,.09-.42,0-.42-.27c0-.47,1.37,0,1.37-1.51V10.49c0-1.39-1.71-.79-1.71-1.27a.26.26,0,0,1,.2-.26c1.93-.41,2.39-1.16,2.93-1.16.14,0,.27.14.27.37V9.7c0,.28,1.12-1.71,3.37-1.71,3.11,0,3.78,2.57,3.78,4.34v3.82c0,1.61,1.81.93,1.81,1.56,0,.28-.16.32-.39.32s-.89-.09-2-.09c-.88,0-1.37.09-1.67.09s-.42,0-.42-.27c0-.47,1,0,1-1.51V11.91A2.83,2.83,0,0,0,209.15,9a2.62,2.62,0,0,0-2.74,1.81v5.33" transform="translate(0 -0.02)"/><path class="cls-4" d="M217.69,12.07c0,3.83,2.32,5,3.74,5,2,0,2.76-1.21,3.27-1.21.09,0,.09.09.09.16,0,.54-2,2.21-4.11,2.21A4.78,4.78,0,0,1,216,13.44c0-3,1.64-5.45,4.54-5.45a4.27,4.27,0,0,1,4.11,3.69c0,.41-.26.39-.79.39h-6.17m4.57-.62c.33,0,.46-.12.46-.47a2.65,2.65,0,0,0-2.57-2.46c-1.44,0-2.46,1.65-2.46,2.93Z" transform="translate(0 -0.02)"/><path class="cls-4" d="M226.11,10.77c0-1.85,1.44-2.78,3.13-2.78a5,5,0,0,1,2.28.53,3.23,3.23,0,0,1,.11,1.14c0,.63.1.9-.25.9s-.44-2-2.55-2A1.48,1.48,0,0,0,227.2,10c0,.77.61,1.25,3,2.23A2.64,2.64,0,0,1,232.17,15,3.18,3.18,0,0,1,229,18.2c-1.62,0-2-.68-2.59-.68s-.51,0-.51-1.85c0-.4-.07-1.14.27-1.14.51,0,.26,3.06,2.76,3.06a1.89,1.89,0,0,0,2.07-1.9c0-1.23-1.18-1.6-2.11-2-1.25-.63-2.81-1.23-2.81-2.88" transform="translate(0 -0.02)"/><path class="cls-4" d="M233.49,10.77c0-1.85,1.44-2.78,3.13-2.78.4,0,2,.18,2.27.53A3.24,3.24,0,0,1,239,9.66c0,.63.09.9-.25.9s-.45-2-2.56-2A1.47,1.47,0,0,0,234.58,10c0,.77.6,1.25,3,2.23A2.63,2.63,0,0,1,239.54,15a3.17,3.17,0,0,1-3.13,3.18c-1.62,0-2-.68-2.6-.68s-.51,0-.51-1.85c0-.4-.07-1.14.28-1.14.51,0,.26,3.06,2.76,3.06a1.89,1.89,0,0,0,2.07-1.9c0-1.23-1.19-1.6-2.11-2-1.26-.63-2.81-1.23-2.81-2.88" transform="translate(0 -0.02)"/><path class="cls-4" d="M35.27,25.35c0-.3-.12-.51-.41-.51H33.74c-1,0-.73,1.23-1.09,1.23-.12,0-.16-.07-.16-.17s.23-1.18.23-1.49c0-.08.09-.11.18-.11.25,0,1,.08,1.79.08h1.84l1.17,0c.39,0,.75-.06.95-.06s.18,0,.18.17S39,25.6,39,25.69s0,.16-.17.16-.2-1-1.09-1h-1c-.34,0-.42.11-.42.39v4.23c0,.93,1.16.57,1.16.94,0,.09-.07.14-.28.14-.4,0-.78-.06-1.32-.06s-1,.06-1.46.06c-.11,0-.17-.06-.17-.14,0-.33,1.06,0,1.06-.88V25.35" transform="translate(0 -0.02)"/><path class="cls-4" d="M41.47,29.52c0,.41.32.55,1.07.55a2.78,2.78,0,0,0,2.36-1c.07,0,.1.07.1.15a1.81,1.81,0,0,1-.57,1.08c-.24.2-.45.26-1.06.26s-1-.06-1.7-.06-1.36.06-1.83.06c-.14,0-.26-.05-.26-.13,0-.3.88,0,.88-.87V25.28c0-.8-.92-.58-.92-.87,0-.1.08-.14.22-.14.56,0,1.45.06,2.3.06s2.18-.06,2.35-.06a.15.15,0,0,1,.13.14c0,.17,0,.39,0,1.2,0,.17-.05.22-.15.22s-.15-.23-.18-.4c-.08-.49-.59-.69-1.64-.69-.72,0-1.09,0-1.09.4V27h1.27c1,0,.74-.8,1-.8a.14.14,0,0,1,.15.15c0,.16,0,.44,0,.73s0,.81,0,1.17c0,.15-.05.21-.18.21s0-.95-1-.95H41.47v2" transform="translate(0 -0.02)"/><path class="cls-4" d="M49.58,30.3c-.06.1-.12.13-.18.13s-.12,0-.18-.17l-2-4.18h-.08c0,.46-.09,1.16-.09,2.93,0,.82.1,1,.57,1.21.16.07.34.06.34.22s-.07.1-.16.1c-.33,0-.66-.06-1-.06s-.82.06-1.06.06a.1.1,0,0,1-.11-.1c0-.22.71-.12.82-.73a40.12,40.12,0,0,0,.22-4.07c0-1.21-1.11-.88-1.11-1.21a.15.15,0,0,1,.15-.16c.25,0,.43.06.68.06s.59-.06.8-.06.18.09.24.2L49.66,29h.11L52,24.65c.08-.15.15-.32.25-.32h.58a3.64,3.64,0,0,0,.52,0l.27,0a.16.16,0,0,1,.13.16c0,.3-.93,0-.93,1s.11,2.77.11,4c0,1,1,.72,1,1,0,0,0,.1-.13.1-.32,0-.8-.06-1.27-.06s-.75.06-1,.06-.25,0-.25-.11c0-.28.68-.15.68-.9V25.9l-.08,0L49.58,30.3" transform="translate(0 -0.02)"/><path class="cls-4" d="M55.69,25.5c0-1-1.14-.67-1.14-1,0-.13.15-.18.46-.18s.76.05,1,.05.61,0,1-.05.62-.06.94-.06c1.57,0,2.16.94,2.16,1.73A1.89,1.89,0,0,1,58,27.81c-.61,0-1-.14-1-.31s.06-.14.16-.14.33.05.6.05A1.13,1.13,0,0,0,59,26.15c0-1.15-.92-1.45-1.65-1.45-.39,0-.66.1-.66.65v4.29c0,.73,1.07.52,1.07.77,0,.07,0,.13-.19.13-.37,0-.8-.06-1.23-.06s-.92.06-1.34.06c-.08,0-.13,0-.13-.11,0-.35.81,0,.81-.71V25.5" transform="translate(0 -0.02)"/><path class="cls-4" d="M61.61,25.23c0-.74-1-.49-1-.79a.16.16,0,0,1,.17-.17c.35,0,.73.06,1.3.06s1-.06,1.21-.06a.15.15,0,0,1,.15.14c0,.25-.83.15-.83.9v4.41c0,.33.17.4,1,.4a2.66,2.66,0,0,0,2.38-1c.07,0,.14.06.14.2,0,1.31-1.13,1.3-1.7,1.3-.26,0-.6,0-.93,0s-.69-.06-1-.06-.62,0-.84,0l-.53,0c-.2,0-.28,0-.28-.11,0-.27.76-.13.76-.82V25.23" transform="translate(0 -0.02)"/><path class="cls-4" d="M68.08,29.52c0,.41.31.55,1.07.55a2.78,2.78,0,0,0,2.36-1c.07,0,.1.07.1.15A1.81,1.81,0,0,1,71,30.28c-.25.2-.45.26-1.06.26s-1-.06-1.7-.06-1.36.06-1.83.06c-.14,0-.26-.05-.26-.13,0-.3.88,0,.88-.87V25.28c0-.8-.92-.58-.92-.87,0-.1.08-.14.22-.14.56,0,1.45.06,2.3.06s2.18-.06,2.35-.06a.15.15,0,0,1,.13.14c0,.17,0,.39,0,1.2,0,.17-.06.22-.15.22s-.15-.23-.18-.4c-.08-.49-.59-.69-1.64-.69-.72,0-1.09,0-1.09.4V27h1.27c1,0,.74-.8,1.05-.8a.14.14,0,0,1,.15.15c0,.16,0,.44,0,.73s0,.81,0,1.17c0,.15,0,.21-.18.21s0-.95-1-.95H68.08v2" transform="translate(0 -0.02)"/><path class="cls-4" d="M81.8,25.41c0-1-1.13-.69-1.12-1a.16.16,0,0,1,.18-.16c.24,0,.63.06,1,.06s.82-.06,1-.06a.13.13,0,0,1,.14.14c0,.22-.68,0-.7.83L82.22,28a2.45,2.45,0,0,1-2.79,2.56c-1.53,0-2.75-.6-2.75-2.12v-3c0-.55-.12-.71-.48-.84s-.58-.12-.58-.23,0-.13.2-.13c.37,0,.8.06,1.22.06s.93-.06,1.34-.06c.08,0,.14,0,.14.11s-.28.14-.51.27-.32.33-.32.7v2.93a1.67,1.67,0,0,0,1.78,1.87c1.88,0,2.33-1,2.33-2.79V25.41" transform="translate(0 -0.02)"/><path class="cls-4" d="M89.89,25.6c0-1.2-1.25-.86-1.25-1.2,0-.08.12-.13.21-.13.32,0,.77.06,1.16.06s.87-.06,1.15-.06a.13.13,0,0,1,.15.14c0,.28-.91,0-.91,1.08v4.87c0,.16-.06.23-.24.23s-.21-.05-.44-.3l-4.25-4.6-.08,0v3.74c0,1,1.17.58,1.17,1,0,.08-.1.1-.25.1-.38,0-.81-.06-1.17-.06s-.74.06-1.08.06c-.11,0-.19-.05-.19-.13,0-.38.95,0,.95-1.45V25.49c0-1.11-1.2-.79-1.2-1.12,0-.05.07-.1.22-.1s.36.06.71.06.48-.06.73-.06a.55.55,0,0,1,.45.21l4.06,4.43.1-.06V25.6" transform="translate(0 -0.02)"/><path class="cls-4" d="M92.85,25.17c0-.73-1.06-.52-1.06-.77,0-.07,0-.13.19-.13.38,0,.8.06,1.23.06s.92-.06,1.34-.06a.13.13,0,0,1,.14.11c0,.36-.83.05-.83.71v4.55c0,.73,1.07.52,1.07.77,0,.07,0,.13-.19.13-.37,0-.8-.06-1.23-.06s-.92.06-1.33.06c-.09,0-.14-.05-.14-.11,0-.36.81,0,.81-.71V25.17" transform="translate(0 -0.02)"/><path class="cls-4" d="M95.87,25.14c-.33-.76-.78-.51-.78-.74s.07-.13.15-.13.7.06,1.06.06.77-.06,1-.06a.14.14,0,0,1,.15.13c0,.25-.59.11-.59.56a26.84,26.84,0,0,0,1,2.54c.61,1.52.64,1.64.82,1.64S99,29,99.86,27a8.12,8.12,0,0,0,.77-2c0-.51-.77-.35-.77-.62,0-.1.1-.13.21-.13s.55.06.87.06.78-.06,1-.06.16.05.16.11-.44.06-.86.89L99.1,29.49c-.48,1-.58,1.1-.72,1.1s-.19-.08-.36-.47l-2.15-5" transform="translate(0 -0.02)"/><path class="cls-4" d="M104.29,29.52c0,.41.31.55,1.07.55a2.78,2.78,0,0,0,2.36-1c.07,0,.1.07.1.15a1.81,1.81,0,0,1-.57,1.08c-.24.2-.45.26-1.06.26s-1-.06-1.7-.06-1.36.06-1.83.06c-.14,0-.26-.05-.26-.13,0-.3.88,0,.88-.87V25.28c0-.8-.92-.58-.92-.87,0-.1.08-.14.22-.14.56,0,1.45.06,2.3.06s2.18-.06,2.35-.06a.15.15,0,0,1,.13.14c0,.17,0,.39,0,1.2,0,.17-.06.22-.15.22s-.15-.23-.18-.4c-.08-.49-.59-.69-1.64-.69-.72,0-1.09,0-1.09.4V27h1.27c1,0,.74-.8,1-.8a.14.14,0,0,1,.16.15c0,.16-.05.44-.05.73s0,.81,0,1.17c0,.15,0,.21-.18.21s0-.95-1-.95h-1.29v2" transform="translate(0 -0.02)"/><path class="cls-4" d="M110.12,29.64c0,.73,1.06.52,1.06.77,0,.07,0,.13-.19.13-.37,0-.8-.06-1.23-.06s-.92.06-1.33.06c-.09,0-.14-.05-.14-.11,0-.36.82,0,.82-.9v-4.1c0-1.07-1-.67-1-1,0-.13.11-.18.26-.18s.68.06,1.18.06c.74,0,1.25-.06,1.71-.06,1.79,0,2.3.9,2.3,1.67,0,1-.79,1.29-1.35,1.47l1.65,2.22a.87.87,0,0,0,.79.45c.23,0,.3,0,.3.14s-.18.26-.45.26h-.79a.79.79,0,0,1-.7-.37l-1.27-1.81c-.43-.63-.52-.69-.86-.69h-.77v2m0-2.41h1c1,0,1.47-.38,1.47-1.16,0-1.29-1.32-1.41-1.83-1.41s-.61.14-.61.58Z" transform="translate(0 -0.02)"/><path class="cls-4" d="M118.41,24.4a3.15,3.15,0,0,0,.61.18c.32,0,.21-.2.33-.2s.08.06.08.16,0,.53,0,.82,0,.73,0,.94-.08.15-.13.15-.14-.16-.2-.33a1.84,1.84,0,0,0-1.72-1.52c-.72,0-1.24.38-1.24,1,0,1.44,3.39,1,3.39,3.08a2,2,0,0,1-2.29,1.93,3.28,3.28,0,0,1-1.64-.36c-.19-.09-.21-.15-.24-.4,0-.42-.26-1.13-.26-1.4a.18.18,0,0,1,.17-.2c.12,0,.18.09.26.38a2.21,2.21,0,0,0,1.89,1.6c.74,0,1.34-.39,1.34-1.13,0-1.55-3.4-1.09-3.4-3.08a1.86,1.86,0,0,1,2-1.78,3.11,3.11,0,0,1,1,.18" transform="translate(0 -0.02)"/><path class="cls-4" d="M121.36,25.17c0-.73-1.06-.52-1.06-.77,0-.07,0-.13.2-.13.37,0,.8.06,1.22.06s.93-.06,1.34-.06a.13.13,0,0,1,.14.11c0,.36-.83.05-.83.71v4.55c0,.73,1.08.52,1.08.77,0,.07,0,.13-.19.13-.38,0-.8-.06-1.23-.06s-.93.06-1.34.06a.13.13,0,0,1-.14-.11c0-.36.81,0,.81-.71V25.17" transform="translate(0 -0.02)"/><path class="cls-4" d="M126.59,25.35c0-.3-.12-.51-.41-.51h-1.12c-1,0-.73,1.23-1.09,1.23-.12,0-.16-.07-.16-.17s.23-1.18.23-1.49c0-.08.08-.11.18-.11.25,0,1,.08,1.79.08h1.84l1.17,0c.39,0,.75-.06.95-.06s.18,0,.18.17.15,1.13.15,1.22,0,.16-.17.16-.2-1-1.1-1h-1c-.33,0-.41.11-.41.39v4.23c0,.93,1.16.57,1.16.94,0,.09-.07.14-.28.14-.4,0-.78-.06-1.32-.06s-1,.06-1.46.06c-.11,0-.17-.06-.17-.14,0-.33,1.06,0,1.06-.88V25.35" transform="translate(0 -0.02)"/><path class="cls-4" d="M133,27.83l-1.45-2.59c-.45-.81-1-.59-1-.81a.16.16,0,0,1,.15-.16c.37,0,.82.06,1.23.06s.65-.06.91-.06.19.06.19.13-.49.12-.49.51a10.46,10.46,0,0,0,1.24,2.26A6.37,6.37,0,0,0,135,25.06c0-.61-.84-.44-.84-.65a.14.14,0,0,1,.14-.14c.22,0,.74.06,1.12.06.23,0,.6-.06.88-.06.1,0,.12.05.12.11s-.38.09-.76.71L134,27.72v2c0,.67.8.42.8.71,0,.11-.07.13-.18.13s-.69-.06-1.08-.06-.9.06-1.25.06c-.09,0-.17,0-.17-.11,0-.29.87-.13.87-1V27.83" transform="translate(0 -0.02)"/><path class="cls-4" d="M138,26.48a2,2,0,1,1,2,2,2,2,0,0,1-2-2m3.87,0A1.83,1.83,0,1,0,140,28.29a1.81,1.81,0,0,0,1.83-1.82m-2.2.68c0,.34,0,.3.28.32v.11H139v-.11c.2,0,.28,0,.28-.17V25.46c0-.16-.14-.15-.28-.15v-.12h.95c.41,0,.94.06.94.59a.67.67,0,0,1-.65.63v0c.52.09.46,1,.92,1v.11H141c-.4,0-.43,0-.64-.52-.15-.36-.17-.57-.59-.57h-.1Zm.09-.8c.37,0,.74,0,.74-.52s-.21-.5-.55-.5-.28,0-.28.24v.78Z" transform="translate(0 -0.02)"/></g></g></g></g></svg>